<?xml version="1.0" encoding="UTF-8"?>
<svg version="1.1" xmlns="http://www.w3.org/2000/svg" width="2048" height="2048">
<path d="M0 0 C2.02840814 -0.00165191 4.05681596 -0.00373922 6.08522326 -0.0062201 C11.65678247 -0.01176724 17.22832625 -0.01111792 22.79988733 -0.00944251 C28.86260697 -0.00870983 34.9253223 -0.01373808 40.98804009 -0.01801753 C51.61351886 -0.02470905 62.23899296 -0.02769466 72.86447334 -0.02815247 C84.26304593 -0.02865541 95.66161497 -0.03130799 107.06018639 -0.03656006 C107.78083433 -0.03689019 108.50148227 -0.03722033 109.24396802 -0.03756046 C112.17921748 -0.03891052 115.11446694 -0.04027319 118.04971638 -0.04165257 C152.77542736 -0.05794234 187.50113765 -0.06433984 222.22685179 -0.06910044 C239.52603431 -0.07148532 256.82521643 -0.07518915 274.12439865 -0.07913754 C329.64316885 -0.09180184 385.16193904 -0.102585 440.68071066 -0.10597799 C443.33346093 -0.10614023 445.98621119 -0.10630579 448.63896146 -0.10647238 C453.95890432 -0.10680617 459.27884719 -0.10713665 464.59879005 -0.10746694 C470.82686668 -0.10785383 477.0549433 -0.10824344 483.28301993 -0.108638 C485.06553177 -0.10875042 486.84804361 -0.10886184 488.63055544 -0.10897225 C545.85227706 -0.11252004 603.0739861 -0.12759176 660.29570292 -0.15091 C701.42059607 -0.16766188 742.54548685 -0.18313102 783.67038345 -0.18764496 C784.51694863 -0.18773844 785.3635138 -0.18783193 786.23573246 -0.18792825 C804.82425131 -0.18994775 823.41277012 -0.19110342 842.00128907 -0.19145683 C848.65356199 -0.191593 855.30583491 -0.19180199 861.95810783 -0.19205009 C863.61293441 -0.19211165 865.267761 -0.19216997 866.92258758 -0.19222504 C893.24379168 -0.1931432 919.56498261 -0.20309147 945.88618238 -0.21768252 C972.41674334 -0.23233071 998.9472882 -0.2373205 1025.47785249 -0.22926298 C1029.15327938 -0.22814778 1032.82870629 -0.22713707 1036.50413322 -0.22618866 C1037.58474507 -0.22590371 1037.58474507 -0.22590371 1038.68718745 -0.225613 C1050.04183476 -0.22289147 1061.39645206 -0.23018214 1072.75109286 -0.24176203 C1083.94746898 -0.25296833 1095.14380367 -0.25302139 1106.34018409 -0.24239184 C1112.31642417 -0.23702376 1118.29256115 -0.23621176 1124.2687925 -0.24890056 C1148.68455106 -0.29753161 1172.72269453 -0.01097057 1196.96476936 3.13142776 C1198.26563615 3.29576369 1198.26563615 3.29576369 1199.59278308 3.46341953 C1203.94191079 4.01786049 1208.26646403 4.65243067 1212.58976936 5.38142776 C1213.85297005 5.59122269 1215.11617073 5.80101761 1216.41765022 6.01716995 C1261.94669132 13.86534494 1305.88955411 28.94641836 1346.92228889 50.0835762 C1349.0539805 51.17719566 1351.1947431 52.25171273 1353.33586311 53.32674026 C1373.31534047 63.47430146 1392.08463541 75.64959156 1409.96476936 89.13142776 C1410.87839241 89.81761185 1410.87839241 89.81761185 1411.81047249 90.51765823 C1419.35041438 96.19766429 1426.72022445 102.07952222 1433.96476936 108.13142776 C1434.50214729 108.57712112 1435.03952522 109.02281448 1435.59318733 109.4820137 C1444.02650954 116.49334064 1451.9303037 123.86717589 1459.58537483 131.71931839 C1462.74657111 134.95548817 1465.96435656 138.13320389 1469.19914436 141.29549026 C1475.42116876 147.40305829 1481.3659399 153.53164652 1486.77726936 160.38533401 C1488.72496832 162.83039181 1490.73903114 165.1991993 1492.78996468 167.5576973 C1547.43895495 230.68805416 1581.1853116 312.39354298 1593.21476936 394.50642776 C1593.36599251 395.5373555 1593.51721565 396.56828323 1593.67302132 397.6304512 C1596.17318679 415.84170732 1597.26501145 434.0263805 1597.21924496 452.39713669 C1597.22164242 454.4372006 1597.22491245 456.47726363 1597.22896156 458.51732492 C1597.23750067 464.07464168 1597.23378915 469.63189003 1597.22790583 475.18920767 C1597.22370734 481.25385515 1597.23115335 487.31849079 1597.23705834 493.38313532 C1597.24579532 503.99649265 1597.24721026 514.60982813 1597.24355507 525.22318649 C1597.23966786 536.60143591 1597.24015106 547.97967282 1597.24586487 559.3579216 C1597.24622369 560.07885646 1597.24658252 560.79979133 1597.24695222 561.5425727 C1597.24842727 564.47925337 1597.24993168 567.41593403 1597.25147368 570.35261467 C1597.26707795 600.10586076 1597.26979098 629.85909826 1597.26731762 659.61234772 C1597.26697915 663.71840294 1597.26665705 667.82445816 1597.26635194 671.93051338 C1597.26626037 673.15400029 1597.26626037 673.15400029 1597.26616696 674.40220411 C1597.26489312 692.50709386 1597.26749999 710.61198244 1597.27087801 728.71687184 C1597.27164876 732.85534278 1597.2723935 736.99381373 1597.27314302 741.13228467 C1597.27344471 742.79332828 1597.2737466 744.4543719 1597.27404866 746.11541551 C1597.27419834 746.9387884 1597.27434802 747.76216129 1597.27450224 748.61048487 C1597.27480577 750.27600008 1597.27511045 751.94151528 1597.27541628 753.60703048 C1597.28408533 800.84464249 1597.28873613 848.08225347 1597.28446865 895.31986618 C1597.28439059 896.19393683 1597.28431254 897.06800749 1597.28423211 897.96856513 C1597.28335938 907.71455256 1597.28243011 917.46053999 1597.28148148 927.20652741 C1597.28139597 928.08638322 1597.28131046 928.96623903 1597.28122236 929.87275714 C1597.28051172 937.18197244 1597.28051172 937.18197244 1597.28018014 940.54732137 C1597.2746457 996.81234246 1597.28218434 1053.07734714 1597.300951 1109.34236526 C1597.30567357 1123.51872377 1597.31035424 1137.69508229 1597.31478786 1151.87144089 C1597.31519785 1153.18094484 1597.31519785 1153.18094484 1597.31561611 1154.51690341 C1597.32399319 1181.44246073 1597.32866762 1208.36801668 1597.32949543 1235.29357529 C1597.3295218 1236.13946926 1597.32954816 1236.98536324 1597.32957533 1237.85689037 C1597.33011622 1256.43018162 1597.3297434 1275.00347277 1597.32853561 1293.57676398 C1597.32811003 1300.22329459 1597.32774489 1306.8698252 1597.32740617 1313.51635581 C1597.32732087 1315.16970983 1597.32723193 1316.82306385 1597.32713935 1318.47641787 C1597.32569341 1344.76944235 1597.33279846 1371.06245563 1597.34414331 1397.35547741 C1597.3558183 1424.59001187 1597.3563298 1451.82452643 1597.34429989 1479.05906099 C1597.34304819 1481.99061579 1597.34184469 1484.9221706 1597.34067917 1487.85372543 C1597.34038887 1488.57313006 1597.34009858 1489.2925347 1597.33979949 1490.03373947 C1597.3354934 1501.37228842 1597.34117104 1512.71080884 1597.35111936 1524.04935332 C1597.36071472 1535.2296109 1597.35915566 1546.40982542 1597.34691314 1557.59008416 C1597.34068123 1563.55750508 1597.33899204 1569.52482384 1597.35077647 1575.4922387 C1597.49456209 1653.73873917 1583.04826606 1728.13436399 1547.01262093 1798.0889473 C1545.91900147 1800.22063891 1544.8444844 1802.3614015 1543.76945686 1804.50252151 C1533.62189567 1824.48199888 1521.44660557 1843.25129381 1507.96476936 1861.13142776 C1507.27858528 1862.04505081 1507.27858528 1862.04505081 1506.57853889 1862.97713089 C1500.89808618 1870.5176657 1495.00721086 1877.87837926 1488.96476936 1885.13142776 C1488.13582161 1886.13206253 1487.30687386 1887.1326973 1486.45280647 1888.16365433 C1479.05482899 1896.99839333 1471.16244442 1905.24435641 1462.99186897 1913.36507034 C1460.89387429 1915.45227968 1458.80687821 1917.55006366 1456.72062874 1919.64900589 C1449.43715729 1926.93963351 1442.07625972 1933.76368439 1433.96476936 1940.13142776 C1432.87418057 1941.05390747 1431.78959336 1941.98359574 1430.71476936 1942.92439651 C1367.30563879 1998.1371764 1285.31647999 2032.26204511 1202.58976936 2044.38142776 C1201.55884163 2044.53265091 1200.52791389 2044.68387405 1199.46574593 2044.83967972 C1181.2544898 2047.33984519 1163.06981663 2048.43166986 1144.69906044 2048.38590336 C1142.65899653 2048.38830082 1140.6189335 2048.39157085 1138.5788722 2048.39561996 C1133.02155545 2048.40415908 1127.4643071 2048.40044755 1121.90698946 2048.39456423 C1115.84234198 2048.39036574 1109.77770634 2048.39781175 1103.71306181 2048.40371674 C1093.09970448 2048.41245373 1082.486369 2048.41386866 1071.87301064 2048.41021347 C1060.49476122 2048.40632626 1049.11652431 2048.40680946 1037.73827553 2048.41252327 C1037.01734067 2048.4128821 1036.2964058 2048.41324092 1035.55362443 2048.41361062 C1032.61694376 2048.41508567 1029.6802631 2048.41659009 1026.74358246 2048.41813209 C996.99033637 2048.43373635 967.23709887 2048.43644938 937.48384941 2048.43397602 C933.37779419 2048.43363755 929.27173897 2048.43331545 925.16568375 2048.43301034 C924.35002581 2048.4329493 923.53436787 2048.43288825 922.69399302 2048.43282536 C904.58910327 2048.43155152 886.48421469 2048.43415839 868.37932528 2048.43753641 C864.24085434 2048.43830716 860.1023834 2048.4390519 855.96391246 2048.43980142 C854.30286884 2048.44010312 852.64182523 2048.440405 850.98078162 2048.44070706 C850.15740873 2048.44085674 849.33403584 2048.44100642 848.48571225 2048.44116064 C846.82019705 2048.44146417 845.15468185 2048.44176886 843.48916665 2048.44207468 C796.25155464 2048.45074373 749.01394366 2048.45539453 701.77633095 2048.45112705 C700.46522497 2048.45100997 700.46522497 2048.45100997 699.127632 2048.45089052 C689.38164457 2048.45001778 679.63565714 2048.44908851 669.88966972 2048.44813988 C669.00981391 2048.44805437 668.1299581 2048.44796886 667.22343999 2048.44788076 C659.91422469 2048.44717013 659.91422469 2048.44717013 656.54887576 2048.44683854 C600.28385467 2048.4413041 544.01884999 2048.44884274 487.75383186 2048.46760941 C473.57747336 2048.47233197 459.40111484 2048.47701264 445.22475624 2048.48144627 C443.91525229 2048.48185625 443.91525229 2048.48185625 442.57929372 2048.48227452 C415.6537364 2048.4906516 388.72818045 2048.49532602 361.80262184 2048.49615383 C360.95672786 2048.4961802 360.11083389 2048.49620656 359.23930676 2048.49623373 C340.66601551 2048.49677463 322.09272436 2048.49640181 303.51943315 2048.49519402 C296.87290254 2048.49476843 290.22637193 2048.49440329 283.57984132 2048.49406457 C281.9264873 2048.49397927 280.27313328 2048.49389034 278.61977925 2048.49379776 C252.32675478 2048.49235181 226.0337415 2048.49945686 199.74071972 2048.51080172 C172.50618526 2048.5224767 145.2716707 2048.5229882 118.03713614 2048.51095829 C115.10558134 2048.50970659 112.17402653 2048.50850309 109.24247169 2048.50733757 C108.52306706 2048.50704728 107.80366243 2048.50675698 107.06245766 2048.50645789 C95.72390871 2048.5021518 84.38538828 2048.50782944 73.04684381 2048.51777776 C61.86658623 2048.52737312 50.68637171 2048.52581406 39.50611297 2048.51357154 C33.53869205 2048.50733963 27.57137329 2048.50565044 21.60395843 2048.51743487 C-55.31687963 2048.65880626 -130.15862486 2034.98835462 -198.94636345 1999.21052933 C-201.23535855 1998.02804238 -203.53717144 1996.87282956 -205.83991814 1995.71736526 C-226.37526312 1985.3117732 -245.66208014 1972.98500438 -264.03523064 1959.13142776 C-264.94885368 1958.44524368 -264.94885368 1958.44524368 -265.88093376 1957.7451973 C-273.42146857 1952.06474458 -280.78218213 1946.17386926 -288.03523064 1940.13142776 C-289.53618279 1938.88800613 -289.53618279 1938.88800613 -291.0674572 1937.61946487 C-299.90219621 1930.22148739 -308.14815928 1922.32910282 -316.26887321 1914.15852737 C-318.35608255 1912.06053269 -320.45386653 1909.97353661 -322.55280876 1907.88728714 C-329.84343638 1900.60381569 -336.66748726 1893.24291812 -343.03523064 1885.13142776 C-343.95771034 1884.04083897 -344.88739861 1882.95625176 -345.82819939 1881.88142776 C-401.04097928 1818.47229719 -435.16584798 1736.48313839 -447.28523064 1653.75642776 C-447.43645378 1652.72550003 -447.58767693 1651.6945723 -447.74348259 1650.63240433 C-450.24342706 1632.42275798 -451.33540694 1614.23877963 -451.29249954 1595.86965466 C-451.29520143 1593.83000356 -451.29877402 1591.79035346 -451.30312401 1589.75070521 C-451.31248525 1584.19448842 -451.30961317 1578.63833802 -451.30456847 1573.08211819 C-451.30127804 1567.01855694 -451.30960403 1560.95500919 -451.31638682 1554.89145237 C-451.32665881 1544.27979605 -451.32960533 1533.66816053 -451.32747459 1523.05650139 C-451.32521909 1511.67985796 -451.3273167 1500.30322759 -451.33461952 1488.92658615 C-451.33507883 1488.20574471 -451.33553813 1487.48490327 -451.33601136 1486.74221815 C-451.33789482 1483.80590229 -451.33980622 1480.86958645 -451.34175374 1477.93327064 C-451.36199997 1447.3625065 -451.36816416 1416.79174971 -451.36933796 1386.22097962 C-451.36946747 1382.93429776 -451.36960335 1379.64761589 -451.36974478 1376.36093402 C-451.36977879 1375.54524787 -451.3698128 1374.72956172 -451.36984784 1373.8891578 C-451.37066613 1355.78174406 -451.37505045 1337.67433171 -451.38005647 1319.5669187 C-451.38211331 1312.10152826 -451.38409343 1304.6361378 -451.38608897 1297.17074734 C-451.38631015 1296.34578093 -451.38653132 1295.52081452 -451.38675921 1294.67084913 C-451.3994011 1247.41874075 -451.40765813 1200.16663328 -451.4067421 1152.91452312 C-451.40671054 1151.14757519 -451.40667907 1149.38062725 -451.40664768 1147.61367931 C-451.40650092 1139.63679085 -451.40632458 1131.65990239 -451.40613991 1123.68301393 C-451.40605766 1120.12622191 -451.40597737 1116.56942989 -451.40589728 1113.01263787 C-451.40585649 1111.2324025 -451.40581445 1109.45216713 -451.40577116 1107.67193176 C-451.40441135 1051.40654793 -451.41903626 995.1411893 -451.44685173 938.87581253 C-451.45385446 924.70303702 -451.46079369 910.53026148 -451.46738052 896.35748577 C-451.46778627 895.48466937 -451.46819202 894.61185296 -451.46861006 893.71258757 C-451.48105233 866.78429736 -451.48857357 839.85600922 -451.4910965 812.92771626 C-451.4911764 812.08148109 -451.4912563 811.23524592 -451.49133862 810.36336727 C-451.49304569 791.78066013 -451.49356739 773.19795311 -451.49299787 754.61524591 C-451.49280492 747.96489457 -451.49270082 741.31454323 -451.49264041 734.6641919 C-451.49262458 733.00991884 -451.49260417 731.35564578 -451.49257916 729.70137272 C-451.49222745 703.41239619 -451.5035846 677.12344133 -451.5208868 650.834471 C-451.53823986 624.33338062 -451.54252385 597.83232012 -451.52936415 571.33122644 C-451.52753997 567.65657945 -451.52585331 563.9819324 -451.52424812 560.30728531 C-451.52392795 559.58706377 -451.52360777 558.86684223 -451.5232779 558.12479579 C-451.51860066 546.79290106 -451.52721987 535.46105858 -451.5415905 524.12917366 C-451.55549004 512.9436839 -451.55442002 501.75826918 -451.53920622 490.57277451 C-451.53149567 484.6073691 -451.52973774 478.64214598 -451.54612093 472.67675393 C-451.74638152 394.54006267 -437.13270855 320.15563274 -401.0830822 250.17390823 C-399.98946274 248.04221662 -398.91494567 245.90145403 -397.83991814 243.76033401 C-387.69235694 223.78085665 -375.51706685 205.01156172 -362.03523064 187.13142776 C-361.57777458 186.52234573 -361.12031853 185.9132637 -360.64900017 185.28572464 C-354.96854745 177.74518983 -349.07767213 170.38447627 -343.03523064 163.13142776 C-341.79180901 161.63047562 -341.79180901 161.63047562 -340.52326775 160.0992012 C-333.12529026 151.2644622 -325.23290569 143.01849912 -317.06233025 134.89778519 C-314.96433556 132.81057585 -312.87733948 130.71279187 -310.79109001 128.61384964 C-303.50761856 121.32322202 -296.14672099 114.49917114 -288.03523064 108.13142776 C-286.94464184 107.20894806 -285.86005463 106.27925979 -284.78523064 105.33845901 C-215.30856441 44.8424414 -124.04409371 10.04213619 -33.03523064 1.13142776 C-32.20234889 1.04834176 -31.36946715 0.96525575 -30.51134657 0.87965198 C-20.33674897 -0.02511391 -10.20468314 -0.01017397 0 0 Z " fill="#E3051C" transform="translate(451.0352306365967,-0.13142776489257813)"/>
<path d="M0 0 C85.8 0 171.6 0 260 0 C263.2045353 7.69088472 266.25669531 15.2705132 268.9765625 23.12109375 C269.52061234 24.67613365 269.52061234 24.67613365 270.07565308 26.2625885 C270.85502595 28.49079609 271.63291024 30.71952483 272.40942383 32.94873047 C274.51736509 38.9986362 276.63761616 45.04422398 278.7578125 51.08984375 C279.19373718 52.33337616 279.62966187 53.57690857 280.07879639 54.85812378 C284.49067763 67.42771354 288.98965984 79.96547731 293.5 92.5 C300.3098579 111.43384898 307.02715137 130.39833076 313.6875 149.38525391 C319.55764917 166.11469629 325.50055441 182.81650883 331.5 199.5 C338.30881867 218.43422724 345.02714818 237.39832168 351.6875 256.38525391 C357.55764935 273.11469682 363.50060885 289.8164889 369.5 306.5 C375.98640518 324.53832817 382.40112253 342.60030198 388.75 360.6875 C394.33483369 376.59789716 399.94140223 392.49959199 405.625 408.375 C410.92432239 423.17749495 416.19316166 437.99043025 421.4375 452.8125 C426.84255666 468.08748144 432.25614744 483.35934778 437.6875 498.625 C443.89527606 516.0736347 450.0917213 533.52627322 456.28360367 550.98055267 C462.84953724 569.48924182 469.41796904 587.99702743 476 606.5 C482.58277225 625.00505645 489.15183347 643.51496528 495.71862793 662.0256958 C501.80636541 679.18595223 507.89747885 696.34499387 514 713.5 C520.58277225 732.00505645 527.15183347 750.51496528 533.71862793 769.0256958 C539.80636541 786.18595223 545.89747885 803.34499387 552 820.5 C558.10292836 837.65615084 564.19442458 854.81634575 570.28258514 871.97774124 C576.97459518 890.8412702 583.66839724 909.70415273 590.375 928.5625 C590.69635925 929.46614288 591.01771851 930.36978577 591.34881592 931.30081177 C593.56557819 937.53398091 595.78273525 943.76700959 598 950 C600.54195442 957.14573101 603.08363423 964.29155961 605.625 971.4375 C605.9435495 972.33312653 606.262099 973.22875305 606.59030151 974.15151978 C610.68295614 985.65899297 614.7701455 997.16839649 618.85204315 1008.67968941 C619.58402779 1010.74391155 620.31608247 1012.80810884 621.04815674 1014.87229919 C621.53845427 1016.25479051 622.02874968 1017.63728257 622.51904297 1019.01977539 C622.76208412 1019.70508426 623.00512527 1020.39039312 623.25553131 1021.09646893 C624.67753956 1025.10635423 626.09898724 1029.11643766 627.51997375 1033.12668514 C628.19530311 1035.03225127 628.8709479 1036.93770526 629.54669189 1038.84312439 C630.42167782 1041.3107085 631.29599858 1043.77852859 632.1696167 1046.24659729 C634.30425426 1052.26714142 636.46102714 1058.27825473 638.66064453 1064.27539062 C639.08168961 1065.42771179 639.50273468 1066.58003296 639.9365387 1067.76727295 C640.7313987 1069.93829709 641.53151002 1072.1074084 642.3377533 1074.27423096 C642.86484642 1075.71581573 642.86484642 1075.71581573 643.40258789 1077.18652344 C643.71241104 1078.02358826 644.02223419 1078.86065308 644.34144592 1079.7230835 C645 1082 645 1082 645 1086 C560.52 1086 476.04 1086 389 1086 C385.04 1074.12 381.08 1062.24 377 1050 C375.18757813 1044.57433594 373.37515625 1039.14867187 371.5078125 1033.55859375 C354.301244 982.0410557 354.301244 982.0410557 346.2265625 957.10351562 C345.68623415 955.4348841 345.14586902 953.76626448 344.60546875 952.09765625 C344.19740494 950.83751205 344.19740494 950.83751205 343.78109741 949.5519104 C341.40512885 942.22574787 339.00213766 934.90854959 336.59495354 927.59260178 C335.92868477 925.56741926 335.26280592 923.54210898 334.59706116 921.51675415 C334.15414587 920.16937204 333.711229 918.82199045 333.26831055 917.47460938 C332.93968128 916.47486871 332.93968128 916.47486871 332.60441303 915.45493126 C331.29651567 911.47701247 329.98607592 907.49994182 328.67393398 903.52342129 C327.66835315 900.47339843 326.66653857 897.42213823 325.6640625 894.37109375 C325.10740654 892.68855751 325.10740654 892.68855751 324.539505 890.97203064 C324.20371933 889.94799637 323.86793365 888.9239621 323.52197266 887.86889648 C323.22666656 886.97267075 322.93136047 886.07644501 322.62710571 885.15306091 C322 883 322 883 322 881 C189.34 881 56.68 881 -80 881 C-81.485 886.445 -81.485 886.445 -83 892 C-87.00161883 905.57549883 -91.62648577 918.96413196 -96.12121582 932.38168335 C-98.38167589 939.13029162 -100.63490697 945.88131434 -102.88671875 952.6328125 C-103.11110249 953.30553633 -103.33548622 953.97826015 -103.56666946 954.67136955 C-107.34229091 965.99463687 -111.07025312 977.33270428 -114.75 988.6875 C-120.83882347 1007.46913081 -126.98430606 1026.23194337 -133.1463623 1044.98965454 C-134.25479452 1048.36389497 -135.36243266 1051.73839438 -136.46936035 1055.11312866 C-137.77971936 1059.10793574 -139.091606 1063.10223783 -140.4046917 1067.09614944 C-140.89552827 1068.58988127 -141.38584541 1070.08378388 -141.87562752 1071.57786179 C-142.55081139 1073.63710332 -143.22791272 1075.69570445 -143.90551758 1077.75415039 C-144.28742752 1078.91684952 -144.66933746 1080.07954865 -145.06282043 1081.27748108 C-146 1084 -146 1084 -147 1086 C-224.88 1086 -302.76 1086 -383 1086 C-380.74998113 1075.87491508 -380.74998113 1075.87491508 -379.20678711 1071.50756836 C-378.86072418 1070.5201062 -378.51466125 1069.53264404 -378.15811157 1068.51525879 C-377.78495819 1067.46737183 -377.41180481 1066.41948486 -377.02734375 1065.33984375 C-376.63259857 1064.21823853 -376.23785339 1063.0966333 -375.83114624 1061.94104004 C-374.76095214 1058.90355707 -373.68617732 1055.86774531 -372.60922623 1052.83265305 C-371.47362664 1049.62876592 -370.34398966 1046.42277725 -369.21362305 1043.21704102 C-367.13900628 1037.33633057 -365.05916114 1031.4574861 -362.97656155 1025.57959843 C-361.17071026 1020.48277123 -359.36779395 1015.38491121 -357.56568909 1010.28675842 C-353.3968198 998.49371677 -349.21700771 986.70456896 -345.03460693 974.9163208 C-341.89620288 966.0698761 -338.76007142 957.22262623 -335.625 948.375 C-335.27799042 947.39584625 -334.93098083 946.4166925 -334.57345581 945.40786743 C-328.40559652 928.00133751 -322.27844015 910.58062377 -316.1567688 893.1578064 C-310.70824785 877.65433629 -305.21521265 862.1677948 -299.67034912 846.69854736 C-294.04238841 830.99055417 -288.51450205 815.2481378 -283 799.5 C-277.194186 782.91994289 -271.36507323 766.34944388 -265.4375 749.8125 C-259.77709659 734.01961474 -254.18636196 718.20303153 -248.625 702.375 C-242.68565781 685.47239418 -236.73536837 668.5738675 -230.75 651.6875 C-230.41210449 650.73407715 -230.07420898 649.7806543 -229.72607422 648.79833984 C-228.31239968 644.80949602 -226.89861871 640.82068995 -225.48468018 636.8319397 C-220.52765308 622.84763865 -215.57549174 608.86161569 -210.625 594.875 C-210.38055019 594.18439861 -210.13610039 593.49379723 -209.88424301 592.78226852 C-202.52599817 571.99394441 -195.19348315 551.19674547 -187.88238525 530.39178467 C-182.29982291 514.50774346 -176.68102711 498.63706184 -171.02984619 482.77731323 C-165.45766785 467.13685151 -159.94023732 451.47751517 -154.4375 435.8125 C-148.83358675 419.85980325 -143.2027674 403.91763366 -137.5 388 C-131.81976286 372.1442866 -126.20840706 356.26506335 -120.625 340.375 C-114.68559347 323.47241667 -108.73536844 306.5738677 -102.75 289.6875 C-102.24315674 288.25736572 -102.24315674 288.25736572 -101.72607422 286.79833984 C-100.31239968 282.80949602 -98.89861871 278.82068995 -97.48468018 274.8319397 C-92.52765308 260.84763865 -87.57549174 246.86161569 -82.625 232.875 C-82.25832529 231.83909792 -82.25832529 231.83909792 -81.88424301 230.78226852 C-74.52599817 209.99394441 -67.19348315 189.19674547 -59.88238525 168.39178467 C-54.29922533 152.50604316 -48.68075355 136.63332225 -43.02783203 120.77227783 C-39.12031264 109.80725494 -35.23320503 98.8354181 -31.37890625 87.8515625 C-30.97900482 86.71245422 -30.57910339 85.57334595 -30.16708374 84.39971924 C-28.25350928 78.94788349 -26.34224979 73.49525828 -24.43554688 68.04101562 C-16.45902018 45.29684596 -8.19968736 22.66972388 0 0 Z " fill="#FEFEFE" transform="translate(893,479)"/>
<path d="M0 0 C0.99 0 1.98 0 3 0 C4.10973196 5.20720379 5.07553039 10.40327611 5.85791016 15.67016602 C8.01508338 30.1008559 10.94280795 44.38793006 13.76824951 58.69903564 C14.72326061 63.54981185 15.6312146 68.40712967 16.50927734 73.27246094 C22.30175819 105.09477873 30.58797564 136.79479605 40.25830078 167.63232422 C41.22854885 170.72958088 42.17665431 173.83347696 43.125 176.9375 C43.74945495 178.95850182 44.3745342 180.97931079 45 183 C45.33652588 184.09078857 45.67305176 185.18157715 46.01977539 186.30541992 C49.33845176 197.00035365 52.8068295 207.64354977 56.29824829 218.28317261 C62.21207119 236.31076818 68.05210902 254.36032729 73.8125 272.4375 C80.65921489 293.92304392 87.65678417 315.35744094 94.70629883 336.77709961 C95.29073509 338.55481247 95.29073509 338.55481247 95.88697815 340.36843872 C96.60966816 342.56622066 97.33339695 344.76366146 98.05845642 346.96066284 C99.75230993 352.11207379 101.40095017 357.27308727 102.98632812 362.45898438 C104.97281575 368.95360305 107.07356069 375.40655376 109.203125 381.85546875 C109.80945579 383.69787181 110.41578233 385.54027628 111.02193451 387.38273811 C111.66031402 389.32276747 112.29917781 391.26263685 112.93811035 393.20248413 C119.75797122 413.91321033 126.53714436 434.63681626 133.19567871 455.40005493 C133.89722769 457.58753207 134.59977935 459.7746879 135.30334473 461.96151733 C136.27305856 464.97726248 137.2388129 467.99424268 138.203125 471.01171875 C138.63286621 472.34632141 138.63286621 472.34632141 139.07128906 473.70788574 C139.3278125 474.51415405 139.58433594 475.32042236 139.84863281 476.15112305 C140.072547 476.85093796 140.29646118 477.55075287 140.52716064 478.27177429 C141 480 141 480 141 482 C47.94 482 -45.12 482 -141 482 C-140.35591607 477.49141251 -139.86704537 474.10157081 -138.48803711 469.94995117 C-138.17872253 469.00866364 -137.86940796 468.0673761 -137.55072021 467.0975647 C-137.21300598 466.08954803 -136.87529175 465.08153137 -136.52734375 464.04296875 C-136.1731134 462.9692099 -135.81888306 461.89545105 -135.45391846 460.78915405 C-134.68810564 458.46938199 -133.91971217 456.1504606 -133.14901733 453.83230591 C-131.28400818 448.22149359 -129.43473652 442.60550001 -127.58530617 436.98953819 C-126.95010489 435.0611438 -126.31424895 433.132966 -125.6783905 431.20478821 C-121.77140321 419.34825923 -117.97048017 407.45904921 -114.1875 395.5625 C-107.84713059 375.6451482 -101.35237775 355.78062056 -94.81752396 335.92650986 C-88.84092541 317.76741679 -82.91947181 299.59324907 -77.125 281.375 C-70.47810728 260.47986258 -63.66335451 239.64144316 -56.8125 218.8125 C-56.5599369 218.04449821 -56.30737381 217.27649643 -56.04715729 216.48522186 C-54.35159424 211.32961419 -52.65483037 206.17440298 -50.95703125 201.01953125 C-50.74063177 200.36238066 -50.52423229 199.70523006 -50.30127525 199.02816582 C-46.47990889 187.42641284 -46.47990889 187.42641284 -44.64523315 181.95378113 C-44.42109332 181.28451442 -44.19695349 180.61524771 -43.96602154 179.92570019 C-43.34493338 178.07294962 -42.7222861 176.22072191 -42.09953308 174.36853027 C-40.40738613 169.18446777 -38.93800021 163.94671495 -37.5 158.6875 C-37.20085693 157.60629883 -36.90171387 156.52509766 -36.59350586 155.41113281 C-35.99678691 153.25353031 -35.40159968 151.09550348 -34.80810547 148.93701172 C-33.92493373 145.72717606 -33.03243458 142.52003371 -32.13745117 139.31347656 C-31.54440413 137.18505466 -30.95560907 135.0554862 -30.3671875 132.92578125 C-29.32236585 129.14877471 -28.26023901 125.37685358 -27.1953125 121.60546875 C-17.32316811 86.4705972 -9.09418182 50.99087891 -2.91552734 15.01586914 C-2.73385262 13.95940941 -2.73385262 13.95940941 -2.54850769 12.88160706 C-2.22000748 10.9650377 -1.89445007 9.04796461 -1.5690918 7.13085938 C-1.13012001 4.71585543 -0.64000338 2.36738759 0 0 Z " fill="#E3051C" transform="translate(1015,698)"/>
</svg>
