<?xml version="1.0" encoding="UTF-8"?>
<svg version="1.1" xmlns="http://www.w3.org/2000/svg" width="2048" height="2048">
<path d="M0 0 C2.02840814 -0.00165191 4.05681596 -0.00373922 6.08522326 -0.0062201 C11.65678247 -0.01176724 17.22832625 -0.01111792 22.79988733 -0.00944251 C28.86260697 -0.00870983 34.9253223 -0.01373808 40.98804009 -0.01801753 C51.61351886 -0.02470905 62.23899296 -0.02769466 72.86447334 -0.02815247 C84.26304593 -0.02865541 95.66161497 -0.03130799 107.06018639 -0.03656006 C107.78083433 -0.03689019 108.50148227 -0.03722033 109.24396802 -0.03756046 C112.17921748 -0.03891052 115.11446694 -0.04027319 118.04971638 -0.04165257 C152.77542736 -0.05794234 187.50113765 -0.06433984 222.22685179 -0.06910044 C239.52603431 -0.07148532 256.82521643 -0.07518915 274.12439865 -0.07913754 C329.64316885 -0.09180184 385.16193904 -0.102585 440.68071066 -0.10597799 C443.33346093 -0.10614023 445.98621119 -0.10630579 448.63896146 -0.10647238 C453.95890432 -0.10680617 459.27884719 -0.10713665 464.59879005 -0.10746694 C470.82686668 -0.10785383 477.0549433 -0.10824344 483.28301993 -0.108638 C485.06553177 -0.10875042 486.84804361 -0.10886184 488.63055544 -0.10897225 C545.85227706 -0.11252004 603.0739861 -0.12759176 660.29570292 -0.15091 C701.42059607 -0.16766188 742.54548685 -0.18313102 783.67038345 -0.18764496 C784.51694863 -0.18773844 785.3635138 -0.18783193 786.23573246 -0.18792825 C804.82425131 -0.18994775 823.41277012 -0.19110342 842.00128907 -0.19145683 C848.65356199 -0.191593 855.30583491 -0.19180199 861.95810783 -0.19205009 C863.61293441 -0.19211165 865.267761 -0.19216997 866.92258758 -0.19222504 C893.24379168 -0.1931432 919.56498261 -0.20309147 945.88618238 -0.21768252 C972.41674334 -0.23233071 998.9472882 -0.2373205 1025.47785249 -0.22926298 C1029.15327938 -0.22814778 1032.82870629 -0.22713707 1036.50413322 -0.22618866 C1037.58474507 -0.22590371 1037.58474507 -0.22590371 1038.68718745 -0.225613 C1050.04183476 -0.22289147 1061.39645206 -0.23018214 1072.75109286 -0.24176203 C1083.94746898 -0.25296833 1095.14380367 -0.25302139 1106.34018409 -0.24239184 C1112.31642417 -0.23702376 1118.29256115 -0.23621176 1124.2687925 -0.24890056 C1148.68455106 -0.29753161 1172.72269453 -0.01097057 1196.96476936 3.13142776 C1198.26563615 3.29576369 1198.26563615 3.29576369 1199.59278308 3.46341953 C1203.94191079 4.01786049 1208.26646403 4.65243067 1212.58976936 5.38142776 C1213.85297005 5.59122269 1215.11617073 5.80101761 1216.41765022 6.01716995 C1261.94669132 13.86534494 1305.88955411 28.94641836 1346.92228889 50.0835762 C1349.0539805 51.17719566 1351.1947431 52.25171273 1353.33586311 53.32674026 C1373.31534047 63.47430146 1392.08463541 75.64959156 1409.96476936 89.13142776 C1410.87839241 89.81761185 1410.87839241 89.81761185 1411.81047249 90.51765823 C1419.35041438 96.19766429 1426.72022445 102.07952222 1433.96476936 108.13142776 C1434.50214729 108.57712112 1435.03952522 109.02281448 1435.59318733 109.4820137 C1444.02650954 116.49334064 1451.9303037 123.86717589 1459.58537483 131.71931839 C1462.74657111 134.95548817 1465.96435656 138.13320389 1469.19914436 141.29549026 C1475.42116876 147.40305829 1481.3659399 153.53164652 1486.77726936 160.38533401 C1488.72496832 162.83039181 1490.73903114 165.1991993 1492.78996468 167.5576973 C1547.43895495 230.68805416 1581.1853116 312.39354298 1593.21476936 394.50642776 C1593.36599251 395.5373555 1593.51721565 396.56828323 1593.67302132 397.6304512 C1596.17318679 415.84170732 1597.26501145 434.0263805 1597.21924496 452.39713669 C1597.22164242 454.4372006 1597.22491245 456.47726363 1597.22896156 458.51732492 C1597.23750067 464.07464168 1597.23378915 469.63189003 1597.22790583 475.18920767 C1597.22370734 481.25385515 1597.23115335 487.31849079 1597.23705834 493.38313532 C1597.24579532 503.99649265 1597.24721026 514.60982813 1597.24355507 525.22318649 C1597.23966786 536.60143591 1597.24015106 547.97967282 1597.24586487 559.3579216 C1597.24622369 560.07885646 1597.24658252 560.79979133 1597.24695222 561.5425727 C1597.24842727 564.47925337 1597.24993168 567.41593403 1597.25147368 570.35261467 C1597.26707795 600.10586076 1597.26979098 629.85909826 1597.26731762 659.61234772 C1597.26697915 663.71840294 1597.26665705 667.82445816 1597.26635194 671.93051338 C1597.26626037 673.15400029 1597.26626037 673.15400029 1597.26616696 674.40220411 C1597.26489312 692.50709386 1597.26749999 710.61198244 1597.27087801 728.71687184 C1597.27164876 732.85534278 1597.2723935 736.99381373 1597.27314302 741.13228467 C1597.27344471 742.79332828 1597.2737466 744.4543719 1597.27404866 746.11541551 C1597.27419834 746.9387884 1597.27434802 747.76216129 1597.27450224 748.61048487 C1597.27480577 750.27600008 1597.27511045 751.94151528 1597.27541628 753.60703048 C1597.28408533 800.84464249 1597.28873613 848.08225347 1597.28446865 895.31986618 C1597.28439059 896.19393683 1597.28431254 897.06800749 1597.28423211 897.96856513 C1597.28335938 907.71455256 1597.28243011 917.46053999 1597.28148148 927.20652741 C1597.28139597 928.08638322 1597.28131046 928.96623903 1597.28122236 929.87275714 C1597.28051172 937.18197244 1597.28051172 937.18197244 1597.28018014 940.54732137 C1597.2746457 996.81234246 1597.28218434 1053.07734714 1597.300951 1109.34236526 C1597.30567357 1123.51872377 1597.31035424 1137.69508229 1597.31478786 1151.87144089 C1597.31519785 1153.18094484 1597.31519785 1153.18094484 1597.31561611 1154.51690341 C1597.32399319 1181.44246073 1597.32866762 1208.36801668 1597.32949543 1235.29357529 C1597.3295218 1236.13946926 1597.32954816 1236.98536324 1597.32957533 1237.85689037 C1597.33011622 1256.43018162 1597.3297434 1275.00347277 1597.32853561 1293.57676398 C1597.32811003 1300.22329459 1597.32774489 1306.8698252 1597.32740617 1313.51635581 C1597.32732087 1315.16970983 1597.32723193 1316.82306385 1597.32713935 1318.47641787 C1597.32569341 1344.76944235 1597.33279846 1371.06245563 1597.34414331 1397.35547741 C1597.3558183 1424.59001187 1597.3563298 1451.82452643 1597.34429989 1479.05906099 C1597.34304819 1481.99061579 1597.34184469 1484.9221706 1597.34067917 1487.85372543 C1597.34038887 1488.57313006 1597.34009858 1489.2925347 1597.33979949 1490.03373947 C1597.3354934 1501.37228842 1597.34117104 1512.71080884 1597.35111936 1524.04935332 C1597.36071472 1535.2296109 1597.35915566 1546.40982542 1597.34691314 1557.59008416 C1597.34068123 1563.55750508 1597.33899204 1569.52482384 1597.35077647 1575.4922387 C1597.49456209 1653.73873917 1583.04826606 1728.13436399 1547.01262093 1798.0889473 C1545.91900147 1800.22063891 1544.8444844 1802.3614015 1543.76945686 1804.50252151 C1533.62189567 1824.48199888 1521.44660557 1843.25129381 1507.96476936 1861.13142776 C1507.27858528 1862.04505081 1507.27858528 1862.04505081 1506.57853889 1862.97713089 C1500.89808618 1870.5176657 1495.00721086 1877.87837926 1488.96476936 1885.13142776 C1488.13582161 1886.13206253 1487.30687386 1887.1326973 1486.45280647 1888.16365433 C1479.05482899 1896.99839333 1471.16244442 1905.24435641 1462.99186897 1913.36507034 C1460.89387429 1915.45227968 1458.80687821 1917.55006366 1456.72062874 1919.64900589 C1449.43715729 1926.93963351 1442.07625972 1933.76368439 1433.96476936 1940.13142776 C1432.87418057 1941.05390747 1431.78959336 1941.98359574 1430.71476936 1942.92439651 C1367.30563879 1998.1371764 1285.31647999 2032.26204511 1202.58976936 2044.38142776 C1201.55884163 2044.53265091 1200.52791389 2044.68387405 1199.46574593 2044.83967972 C1181.2544898 2047.33984519 1163.06981663 2048.43166986 1144.69906044 2048.38590336 C1142.65899653 2048.38830082 1140.6189335 2048.39157085 1138.5788722 2048.39561996 C1133.02155545 2048.40415908 1127.4643071 2048.40044755 1121.90698946 2048.39456423 C1115.84234198 2048.39036574 1109.77770634 2048.39781175 1103.71306181 2048.40371674 C1093.09970448 2048.41245373 1082.486369 2048.41386866 1071.87301064 2048.41021347 C1060.49476122 2048.40632626 1049.11652431 2048.40680946 1037.73827553 2048.41252327 C1037.01734067 2048.4128821 1036.2964058 2048.41324092 1035.55362443 2048.41361062 C1032.61694376 2048.41508567 1029.6802631 2048.41659009 1026.74358246 2048.41813209 C996.99033637 2048.43373635 967.23709887 2048.43644938 937.48384941 2048.43397602 C933.37779419 2048.43363755 929.27173897 2048.43331545 925.16568375 2048.43301034 C924.35002581 2048.4329493 923.53436787 2048.43288825 922.69399302 2048.43282536 C904.58910327 2048.43155152 886.48421469 2048.43415839 868.37932528 2048.43753641 C864.24085434 2048.43830716 860.1023834 2048.4390519 855.96391246 2048.43980142 C854.30286884 2048.44010312 852.64182523 2048.440405 850.98078162 2048.44070706 C850.15740873 2048.44085674 849.33403584 2048.44100642 848.48571225 2048.44116064 C846.82019705 2048.44146417 845.15468185 2048.44176886 843.48916665 2048.44207468 C796.25155464 2048.45074373 749.01394366 2048.45539453 701.77633095 2048.45112705 C700.46522497 2048.45100997 700.46522497 2048.45100997 699.127632 2048.45089052 C689.38164457 2048.45001778 679.63565714 2048.44908851 669.88966972 2048.44813988 C669.00981391 2048.44805437 668.1299581 2048.44796886 667.22343999 2048.44788076 C659.91422469 2048.44717013 659.91422469 2048.44717013 656.54887576 2048.44683854 C600.28385467 2048.4413041 544.01884999 2048.44884274 487.75383186 2048.46760941 C473.57747336 2048.47233197 459.40111484 2048.47701264 445.22475624 2048.48144627 C443.91525229 2048.48185625 443.91525229 2048.48185625 442.57929372 2048.48227452 C415.6537364 2048.4906516 388.72818045 2048.49532602 361.80262184 2048.49615383 C360.95672786 2048.4961802 360.11083389 2048.49620656 359.23930676 2048.49623373 C340.66601551 2048.49677463 322.09272436 2048.49640181 303.51943315 2048.49519402 C296.87290254 2048.49476843 290.22637193 2048.49440329 283.57984132 2048.49406457 C281.9264873 2048.49397927 280.27313328 2048.49389034 278.61977925 2048.49379776 C252.32675478 2048.49235181 226.0337415 2048.49945686 199.74071972 2048.51080172 C172.50618526 2048.5224767 145.2716707 2048.5229882 118.03713614 2048.51095829 C115.10558134 2048.50970659 112.17402653 2048.50850309 109.24247169 2048.50733757 C108.52306706 2048.50704728 107.80366243 2048.50675698 107.06245766 2048.50645789 C95.72390871 2048.5021518 84.38538828 2048.50782944 73.04684381 2048.51777776 C61.86658623 2048.52737312 50.68637171 2048.52581406 39.50611297 2048.51357154 C33.53869205 2048.50733963 27.57137329 2048.50565044 21.60395843 2048.51743487 C-55.31687963 2048.65880626 -130.15862486 2034.98835462 -198.94636345 1999.21052933 C-201.23535855 1998.02804238 -203.53717144 1996.87282956 -205.83991814 1995.71736526 C-226.37526312 1985.3117732 -245.66208014 1972.98500438 -264.03523064 1959.13142776 C-264.94885368 1958.44524368 -264.94885368 1958.44524368 -265.88093376 1957.7451973 C-273.42146857 1952.06474458 -280.78218213 1946.17386926 -288.03523064 1940.13142776 C-289.53618279 1938.88800613 -289.53618279 1938.88800613 -291.0674572 1937.61946487 C-299.90219621 1930.22148739 -308.14815928 1922.32910282 -316.26887321 1914.15852737 C-318.35608255 1912.06053269 -320.45386653 1909.97353661 -322.55280876 1907.88728714 C-329.84343638 1900.60381569 -336.66748726 1893.24291812 -343.03523064 1885.13142776 C-343.95771034 1884.04083897 -344.88739861 1882.95625176 -345.82819939 1881.88142776 C-401.04097928 1818.47229719 -435.16584798 1736.48313839 -447.28523064 1653.75642776 C-447.43645378 1652.72550003 -447.58767693 1651.6945723 -447.74348259 1650.63240433 C-450.24342706 1632.42275798 -451.33540694 1614.23877963 -451.29249954 1595.86965466 C-451.29520143 1593.83000356 -451.29877402 1591.79035346 -451.30312401 1589.75070521 C-451.31248525 1584.19448842 -451.30961317 1578.63833802 -451.30456847 1573.08211819 C-451.30127804 1567.01855694 -451.30960403 1560.95500919 -451.31638682 1554.89145237 C-451.32665881 1544.27979605 -451.32960533 1533.66816053 -451.32747459 1523.05650139 C-451.32521909 1511.67985796 -451.3273167 1500.30322759 -451.33461952 1488.92658615 C-451.33507883 1488.20574471 -451.33553813 1487.48490327 -451.33601136 1486.74221815 C-451.33789482 1483.80590229 -451.33980622 1480.86958645 -451.34175374 1477.93327064 C-451.36199997 1447.3625065 -451.36816416 1416.79174971 -451.36933796 1386.22097962 C-451.36946747 1382.93429776 -451.36960335 1379.64761589 -451.36974478 1376.36093402 C-451.36977879 1375.54524787 -451.3698128 1374.72956172 -451.36984784 1373.8891578 C-451.37066613 1355.78174406 -451.37505045 1337.67433171 -451.38005647 1319.5669187 C-451.38211331 1312.10152826 -451.38409343 1304.6361378 -451.38608897 1297.17074734 C-451.38631015 1296.34578093 -451.38653132 1295.52081452 -451.38675921 1294.67084913 C-451.3994011 1247.41874075 -451.40765813 1200.16663328 -451.4067421 1152.91452312 C-451.40671054 1151.14757519 -451.40667907 1149.38062725 -451.40664768 1147.61367931 C-451.40650092 1139.63679085 -451.40632458 1131.65990239 -451.40613991 1123.68301393 C-451.40605766 1120.12622191 -451.40597737 1116.56942989 -451.40589728 1113.01263787 C-451.40585649 1111.2324025 -451.40581445 1109.45216713 -451.40577116 1107.67193176 C-451.40441135 1051.40654793 -451.41903626 995.1411893 -451.44685173 938.87581253 C-451.45385446 924.70303702 -451.46079369 910.53026148 -451.46738052 896.35748577 C-451.46778627 895.48466937 -451.46819202 894.61185296 -451.46861006 893.71258757 C-451.48105233 866.78429736 -451.48857357 839.85600922 -451.4910965 812.92771626 C-451.4911764 812.08148109 -451.4912563 811.23524592 -451.49133862 810.36336727 C-451.49304569 791.78066013 -451.49356739 773.19795311 -451.49299787 754.61524591 C-451.49280492 747.96489457 -451.49270082 741.31454323 -451.49264041 734.6641919 C-451.49262458 733.00991884 -451.49260417 731.35564578 -451.49257916 729.70137272 C-451.49222745 703.41239619 -451.5035846 677.12344133 -451.5208868 650.834471 C-451.53823986 624.33338062 -451.54252385 597.83232012 -451.52936415 571.33122644 C-451.52753997 567.65657945 -451.52585331 563.9819324 -451.52424812 560.30728531 C-451.52392795 559.58706377 -451.52360777 558.86684223 -451.5232779 558.12479579 C-451.51860066 546.79290106 -451.52721987 535.46105858 -451.5415905 524.12917366 C-451.55549004 512.9436839 -451.55442002 501.75826918 -451.53920622 490.57277451 C-451.53149567 484.6073691 -451.52973774 478.64214598 -451.54612093 472.67675393 C-451.74638152 394.54006267 -437.13270855 320.15563274 -401.0830822 250.17390823 C-399.98946274 248.04221662 -398.91494567 245.90145403 -397.83991814 243.76033401 C-387.69235694 223.78085665 -375.51706685 205.01156172 -362.03523064 187.13142776 C-361.57777458 186.52234573 -361.12031853 185.9132637 -360.64900017 185.28572464 C-354.96854745 177.74518983 -349.07767213 170.38447627 -343.03523064 163.13142776 C-341.79180901 161.63047562 -341.79180901 161.63047562 -340.52326775 160.0992012 C-333.12529026 151.2644622 -325.23290569 143.01849912 -317.06233025 134.89778519 C-314.96433556 132.81057585 -312.87733948 130.71279187 -310.79109001 128.61384964 C-303.50761856 121.32322202 -296.14672099 114.49917114 -288.03523064 108.13142776 C-286.94464184 107.20894806 -285.86005463 106.27925979 -284.78523064 105.33845901 C-215.30856441 44.8424414 -124.04409371 10.04213619 -33.03523064 1.13142776 C-32.20234889 1.04834176 -31.36946715 0.96525575 -30.51134657 0.87965198 C-20.33674897 -0.02511391 -10.20468314 -0.01017397 0 0 Z " fill="#5291CE" transform="translate(451.0352306365967,-0.13142776489257813)"/>
<path d="M0 0 C505.29703653 0 505.29703653 0 582 16 C582.90169922 16.1861084 583.80339844 16.3722168 584.73242188 16.56396484 C631.69185124 26.51380338 680.71787832 46.57547065 718 77 C718.99515625 77.79148437 719.9903125 78.58296875 721.015625 79.3984375 C749.94153818 102.78563845 771.24863183 131.95946184 786 166 C786.44182617 167.01658691 786.44182617 167.01658691 786.89257812 168.05371094 C804.6541228 209.84683956 809.71139284 261.18707122 803 306 C802.83854492 307.18384277 802.83854492 307.18384277 802.67382812 308.39160156 C795.23030789 361.35834586 763.14024883 412.45903421 721 445 C720.07960938 445.72574219 719.15921875 446.45148438 718.2109375 447.19921875 C696.55439583 463.92320578 660.39741283 488.30249293 632 486 C632 487.32 632 488.64 632 490 C633.27875 490.0825 634.5575 490.165 635.875 490.25 C677.35507274 494.58287668 720.35537474 514.01774899 752 541 C753.14304591 541.9585519 754.28629046 542.91686696 755.4296875 543.875 C764.66011399 551.6539318 773.24016268 559.73005946 781 569 C781.63397705 569.74733398 781.63397705 569.74733398 782.28076172 570.50976562 C810.7968503 604.2963182 827.21082587 645.02804055 836 688 C836.20214111 688.98774414 836.40428223 689.97548828 836.61254883 690.99316406 C843.81288836 728.55519904 842.39349507 770.2518206 837 808 C836.8158252 809.30638428 836.8158252 809.30638428 836.62792969 810.63916016 C835.91863937 815.46448367 834.9944025 820.22566055 834 825 C833.86485992 825.6642247 833.72971985 826.3284494 833.59048462 827.01280212 C831.22811549 838.55627117 828.10921868 849.66302224 824.3125 860.8125 C824.04921906 861.59270508 823.78593811 862.37291016 823.51467896 863.17675781 C811.58210273 898.46561641 794.46655491 931.18187942 769.0703125 958.74609375 C767.22684843 960.75303483 765.45220907 962.79912242 763.6875 964.875 C755.55374642 974.1734019 746.68231865 982.34660223 737 990 C735.89119706 990.91942984 734.78452842 991.84143793 733.6796875 992.765625 C674.47592762 1041.89440195 596.69823631 1063.96250693 522.125 1075.6875 C521.17131531 1075.83824982 520.21763062 1075.98899963 519.23504639 1076.14431763 C516.43101642 1076.58519582 513.62591479 1077.01846977 510.8203125 1077.44921875 C509.60997345 1077.63957199 509.60997345 1077.63957199 508.37518311 1077.83377075 C340.81244155 1103.19318269 169.47085924 1084 0 1084 C0 726.28 0 368.56 0 0 Z " fill="#FEFEFE" transform="translate(604,481)"/>
<path d="M0 0 C26.379375 -0.020625 52.75875 -0.04125 79.9375 -0.0625 C88.240271 -0.071604 96.54304199 -0.08070801 105.09741211 -0.09008789 C115.30383301 -0.09460449 115.30383301 -0.09460449 120.09498596 -0.09544373 C123.41257915 -0.09636837 126.73015603 -0.10008766 130.04774475 -0.10557556 C134.30018553 -0.11251498 138.55260314 -0.11447652 142.80504906 -0.11307228 C144.35278711 -0.11336523 145.90052611 -0.11530002 147.44825923 -0.11921513 C161.32834385 -0.15264998 175.17221149 0.36445495 188.9609375 2.05078125 C189.80185944 2.15085983 190.64278137 2.25093842 191.50918579 2.35404968 C193.25839829 2.56402132 195.00729543 2.77663755 196.75585938 2.99194336 C199.36479717 3.31125128 201.97516986 3.61598542 204.5859375 3.91992188 C251.14164216 9.49144939 300.69400466 23.74758635 331 62 C342.83958471 79.24886287 349.83244741 97.43231058 353 118 C353.185625 119.15371094 353.37125 120.30742188 353.5625 121.49609375 C354.35952874 128.16677258 354.24274889 134.91574721 354.25 141.625 C354.25133942 142.3558783 354.25267883 143.08675659 354.25405884 143.83978271 C354.24906959 156.43368522 353.29301325 168.59868611 351 181 C350.87189941 181.7233252 350.74379883 182.44665039 350.61181641 183.19189453 C349.8453542 187.48708865 348.96976436 191.74637747 348 196 C347.78730469 196.93457031 347.57460937 197.86914062 347.35546875 198.83203125 C339.6630109 229.55687751 320.96706782 256.06180197 294.04394531 272.78173828 C272.26101115 285.76511638 248.82281999 292.67106637 224 297 C223.03078613 297.17563477 222.06157227 297.35126953 221.06298828 297.53222656 C208.28398928 299.8269075 195.54996085 301.362037 182.58642578 302.10498047 C181.86414866 302.14731237 181.14187153 302.18964427 180.39770722 302.23325896 C162.70997166 303.24600325 145.03510951 303.26207332 127.3240509 303.20256042 C123.26233687 303.19087533 119.20064702 303.19061866 115.13891602 303.18920898 C103.38426242 303.17885641 91.62962955 303.15093524 79.875 303.125 C40.336875 303.063125 40.336875 303.063125 0 303 C0 203.01 0 103.02 0 0 Z " fill="#5291CE" transform="translate(843,1083)"/>
<path d="M0 0 C37.2796875 -0.0309375 37.2796875 -0.0309375 75.3125 -0.0625 C87.03454956 -0.07615601 87.03454956 -0.07615601 98.9934082 -0.09008789 C108.61950684 -0.09460449 108.61950684 -0.09460449 113.14201355 -0.09544373 C116.26535265 -0.09636624 119.38867433 -0.10007672 122.51200867 -0.10557556 C143.78415858 -0.14135921 164.88280875 0.0598588 186.0625 2.3125 C187.28565918 2.44221191 188.50881836 2.57192383 189.76904297 2.70556641 C208.80952993 4.79337138 227.66046229 7.33141562 246 13 C246.80598633 13.24588867 247.61197266 13.49177734 248.44238281 13.74511719 C276.93054126 22.60390075 303.48952511 38.0610493 318 65 C323.51642952 75.55963592 326.86333175 86.30543244 329 98 C329.33837891 99.82144531 329.33837891 99.82144531 329.68359375 101.6796875 C333.84881177 128.85414439 331.62203964 156.95633688 320 182 C319.5153125 183.04542969 319.030625 184.09085938 318.53125 185.16796875 C314.95778476 192.20571002 310.22669905 198.11659006 305 204 C304.07767578 205.04800781 304.07767578 205.04800781 303.13671875 206.1171875 C286.40433881 223.96028217 261.80154827 233.7300029 238.4375 239.125 C236.84905273 239.50205078 236.84905273 239.50205078 235.22851562 239.88671875 C214.62877727 244.73520923 194.02933665 247.01075811 172.92163086 248.08154297 C172.07995735 248.12481146 171.23828384 248.16807994 170.37110507 248.2126596 C152.65878912 249.10542564 134.98042296 249.26772905 117.24929047 249.20256042 C113.50143719 249.19079027 109.75360919 249.19061439 106.0057373 249.18920898 C95.19130861 249.17889586 84.37690242 249.15097599 73.5625 249.125 C49.286875 249.08375 25.01125 249.0425 0 249 C0 166.83 0 84.66 0 0 Z " fill="#5291CE" transform="translate(843,662)"/>
</svg>
