<?xml version="1.0" encoding="UTF-8"?>
<!DOCTYPE svg PUBLIC "-//W3C//DTD SVG 1.1//EN" "http://www.w3.org/Graphics/SVG/1.1/DTD/svg11.dtd">
<svg xmlns="http://www.w3.org/2000/svg" version="1.1" width="2048px" height="2048px" style="shape-rendering:geometricPrecision; text-rendering:geometricPrecision; image-rendering:optimizeQuality; fill-rule:evenodd; clip-rule:evenodd" xmlns:xlink="http://www.w3.org/1999/xlink">
<g><path style="opacity:0.999" fill="#fecd00" d="M 978.5,-0.5 C 1008.5,-0.5 1038.5,-0.5 1068.5,-0.5C 1331.76,14.5073 1557.43,113.341 1745.5,296C 1931.34,484.929 2032.01,712.429 2047.5,978.5C 2047.5,1008.5 2047.5,1038.5 2047.5,1068.5C 2032.49,1331.76 1933.66,1557.43 1751,1745.5C 1562.07,1931.34 1334.57,2032.01 1068.5,2047.5C 1038.5,2047.5 1008.5,2047.5 978.5,2047.5C 715.238,2032.49 489.572,1933.66 301.5,1751C 115.927,1562.34 15.2605,1335.18 -0.5,1069.5C -0.5,1038.83 -0.5,1008.17 -0.5,977.5C 15.2605,711.823 115.927,484.657 301.5,296C 489.57,113.341 715.237,14.5076 978.5,-0.5 Z"/></g>
<g><path style="opacity:1" fill="#25303a" d="M 1181.5,1564.5 C 1104.83,1564.5 1028.17,1564.5 951.5,1564.5C 951.833,1280.5 951.5,996.499 950.5,712.5C 949.893,712.624 949.56,712.957 949.5,713.5C 923.39,733.065 896.057,750.898 867.5,767C 815.372,795.398 762.372,822.231 708.5,847.5C 683.967,792.268 659.3,737.101 634.5,682C 736.621,638.616 833.954,586.949 926.5,527C 948.444,512.055 970.111,496.722 991.5,481C 1054.83,480.5 1118.17,480.333 1181.5,480.5C 1181.5,841.833 1181.5,1203.17 1181.5,1564.5 Z"/></g>
<g><path style="opacity:1" fill="#726826" d="M 949.5,713.5 C 949.56,712.957 949.893,712.624 950.5,712.5C 951.5,996.499 951.833,1280.5 951.5,1564.5C 1028.17,1564.5 1104.83,1564.5 1181.5,1564.5C 1104.67,1565.5 1027.67,1565.83 950.5,1565.5C 950.833,1281.33 950.5,997.333 949.5,713.5 Z"/></g>
</svg>
