<?xml version="1.0" encoding="UTF-8"?>
<svg version="1.1" xmlns="http://www.w3.org/2000/svg" width="2048" height="2048">
<path d="M0 0 C1.86296614 -0.0070215 3.72593204 -0.01410832 5.58889771 -0.02125549 C11.51239364 -0.04066359 17.43585048 -0.04568967 23.359375 -0.046875 C24.36816963 -0.04731686 25.37696426 -0.04775871 26.41632843 -0.04821396 C56.74547781 -0.05518299 86.90361524 0.18549341 117.109375 3.203125 C118.00553528 3.29033813 118.90169556 3.37755127 119.82501221 3.46740723 C159.23752608 7.30937472 198.35183658 13.07659996 237.109375 21.203125 C238.39473145 21.47205566 239.68008789 21.74098633 241.00439453 22.01806641 C275.43270999 29.31806586 309.47492637 38.41490108 342.88598633 49.46807861 C345.17230278 50.22392876 347.46011145 50.97514036 349.74804688 51.72607422 C372.90155974 59.34596822 395.61706099 67.81206395 418.109375 77.203125 C418.74796448 77.46891357 419.38655396 77.73470215 420.04449463 78.00854492 C491.25180271 107.67307615 558.21539269 145.59986769 621.109375 190.203125 C621.88313477 190.7511377 622.65689453 191.29915039 623.45410156 191.86376953 C639.91720002 203.55235864 655.75741578 215.98226691 671.36962891 228.77929688 C672.92885827 230.05538804 674.493386 231.32499881 676.05859375 232.59375 C686.52971322 241.09293602 696.74212934 249.87165181 706.6796875 258.98828125 C708.71452915 260.84319317 710.77258747 262.65741298 712.859375 264.453125 C722.49087027 272.84375278 731.70254006 281.69926236 740.6730957 290.78833008 C744.05454069 294.19931194 747.55453083 297.38288846 751.22241211 300.48608398 C753.09691145 302.1917838 754.70065861 303.96810852 756.3359375 305.90234375 C760.06296815 310.21465552 764.04212749 314.21379411 768.109375 318.203125 C772.7543063 322.75907294 777.21922704 327.37895779 781.46582031 332.31005859 C783.89976824 335.1135096 786.44468283 337.80835846 788.984375 340.515625 C793.52286024 345.38898049 797.80286297 350.40616477 801.97265625 355.6015625 C804.06819994 358.15299229 806.24900655 360.58639273 808.484375 363.015625 C812.46199185 367.38549819 816.11814094 371.93922036 819.73730469 376.60424805 C823.33403439 381.23705993 827.01834988 385.79064 830.734375 390.328125 C836.03635739 396.82683174 841.17007025 403.42303711 846.109375 410.203125 C846.58842285 410.86006348 847.0674707 411.51700195 847.56103516 412.19384766 C859.05564431 427.98416873 870.40568791 443.86372123 881.109375 460.203125 C881.53541016 460.8518457 881.96144531 461.50056641 882.40039062 462.16894531 C900.68270617 490.05286214 917.46474747 518.76033885 933.109375 548.203125 C933.64272461 549.20134277 934.17607422 550.19956055 934.72558594 551.22802734 C943.46340269 567.61471371 951.46525219 584.28050123 959.109375 601.203125 C959.58616699 602.25467773 960.06295898 603.30623047 960.55419922 604.38964844 C985.11332735 658.73434849 1004.62236309 715.37039083 1019.109375 773.203125 C1019.2952417 773.94119385 1019.4811084 774.6792627 1019.67260742 775.43969727 C1033.38167229 829.95231291 1042.22237994 885.56913768 1046.796875 941.578125 C1046.88828262 942.69252457 1046.88828262 942.69252457 1046.98153687 943.82943726 C1048.47605402 962.28632558 1049.26918423 980.70968686 1049.3125 999.2265625 C1049.31948023 1001.09113588 1049.32652118 1002.95570904 1049.33361816 1004.82028198 C1049.35287623 1010.73956604 1049.35779318 1016.65881301 1049.359375 1022.578125 C1049.35996414 1023.58550217 1049.36055328 1024.59287933 1049.36116028 1025.63078308 C1049.37320253 1054.79175109 1049.19301366 1083.80771968 1046.33721924 1112.85516357 C1046.10441009 1115.25428899 1045.88604669 1117.65436234 1045.67138672 1120.05517578 C1041.08410278 1171.04493268 1032.34597658 1221.50822984 1020.109375 1271.203125 C1019.91408203 1271.99632141 1019.71878906 1272.78951782 1019.51757812 1273.60675049 C1013.55944643 1297.70658205 1006.60579727 1321.42389763 998.83532715 1344.99987793 C998.13660489 1347.12048294 997.4416031 1349.2422777 996.74707031 1351.36425781 C982.67406805 1394.22484942 965.06842394 1435.77207627 945.109375 1476.203125 C944.38664457 1477.67704696 943.66397627 1479.15099939 942.94140625 1480.625 C941.40752435 1483.737537 939.84745055 1486.83582721 938.27050781 1489.92675781 C937.39217662 1491.64870063 936.51709277 1493.37230038 935.64355469 1495.09667969 C927.79854293 1510.55720733 919.54538936 1525.68166071 910.66992188 1540.57421875 C909.26440783 1542.94195579 907.87695125 1545.31870083 906.5 1547.703125 C881.52718493 1590.87877318 852.19371985 1631.9271151 820.54931641 1670.44726562 C819.26571799 1672.01248092 817.98974428 1673.583942 816.71484375 1675.15625 C808.2186202 1685.62727146 799.43950678 1695.83734154 790.32421875 1705.7734375 C788.46930683 1707.80827915 786.65508702 1709.86633747 784.859375 1711.953125 C776.46874722 1721.58462027 767.61323764 1730.79629006 758.52416992 1739.7668457 C755.11318806 1743.14829069 751.92961154 1746.64828083 748.82641602 1750.31616211 C747.1207162 1752.19066145 745.34439148 1753.79440861 743.41015625 1755.4296875 C739.09784448 1759.15671815 735.09870589 1763.13587749 731.109375 1767.203125 C726.55342706 1771.8480563 721.93354221 1776.31297704 717.00244141 1780.55957031 C714.1989904 1782.99351824 711.50414154 1785.53843283 708.796875 1788.078125 C703.92351951 1792.61661024 698.90633523 1796.89661297 693.7109375 1801.06640625 C691.15950771 1803.16194994 688.72610727 1805.34275655 686.296875 1807.578125 C681.92236674 1811.55996087 677.36408425 1815.22054583 672.69287109 1818.84204102 C668.87622932 1821.80357984 665.11725783 1824.82272329 661.38964844 1827.89550781 C652.65004165 1835.09104511 643.63166013 1841.84906829 634.46777344 1848.49316406 C632.21199471 1850.1287204 629.96104915 1851.77072253 627.7109375 1853.4140625 C611.19157234 1865.44721355 594.5575427 1877.32693761 577.10351562 1887.97265625 C574.97132245 1889.28830924 572.85937183 1890.632451 570.75 1891.984375 C553.11415021 1903.28078576 535.00100583 1913.7974084 516.61962891 1923.83251953 C514.80538981 1924.82309902 512.99276489 1925.81663681 511.18115234 1926.81201172 C497.04318706 1934.57158548 482.80536522 1941.95532224 468.18408203 1948.76074219 C464.93803795 1950.28350131 461.70898322 1951.83888113 458.48046875 1953.3984375 C400.32249029 1981.29028283 338.62682139 2002.54259981 276.109375 2018.203125 C275.37130615 2018.3889917 274.6332373 2018.5748584 273.87280273 2018.76635742 C222.89096663 2031.58748681 170.85022877 2040.39918551 118.480896 2044.99023438 C116.13656116 2045.20068451 113.794168 2045.42642506 111.45166016 2045.65625 C54.18169321 2051.19090931 -6.08729434 2051.22115165 -63.33905029 2045.45959473 C-66.04062359 2045.188048 -68.74311052 2044.92717293 -71.44580078 2044.66699219 C-160.30628974 2036.01099102 -247.53699533 2016.49949328 -416.890625 1949.203125 C-418.75641336 1948.33182339 -420.62229643 1947.46072454 -422.48828125 1946.58984375 C-448.52947338 1934.37994181 -474.25601711 1920.68886129 -498.72021484 1905.54248047 C-501.48514319 1903.8362491 -504.26054295 1902.14746617 -507.03515625 1900.45703125 C-518.11237435 1893.69405605 -529.16264629 1886.91307198 -539.87451172 1879.58007812 C-542.26049212 1877.95051534 -544.65567639 1876.33487076 -547.05078125 1874.71875 C-566.13494295 1861.81353826 -584.65125078 1848.27522498 -602.890625 1834.203125 C-603.55578125 1833.69007812 -604.2209375 1833.17703125 -604.90625 1832.6484375 C-622.64219981 1818.92960453 -639.93678517 1804.57708241 -656.4609375 1789.41796875 C-658.49577915 1787.56305683 -660.55383747 1785.74883702 -662.640625 1783.953125 C-672.27212027 1775.56249722 -681.48379006 1766.70698764 -690.4543457 1757.61791992 C-693.83579069 1754.20693806 -697.33578083 1751.02336154 -701.00366211 1747.92016602 C-702.87816145 1746.2144662 -704.48190861 1744.43814148 -706.1171875 1742.50390625 C-709.84421815 1738.19159448 -713.82337749 1734.19245589 -717.890625 1730.203125 C-722.5355563 1725.64717706 -727.00047704 1721.02729221 -731.24707031 1716.09619141 C-733.68101824 1713.2927404 -736.22593283 1710.59789154 -738.765625 1707.890625 C-743.30411024 1703.01726951 -747.58411297 1698.00008523 -751.75390625 1692.8046875 C-753.84944994 1690.25325771 -756.03025655 1687.81985727 -758.265625 1685.390625 C-762.24324185 1681.02075181 -765.89939094 1676.46702964 -769.51855469 1671.80200195 C-773.11528439 1667.16919007 -776.79959988 1662.61561 -780.515625 1658.078125 C-785.81760739 1651.57941826 -790.95132025 1644.98321289 -795.890625 1638.203125 C-796.36967285 1637.54618652 -796.8487207 1636.88924805 -797.34228516 1636.21240234 C-808.83689431 1620.42208127 -820.18693791 1604.54252877 -830.890625 1588.203125 C-831.52967773 1587.23004395 -831.52967773 1587.23004395 -832.18164062 1586.23730469 C-850.2324661 1558.70645309 -866.83302715 1530.39147182 -882.24707031 1501.30224609 C-883.81572024 1498.34436698 -885.3955671 1495.3926992 -886.9765625 1492.44140625 C-894.86253009 1477.62725488 -901.9773884 1462.49234851 -908.890625 1447.203125 C-909.60798828 1445.62144531 -909.60798828 1445.62144531 -910.33984375 1444.0078125 C-934.89690076 1389.66586561 -954.40443765 1333.0325675 -968.890625 1275.203125 C-969.0764917 1274.46505615 -969.2623584 1273.7269873 -969.45385742 1272.96655273 C-980.5709885 1228.76048186 -988.50565375 1183.86843324 -993.578125 1138.578125 C-993.72343155 1137.31411362 -993.72343155 1137.31411362 -993.87167358 1136.02456665 C-997.87569006 1100.78189064 -999.40859782 1065.42413928 -999.28173828 1029.97363281 C-999.26464819 1025.16500959 -999.27485164 1020.35688516 -999.29206085 1015.54827881 C-999.39852722 980.33520233 -997.6410977 945.2003769 -993.640625 910.203125 C-993.53835602 909.28561462 -993.43608704 908.36810425 -993.33071899 907.42279053 C-985.93345701 841.41033602 -972.42373539 775.57240609 -951.62963867 712.44696045 C-950.848982 710.07668615 -950.07392909 707.70461592 -949.29882812 705.33251953 C-941.07725668 680.2552961 -931.96113245 655.59600697 -921.890625 631.203125 C-921.61881409 630.54411194 -921.34700317 629.88509888 -921.06695557 629.20611572 C-892.0151779 558.95322965 -854.66833149 492.09691279 -810.39697266 430.30664062 C-808.8418046 428.13495052 -807.29399683 425.95812262 -805.74609375 423.78125 C-794.51265771 408.04283582 -782.56990765 392.8943691 -770.31445312 377.94287109 C-769.03836196 376.38364173 -767.76875119 374.819114 -766.5 373.25390625 C-758.00081398 362.78278678 -749.22209819 352.57037066 -740.10546875 342.6328125 C-738.25055683 340.59797085 -736.43633702 338.53991253 -734.640625 336.453125 C-726.24999722 326.82162973 -717.39448764 317.60995994 -708.30541992 308.6394043 C-704.89443806 305.25795931 -701.71086154 301.75796917 -698.60766602 298.09008789 C-696.9019662 296.21558855 -695.12564148 294.61184139 -693.19140625 292.9765625 C-688.87909448 289.24953185 -684.87995589 285.27037251 -680.890625 281.203125 C-676.33467706 276.5581937 -671.71479221 272.09327296 -666.78369141 267.84667969 C-663.9802404 265.41273176 -661.28539154 262.86781717 -658.578125 260.328125 C-653.70476951 255.78963976 -648.68758523 251.50963703 -643.4921875 247.33984375 C-640.94075771 245.24430006 -638.50735727 243.06349345 -636.078125 240.828125 C-631.70825181 236.85050815 -627.15452964 233.19435906 -622.48950195 229.57519531 C-617.85669007 225.97846561 -613.30311 222.29415012 -608.765625 218.578125 C-602.26691826 213.27614261 -595.67071289 208.14242975 -588.890625 203.203125 C-587.90521729 202.48455322 -587.90521729 202.48455322 -586.89990234 201.75146484 C-571.10958127 190.25685569 -555.23002877 178.90681209 -538.890625 168.203125 C-538.2419043 167.77708984 -537.59318359 167.35105469 -536.92480469 166.91210938 C-509.04088786 148.62979383 -480.33341115 131.84775253 -450.890625 116.203125 C-449.89240723 115.66977539 -448.89418945 115.13642578 -447.86572266 114.58691406 C-431.48183795 105.85059123 -414.8366818 97.78791668 -397.890625 90.203125 C-396.85424896 89.73876038 -396.85424896 89.73876038 -395.79693604 89.26501465 C-317.77646074 54.36512507 -235.85698962 29.01262032 0 0 Z " fill="#E2B22A" transform="translate(998.890625,-0.203125)"/>
<path d="M0 0 C1.36551159 0.31024373 2.73136995 0.61896727 4.09765625 0.92578125 C45.9438527 10.74903523 86.66029486 27.9054751 121 54 C121.56879883 54.43135254 122.13759766 54.86270508 122.72363281 55.30712891 C126.87068714 58.47113498 130.94999086 61.71295292 135 65 C135.5455957 65.43973145 136.09119141 65.87946289 136.65332031 66.33251953 C151.8118052 78.63577936 166.04264487 92.56015651 178 108 C179.60078117 109.87789119 181.20516285 111.75271717 182.8125 113.625 C230.17737788 170.44818941 257.65270637 243.80498309 274.29296875 315.00439453 C274.94977698 317.78721118 275.62600586 320.56422311 276.3125 323.33984375 C285.73158373 361.55972767 291.00089533 400.67779973 294.78643799 439.81793213 C294.99333079 441.93185739 295.2078832 444.04484782 295.42529297 446.15771484 C302.93271341 519.48918404 305.62334424 599.91045475 295.83520508 673.16894531 C295.25312136 677.55842908 294.81822461 681.94681453 294.44921875 686.359375 C292.49031113 709.44021187 288.91114461 732.17747756 285 755 C284.77703247 756.30366516 284.77703247 756.30366516 284.54956055 757.63366699 C279.77250655 785.46904099 274.16155593 812.97503118 265.64794922 839.94580078 C264.70439828 842.9371488 263.7916671 845.93782282 262.875 848.9375 C262.58133545 849.88351074 262.2876709 850.82952148 261.98510742 851.80419922 C261.36017103 853.83156411 260.74395254 855.86165347 260.13964844 857.89526367 C257.55615419 866.52154262 254.55161113 874.95470005 251.375 883.375 C250.98249557 884.41864212 250.98249557 884.41864212 250.58206177 885.48336792 C245.79771974 898.17613226 240.65553211 910.66767549 235 923 C234.57396484 923.93569824 234.14792969 924.87139648 233.70898438 925.83544922 C224.10248713 946.8167508 212.97294667 966.90972888 200 986 C199.52739746 986.69786621 199.05479492 987.39573242 198.56787109 988.11474609 C189.26845097 1001.76735053 179.13460018 1014.6963883 167.953125 1026.86328125 C166.21103887 1028.76912347 164.54045187 1030.71503302 162.875 1032.6875 C154.59316128 1042.16346431 145.5320789 1051.13394233 135.640625 1058.9140625 C132.87709213 1061.09708995 130.22834902 1063.38652976 127.5625 1065.6875 C99.18665186 1089.27309543 65.60765044 1106.33712196 30.76171875 1118.04956055 C28.03698739 1118.98727087 25.34987781 1120.00030132 22.65625 1121.0234375 C16.22610842 1123.37286824 9.65506754 1124.98459429 3 1126.5625 C1.72777588 1126.86696045 0.45555176 1127.1714209 -0.85522461 1127.48510742 C-10.10935851 1129.65624934 -19.3421147 1131.40525361 -28.7590332 1132.67285156 C-31.35529515 1133.05186791 -33.93209234 1133.5149309 -36.515625 1133.97265625 C-80.61718577 1141.36040299 -126.67783092 1139.51691232 -170.6875 1132.5625 C-171.90969238 1132.36954346 -173.13188477 1132.17658691 -174.39111328 1131.9777832 C-181.86278872 1130.72019985 -189.11404211 1129.00379394 -196.41552734 1126.984375 C-199.65024454 1126.09605054 -202.89157797 1125.28205203 -206.15234375 1124.49609375 C-269.17124957 1108.83340793 -330.29541197 1069.63891507 -370 1018 C-371.26650391 1016.49373047 -371.26650391 1016.49373047 -372.55859375 1014.95703125 C-387.90932641 996.65484878 -400.61785351 975.94416542 -412 955 C-412.64026123 953.84274414 -412.64026123 953.84274414 -413.29345703 952.66210938 C-433.87600698 915.4287739 -449.35857395 873.64974768 -459.42089844 832.30810547 C-460.21150966 829.15699311 -461.1314236 826.0496412 -462.0625 822.9375 C-467.40200645 804.37008047 -470.66040245 785.36294727 -473.9044342 766.34388733 C-474.67326071 761.84990473 -475.47976152 757.36479253 -476.31640625 752.8828125 C-480.86576774 728.22132031 -483.64926042 703.28717743 -485.91015625 678.3203125 C-486.00072548 677.32510086 -486.00072548 677.32510086 -486.09312439 676.30978394 C-489.0076435 643.06904447 -490.36386351 609.8560431 -490.25774765 576.49303055 C-490.2498487 573.82387456 -490.24536779 571.15473 -490.24160767 568.48556519 C-490.17466001 527.55699719 -489.21672982 486.73559273 -485 446 C-484.92245483 445.24054077 -484.84490967 444.48108154 -484.76501465 443.6986084 C-481.43355987 411.07315369 -481.43355987 411.07315369 -478.703125 396.0859375 C-478.01025711 392.22973014 -477.51645901 388.35998771 -477.03125 384.47290039 C-474.22987946 362.28278272 -469.24585937 340.52997604 -464 318.8125 C-463.79680145 317.96416595 -463.59360291 317.11583191 -463.38424683 316.24179077 C-460.78337744 305.42715264 -457.80412757 294.8107688 -454.35644531 284.23486328 C-453.0464879 280.20436696 -451.88635687 276.14526788 -450.75 272.0625 C-442.70658436 244.23630952 -431.5739207 216.71682921 -418.078125 191.07080078 C-416.81875808 188.6518809 -415.59757092 186.21506285 -414.375 183.77734375 C-401.59114782 158.50028008 -386.3327994 134.62495704 -368 113 C-367.1853125 112.01257813 -366.370625 111.02515625 -365.53125 110.0078125 C-354.59169103 96.79743225 -342.92213527 84.28968467 -330 73 C-329.50886719 72.56413574 -329.01773437 72.12827148 -328.51171875 71.67919922 C-289.79142114 37.3737159 -241.82234259 13.6738882 -191.67797852 1.65478516 C-189.8659586 1.21173315 -188.05907862 0.74720015 -186.25756836 0.26318359 C-177.65790968 -2.01983407 -168.97807266 -3.35256436 -160.1875 -4.625 C-158.71150837 -4.84320842 -157.23559632 -5.06195575 -155.75976562 -5.28125 C-151.84093804 -5.86180687 -147.92090037 -6.43358625 -144 -7 C-142.32321167 -7.2642981 -142.32321167 -7.2642981 -140.61254883 -7.53393555 C-136.31358568 -8.08855612 -132.04695683 -8.34740756 -127.71875 -8.54296875 C-126.81161255 -8.58439499 -125.9044751 -8.62582123 -124.96984863 -8.66850281 C-82.88438873 -10.44441897 -41.10701447 -9.93217643 0 0 Z " fill="#25303A" transform="translate(1466,459)"/>
<path d="M0 0 C0 358.05 0 716.1 0 1085 C-75.9 1085 -151.8 1085 -230 1085 C-230.495 663.26 -230.495 663.26 -231 233 C-237.93 238.445 -237.93 238.445 -245 244 C-247.55697858 245.83526387 -250.08689346 247.62775679 -252.70703125 249.359375 C-253.35178909 249.7915181 -253.99654694 250.22366119 -254.6608429 250.66889954 C-256.70683835 252.03626977 -258.75893661 253.3940271 -260.8125 254.75 C-261.52621765 255.22355927 -262.2399353 255.69711853 -262.97528076 256.18502808 C-276.07735055 264.87165705 -289.38224963 273.14104546 -303 281 C-303.94955566 281.54914063 -304.89911133 282.09828125 -305.87744141 282.6640625 C-344.461143 304.89628243 -384.26207519 325.39417631 -424.50146484 344.46166992 C-430.8782967 347.48817624 -437.22383633 350.57420533 -443.55859375 353.6875 C-445.25475922 354.51937318 -446.95096712 355.35115986 -448.6472168 356.18286133 C-451.19202564 357.4307097 -453.73579215 358.68047562 -456.27651978 359.93661499 C-458.65577124 361.11271874 -461.03844714 362.2816074 -463.421875 363.44921875 C-464.1426976 363.80802124 -464.8635202 364.16682373 -465.60618591 364.53649902 C-470.65891794 367 -470.65891794 367 -474 367 C-481.32400613 350.77017576 -488.54914178 334.49981356 -495.6875 318.1875 C-502.07293659 303.59743492 -508.55270834 289.05334607 -515.11154175 274.54046631 C-521.84506233 259.635747 -528.44569199 244.67499828 -534.98828125 229.68554688 C-535.6951712 228.06764659 -536.40219834 226.44980624 -537.109375 224.83203125 C-537.44376587 224.06617706 -537.77815674 223.30032288 -538.12268066 222.51126099 C-540.64583369 216.75362721 -543.27583834 211.05405442 -545.97753906 205.37768555 C-547 203 -547 203 -547 201 C-545.89414551 200.51756836 -544.78829102 200.03513672 -543.64892578 199.53808594 C-515.36595903 187.19246596 -487.26393093 174.58996053 -459.48828125 161.1328125 C-455.47463569 159.18941275 -451.45385262 157.26395888 -447.41796875 155.3671875 C-412.85895365 139.10045542 -379.1408383 120.96876929 -346 102 C-344.9584375 101.40574219 -343.916875 100.81148437 -342.84375 100.19921875 C-321.79000769 88.17935385 -301.04969334 75.69486168 -280.60791016 62.66162109 C-277.6825536 60.7977401 -274.7532388 58.94014942 -271.82421875 57.08203125 C-260.76168013 50.04988779 -249.7649887 42.95999239 -239.03564453 35.42773438 C-236.76638859 33.83615261 -234.49082048 32.2538299 -232.21484375 30.671875 C-223.87037155 24.86299363 -215.56267746 19.00464383 -207.3125 13.0625 C-206.60689941 12.55541504 -205.90129883 12.04833008 -205.17431641 11.52587891 C-149.67148269 -28.61867246 -68.49926682 0 0 0 Z " fill="#25303A" transform="translate(821,482)"/>
<path d="M0 0 C13.48669629 12.03101689 23.04109642 26.48670337 32 42 C32.59361328 43.0202124 32.59361328 43.0202124 33.19921875 44.06103516 C59.22632685 89.30867403 69.63655046 144.2566047 75.59130859 195.60351562 C75.95590714 198.6335604 76.36246533 201.6517648 76.80078125 204.671875 C83.98867872 254.41885418 84.39974035 305.30975969 84.31805801 355.46723557 C84.3124015 358.99900101 84.30959159 362.53076163 84.30697632 366.06253052 C84.27067346 399.7951631 83.96441503 433.37665649 81 467 C80.9033606 468.11280334 80.80672119 469.22560669 80.70715332 470.37213135 C79.36946146 485.71101566 77.9057742 501.03545404 76.27947998 516.34643555 C76.01517376 518.85593051 75.76064589 521.3662318 75.50830078 523.87695312 C74.54148234 533.29374235 73.16049804 542.56636928 71.40289307 551.86755371 C70.99568197 554.02285463 70.59736103 556.17965165 70.20068359 558.33691406 C61.17953519 607.15548675 48.84279394 660.21484828 19 701 C18.40348633 701.81645996 18.40348633 701.81645996 17.79492188 702.64941406 C-0.95076103 728.04909891 -25.56477754 746.57440649 -57.07714844 752.60742188 C-62.42726732 753.32601452 -67.78348991 753.33336396 -73.17504883 753.31567383 C-75.16688509 753.31253251 -77.15870307 753.33678786 -79.15039062 753.36132812 C-109.75295849 753.3764405 -135.0155762 739.86827458 -156.5 718.875 C-184.23046259 691.02964661 -200.34320101 651.33071412 -210.45556641 613.98486328 C-211.02502865 611.90875206 -211.62481349 609.84317021 -212.23046875 607.77734375 C-215.75452423 595.64481517 -218.48407702 583.37716174 -221 571 C-221.20625 569.99952637 -221.4125 568.99905273 -221.625 567.96826172 C-227.34227302 539.9223576 -230.52318813 511.476544 -233.1875 483 C-233.26622345 482.18081085 -233.3449469 481.3616217 -233.42605591 480.51760864 C-234.04355359 474.01789555 -234.54443054 467.51296037 -235 461 C-235.08860291 459.75659851 -235.17720581 458.51319702 -235.26849365 457.2321167 C-237.38002756 426.79459194 -237.3102802 396.33112565 -237.25713855 365.83639026 C-237.24960071 361.00971354 -237.25231629 356.18311901 -237.26074219 351.35644531 C-237.32706204 312.31145449 -237.09247072 273.3252269 -233.1875 234.4375 C-233.10351959 233.57430145 -233.01953918 232.71110291 -232.93301392 231.82174683 C-232.32202784 225.5441741 -231.67310573 219.27119847 -231 213 C-230.90783203 212.138302 -230.81566406 211.276604 -230.72070312 210.38879395 C-225.15580085 158.76508296 -216.00224562 105.01515179 -193 58 C-192.56316895 57.1018457 -192.12633789 56.20369141 -191.67626953 55.27832031 C-182.63532092 36.87364291 -172.3325262 20.69456624 -158 6 C-157.22527344 5.15179687 -156.45054688 4.30359375 -155.65234375 3.4296875 C-114.13867519 -40.78687433 -43.95230536 -38.24867186 0 0 Z " fill="#E2B22A" transform="translate(1447,662)"/>
</svg>
