<?xml version="1.0" encoding="UTF-8"?>
<svg version="1.1" xmlns="http://www.w3.org/2000/svg" width="2048" height="2048">
<path d="M0 0 C1.86296614 -0.0070215 3.72593204 -0.01410832 5.58889771 -0.02125549 C11.51239364 -0.04066359 17.43585048 -0.04568967 23.359375 -0.046875 C24.36816963 -0.04731686 25.37696426 -0.04775871 26.41632843 -0.04821396 C56.74547781 -0.05518299 86.90361524 0.18549341 117.109375 3.203125 C118.00553528 3.29033813 118.90169556 3.37755127 119.82501221 3.46740723 C159.23752608 7.30937472 198.35183658 13.07659996 237.109375 21.203125 C238.39473145 21.47205566 239.68008789 21.74098633 241.00439453 22.01806641 C275.43270999 29.31806586 309.47492637 38.41490108 342.88598633 49.46807861 C345.17230278 50.22392876 347.46011145 50.97514036 349.74804688 51.72607422 C372.90155974 59.34596822 395.61706099 67.81206395 418.109375 77.203125 C418.74796448 77.46891357 419.38655396 77.73470215 420.04449463 78.00854492 C491.25180271 107.67307615 558.21539269 145.59986769 621.109375 190.203125 C621.88313477 190.7511377 622.65689453 191.29915039 623.45410156 191.86376953 C639.91720002 203.55235864 655.75741578 215.98226691 671.36962891 228.77929688 C672.92885827 230.05538804 674.493386 231.32499881 676.05859375 232.59375 C686.52971322 241.09293602 696.74212934 249.87165181 706.6796875 258.98828125 C708.71452915 260.84319317 710.77258747 262.65741298 712.859375 264.453125 C722.49087027 272.84375278 731.70254006 281.69926236 740.6730957 290.78833008 C744.05454069 294.19931194 747.55453083 297.38288846 751.22241211 300.48608398 C753.09691145 302.1917838 754.70065861 303.96810852 756.3359375 305.90234375 C760.06296815 310.21465552 764.04212749 314.21379411 768.109375 318.203125 C772.7543063 322.75907294 777.21922704 327.37895779 781.46582031 332.31005859 C783.89976824 335.1135096 786.44468283 337.80835846 788.984375 340.515625 C793.52286024 345.38898049 797.80286297 350.40616477 801.97265625 355.6015625 C804.06819994 358.15299229 806.24900655 360.58639273 808.484375 363.015625 C812.46199185 367.38549819 816.11814094 371.93922036 819.73730469 376.60424805 C823.33403439 381.23705993 827.01834988 385.79064 830.734375 390.328125 C836.03635739 396.82683174 841.17007025 403.42303711 846.109375 410.203125 C846.58842285 410.86006348 847.0674707 411.51700195 847.56103516 412.19384766 C859.05564431 427.98416873 870.40568791 443.86372123 881.109375 460.203125 C881.53541016 460.8518457 881.96144531 461.50056641 882.40039062 462.16894531 C900.68270617 490.05286214 917.46474747 518.76033885 933.109375 548.203125 C933.64272461 549.20134277 934.17607422 550.19956055 934.72558594 551.22802734 C943.46340269 567.61471371 951.46525219 584.28050123 959.109375 601.203125 C959.58616699 602.25467773 960.06295898 603.30623047 960.55419922 604.38964844 C985.11332735 658.73434849 1004.62236309 715.37039083 1019.109375 773.203125 C1019.2952417 773.94119385 1019.4811084 774.6792627 1019.67260742 775.43969727 C1033.38167229 829.95231291 1042.22237994 885.56913768 1046.796875 941.578125 C1046.88828262 942.69252457 1046.88828262 942.69252457 1046.98153687 943.82943726 C1048.47605402 962.28632558 1049.26918423 980.70968686 1049.3125 999.2265625 C1049.31948023 1001.09113588 1049.32652118 1002.95570904 1049.33361816 1004.82028198 C1049.35287623 1010.73956604 1049.35779318 1016.65881301 1049.359375 1022.578125 C1049.35996414 1023.58550217 1049.36055328 1024.59287933 1049.36116028 1025.63078308 C1049.37320253 1054.79175109 1049.19301366 1083.80771968 1046.33721924 1112.85516357 C1046.10441009 1115.25428899 1045.88604669 1117.65436234 1045.67138672 1120.05517578 C1041.08410278 1171.04493268 1032.34597658 1221.50822984 1020.109375 1271.203125 C1019.91408203 1271.99632141 1019.71878906 1272.78951782 1019.51757812 1273.60675049 C1013.55944643 1297.70658205 1006.60579727 1321.42389763 998.83532715 1344.99987793 C998.13660489 1347.12048294 997.4416031 1349.2422777 996.74707031 1351.36425781 C982.67406805 1394.22484942 965.06842394 1435.77207627 945.109375 1476.203125 C944.38664457 1477.67704696 943.66397627 1479.15099939 942.94140625 1480.625 C941.40752435 1483.737537 939.84745055 1486.83582721 938.27050781 1489.92675781 C937.39217662 1491.64870063 936.51709277 1493.37230038 935.64355469 1495.09667969 C927.79854293 1510.55720733 919.54538936 1525.68166071 910.66992188 1540.57421875 C909.26440783 1542.94195579 907.87695125 1545.31870083 906.5 1547.703125 C881.52718493 1590.87877318 852.19371985 1631.9271151 820.54931641 1670.44726562 C819.26571799 1672.01248092 817.98974428 1673.583942 816.71484375 1675.15625 C808.2186202 1685.62727146 799.43950678 1695.83734154 790.32421875 1705.7734375 C788.46930683 1707.80827915 786.65508702 1709.86633747 784.859375 1711.953125 C776.46874722 1721.58462027 767.61323764 1730.79629006 758.52416992 1739.7668457 C755.11318806 1743.14829069 751.92961154 1746.64828083 748.82641602 1750.31616211 C747.1207162 1752.19066145 745.34439148 1753.79440861 743.41015625 1755.4296875 C739.09784448 1759.15671815 735.09870589 1763.13587749 731.109375 1767.203125 C726.55342706 1771.8480563 721.93354221 1776.31297704 717.00244141 1780.55957031 C714.1989904 1782.99351824 711.50414154 1785.53843283 708.796875 1788.078125 C703.92351951 1792.61661024 698.90633523 1796.89661297 693.7109375 1801.06640625 C691.15950771 1803.16194994 688.72610727 1805.34275655 686.296875 1807.578125 C681.92236674 1811.55996087 677.36408425 1815.22054583 672.69287109 1818.84204102 C668.87622932 1821.80357984 665.11725783 1824.82272329 661.38964844 1827.89550781 C652.65004165 1835.09104511 643.63166013 1841.84906829 634.46777344 1848.49316406 C632.21199471 1850.1287204 629.96104915 1851.77072253 627.7109375 1853.4140625 C611.19157234 1865.44721355 594.5575427 1877.32693761 577.10351562 1887.97265625 C574.97132245 1889.28830924 572.85937183 1890.632451 570.75 1891.984375 C553.11415021 1903.28078576 535.00100583 1913.7974084 516.61962891 1923.83251953 C514.80538981 1924.82309902 512.99276489 1925.81663681 511.18115234 1926.81201172 C497.04318706 1934.57158548 482.80536522 1941.95532224 468.18408203 1948.76074219 C464.93803795 1950.28350131 461.70898322 1951.83888113 458.48046875 1953.3984375 C400.32249029 1981.29028283 338.62682139 2002.54259981 276.109375 2018.203125 C275.37130615 2018.3889917 274.6332373 2018.5748584 273.87280273 2018.76635742 C222.89096663 2031.58748681 170.85022877 2040.39918551 118.480896 2044.99023438 C116.13656116 2045.20068451 113.794168 2045.42642506 111.45166016 2045.65625 C54.18169321 2051.19090931 -6.08729434 2051.22115165 -63.33905029 2045.45959473 C-66.04062359 2045.188048 -68.74311052 2044.92717293 -71.44580078 2044.66699219 C-160.30628974 2036.01099102 -247.53699533 2016.49949328 -416.890625 1949.203125 C-418.75641336 1948.33182339 -420.62229643 1947.46072454 -422.48828125 1946.58984375 C-448.52947338 1934.37994181 -474.25601711 1920.68886129 -498.72021484 1905.54248047 C-501.48514319 1903.8362491 -504.26054295 1902.14746617 -507.03515625 1900.45703125 C-518.11237435 1893.69405605 -529.16264629 1886.91307198 -539.87451172 1879.58007812 C-542.26049212 1877.95051534 -544.65567639 1876.33487076 -547.05078125 1874.71875 C-566.13494295 1861.81353826 -584.65125078 1848.27522498 -602.890625 1834.203125 C-603.55578125 1833.69007812 -604.2209375 1833.17703125 -604.90625 1832.6484375 C-622.64219981 1818.92960453 -639.93678517 1804.57708241 -656.4609375 1789.41796875 C-658.49577915 1787.56305683 -660.55383747 1785.74883702 -662.640625 1783.953125 C-672.27212027 1775.56249722 -681.48379006 1766.70698764 -690.4543457 1757.61791992 C-693.83579069 1754.20693806 -697.33578083 1751.02336154 -701.00366211 1747.92016602 C-702.87816145 1746.2144662 -704.48190861 1744.43814148 -706.1171875 1742.50390625 C-709.84421815 1738.19159448 -713.82337749 1734.19245589 -717.890625 1730.203125 C-722.5355563 1725.64717706 -727.00047704 1721.02729221 -731.24707031 1716.09619141 C-733.68101824 1713.2927404 -736.22593283 1710.59789154 -738.765625 1707.890625 C-743.30411024 1703.01726951 -747.58411297 1698.00008523 -751.75390625 1692.8046875 C-753.84944994 1690.25325771 -756.03025655 1687.81985727 -758.265625 1685.390625 C-762.24324185 1681.02075181 -765.89939094 1676.46702964 -769.51855469 1671.80200195 C-773.11528439 1667.16919007 -776.79959988 1662.61561 -780.515625 1658.078125 C-785.81760739 1651.57941826 -790.95132025 1644.98321289 -795.890625 1638.203125 C-796.36967285 1637.54618652 -796.8487207 1636.88924805 -797.34228516 1636.21240234 C-808.83689431 1620.42208127 -820.18693791 1604.54252877 -830.890625 1588.203125 C-831.52967773 1587.23004395 -831.52967773 1587.23004395 -832.18164062 1586.23730469 C-850.2324661 1558.70645309 -866.83302715 1530.39147182 -882.24707031 1501.30224609 C-883.81572024 1498.34436698 -885.3955671 1495.3926992 -886.9765625 1492.44140625 C-894.86253009 1477.62725488 -901.9773884 1462.49234851 -908.890625 1447.203125 C-909.60798828 1445.62144531 -909.60798828 1445.62144531 -910.33984375 1444.0078125 C-934.89690076 1389.66586561 -954.40443765 1333.0325675 -968.890625 1275.203125 C-969.0764917 1274.46505615 -969.2623584 1273.7269873 -969.45385742 1272.96655273 C-980.5709885 1228.76048186 -988.50565375 1183.86843324 -993.578125 1138.578125 C-993.72343155 1137.31411362 -993.72343155 1137.31411362 -993.87167358 1136.02456665 C-997.87569006 1100.78189064 -999.40859782 1065.42413928 -999.28173828 1029.97363281 C-999.26464819 1025.16500959 -999.27485164 1020.35688516 -999.29206085 1015.54827881 C-999.39852722 980.33520233 -997.6410977 945.2003769 -993.640625 910.203125 C-993.53835602 909.28561462 -993.43608704 908.36810425 -993.33071899 907.42279053 C-985.93345701 841.41033602 -972.42373539 775.57240609 -951.62963867 712.44696045 C-950.848982 710.07668615 -950.07392909 707.70461592 -949.29882812 705.33251953 C-941.07725668 680.2552961 -931.96113245 655.59600697 -921.890625 631.203125 C-921.61881409 630.54411194 -921.34700317 629.88509888 -921.06695557 629.20611572 C-892.0151779 558.95322965 -854.66833149 492.09691279 -810.39697266 430.30664062 C-808.8418046 428.13495052 -807.29399683 425.95812262 -805.74609375 423.78125 C-794.51265771 408.04283582 -782.56990765 392.8943691 -770.31445312 377.94287109 C-769.03836196 376.38364173 -767.76875119 374.819114 -766.5 373.25390625 C-758.00081398 362.78278678 -749.22209819 352.57037066 -740.10546875 342.6328125 C-738.25055683 340.59797085 -736.43633702 338.53991253 -734.640625 336.453125 C-726.24999722 326.82162973 -717.39448764 317.60995994 -708.30541992 308.6394043 C-704.89443806 305.25795931 -701.71086154 301.75796917 -698.60766602 298.09008789 C-696.9019662 296.21558855 -695.12564148 294.61184139 -693.19140625 292.9765625 C-688.87909448 289.24953185 -684.87995589 285.27037251 -680.890625 281.203125 C-676.33467706 276.5581937 -671.71479221 272.09327296 -666.78369141 267.84667969 C-663.9802404 265.41273176 -661.28539154 262.86781717 -658.578125 260.328125 C-653.70476951 255.78963976 -648.68758523 251.50963703 -643.4921875 247.33984375 C-640.94075771 245.24430006 -638.50735727 243.06349345 -636.078125 240.828125 C-631.70825181 236.85050815 -627.15452964 233.19435906 -622.48950195 229.57519531 C-617.85669007 225.97846561 -613.30311 222.29415012 -608.765625 218.578125 C-602.26691826 213.27614261 -595.67071289 208.14242975 -588.890625 203.203125 C-587.90521729 202.48455322 -587.90521729 202.48455322 -586.89990234 201.75146484 C-571.10958127 190.25685569 -555.23002877 178.90681209 -538.890625 168.203125 C-538.2419043 167.77708984 -537.59318359 167.35105469 -536.92480469 166.91210938 C-509.04088786 148.62979383 -480.33341115 131.84775253 -450.890625 116.203125 C-449.89240723 115.66977539 -448.89418945 115.13642578 -447.86572266 114.58691406 C-431.48183795 105.85059123 -414.8366818 97.78791668 -397.890625 90.203125 C-396.85424896 89.73876038 -396.85424896 89.73876038 -395.79693604 89.26501465 C-317.77646074 54.36512507 -235.85698962 29.01262032 0 0 Z " fill="#8D5E2A" transform="translate(998.890625,-0.203125)"/>
<path d="M0 0 C62.7 0 125.4 0 190 0 C190 358.05 190 716.1 190 1085 C114.1 1085 38.2 1085 -40 1085 C-40.495 663.26 -40.495 663.26 -41 233 C-46.61 237.29 -52.22 241.58 -58 246 C-62.24758563 248.97457035 -66.48651685 251.89827964 -70.8125 254.75 C-71.65249542 255.30645203 -71.65249542 255.30645203 -72.50946045 255.87414551 C-93.7382405 269.92398585 -115.65320285 282.8127126 -138 295 C-139.07088867 295.58426758 -140.14177734 296.16853516 -141.24511719 296.77050781 C-175.74809721 315.53385753 -210.88916249 332.98511858 -246.19824219 350.17333984 C-250.59850582 352.31568513 -254.99484975 354.46583982 -259.38845825 356.62179565 C-262.14243176 357.97225625 -264.89869389 359.31798225 -267.65582275 360.6619873 C-269.44528734 361.53578378 -271.23220808 362.41478387 -273.01904297 363.29394531 C-274.05432129 363.79635742 -275.08959961 364.29876953 -276.15625 364.81640625 C-277.03087891 365.24381104 -277.90550781 365.67121582 -278.80664062 366.11157227 C-281 367 -281 367 -284 367 C-291.52929688 350.05908203 -299.05859375 333.11816406 -306.58789062 316.17724609 C-307.00126175 315.24716232 -307.41463287 314.31707855 -307.8405304 313.35881042 C-308.66506827 311.50359767 -309.48960237 309.64838323 -310.31413269 307.79316711 C-312.36924516 303.16911949 -314.42442462 298.54510165 -316.47973633 293.92114258 C-320.29741399 285.33210453 -324.11454853 276.74282676 -327.92935181 268.1525116 C-329.67111786 264.23043973 -331.41324137 260.30852669 -333.15539551 256.3866272 C-334.00427904 254.47538648 -334.85299559 252.5640716 -335.70153809 250.65267944 C-339.8275376 241.35887866 -343.95993991 232.06837487 -348.14453125 222.80078125 C-348.61511208 221.75729019 -348.61511208 221.75729019 -349.09519958 220.69271851 C-350.52409927 217.52469515 -351.95662615 214.35849244 -353.39624023 211.1953125 C-353.87907471 210.12667969 -354.36190918 209.05804687 -354.859375 207.95703125 C-355.27670898 207.03897705 -355.69404297 206.12092285 -356.12402344 205.17504883 C-357 203 -357 203 -357 201 C-356.00093628 200.55684448 -356.00093628 200.55684448 -354.98168945 200.10473633 C-348.600436 197.27339117 -342.22084153 194.43834544 -335.84294128 191.59945679 C-332.70373878 190.20228238 -329.56390104 188.80659493 -326.42285156 187.41357422 C-297.31264741 174.50159234 -268.59314329 160.89014238 -240.09762955 146.67152786 C-238.28238124 145.76615054 -236.4664976 144.8620589 -234.65048218 143.95822144 C-220.01330214 136.66474556 -205.53860729 129.14651697 -191.22924805 121.22900391 C-188.31340399 119.62147363 -185.38192348 118.04583202 -182.4453125 116.4765625 C-169.5454768 109.56949011 -156.85998648 102.35356875 -144.25878906 94.91699219 C-140.74936785 92.8525649 -137.23112233 90.8038038 -133.7109375 88.7578125 C-120.73043002 81.20600324 -107.85109724 73.54477851 -95.21826172 65.41943359 C-92.90509195 63.93926971 -90.58132052 62.47718517 -88.25390625 61.01953125 C-41.77828707 33.54834417 -41.77828707 33.54834417 0 0 Z " fill="#FEFEFE" transform="translate(1366,480)"/>
<path d="M0 0 C0 358.05 0 716.1 0 1085 C-75.9 1085 -151.8 1085 -230 1085 C-230.495 663.26 -230.495 663.26 -231 233 C-234.3 235.64 -237.6 238.28 -241 241 C-244.00304022 243.20310374 -247.00760228 245.37264099 -250.0625 247.5 C-251.33335449 248.38558594 -251.33335449 248.38558594 -252.62988281 249.2890625 C-276.09942971 265.50654485 -300.61798511 280.02673851 -325.63720703 293.70751953 C-327.272305 294.60194076 -328.90600467 295.49892121 -330.53857422 296.39794922 C-363.49202967 314.53707987 -397.12276721 331.68690336 -431.12695312 347.7722168 C-436.12425185 350.13691521 -441.10252166 352.53489576 -446.05848694 354.98486328 C-448.91360951 356.39613212 -451.7721505 357.8004118 -454.63064575 359.20483398 C-456.03641782 359.89809477 -457.44047687 360.59484071 -458.84274292 361.29516602 C-460.80234875 362.27343124 -462.7675798 363.23941529 -464.734375 364.203125 C-465.87100586 364.76676758 -467.00763672 365.33041016 -468.17871094 365.91113281 C-471 367 -471 367 -474 366 C-475.40939372 363.40039632 -476.63349411 360.85809886 -477.81640625 358.15625 C-478.18471558 357.33744354 -478.5530249 356.51863708 -478.93249512 355.67501831 C-480.1528567 352.95451501 -481.35770602 350.22742916 -482.5625 347.5 C-483.41578478 345.58899783 -484.26988165 343.67835808 -485.12475586 341.76806641 C-491.58736571 327.29857708 -497.95017895 312.78421656 -504.29711914 298.26367188 C-509.45360971 286.47343081 -514.7007038 274.72668539 -520 263 C-529.15740557 242.73552651 -538.09887632 222.37813524 -547 202 C-543.91986167 199.48593867 -540.86334275 197.93550491 -537.20703125 196.390625 C-536.0368042 195.89135498 -534.86657715 195.39208496 -533.66088867 194.87768555 C-533.0358847 194.61353851 -532.41088074 194.34939148 -531.76693726 194.07723999 C-528.3721865 192.64036931 -524.98703402 191.18122702 -521.6015625 189.72265625 C-520.89386215 189.41797928 -520.1861618 189.11330231 -519.45701599 188.7993927 C-496.85877633 179.04786014 -474.64029014 168.51088745 -452.53569031 157.69520569 C-446.92318096 154.95292899 -441.27721257 152.28436174 -435.625 149.625 C-427.6538797 145.85638325 -419.8401067 141.83902786 -412.0625 137.6875 C-408.41132795 135.73982064 -404.7428054 133.82955444 -401.0625 131.9375 C-387.84555889 125.13909527 -374.84289059 118.05093534 -361.94189453 110.67236328 C-357.8467409 108.34441288 -353.72949498 106.05689615 -349.61279297 103.76733398 C-336.94883317 96.71870989 -324.42295252 89.46480433 -312 82 C-311.06446289 81.43812988 -310.12892578 80.87625977 -309.16503906 80.29736328 C-278.43262345 61.80051891 -248.32685062 42.26114469 -219.08544922 21.48144531 C-216.56711951 19.6924937 -214.0410696 17.91464076 -211.51391602 16.13818359 C-153.8958956 -24.8496888 -70.7095606 0 0 0 Z " fill="#FEFEFE" transform="translate(880,480)"/>
</svg>
