<?xml version="1.0" encoding="UTF-8"?>
<svg version="1.1" xmlns="http://www.w3.org/2000/svg" width="2048" height="2048">
<path d="M0 0 C1.86296614 -0.0070215 3.72593204 -0.01410832 5.58889771 -0.02125549 C11.51239364 -0.04066359 17.43585048 -0.04568967 23.359375 -0.046875 C24.36816963 -0.04731686 25.37696426 -0.04775871 26.41632843 -0.04821396 C56.74547781 -0.05518299 86.90361524 0.18549341 117.109375 3.203125 C118.00553528 3.29033813 118.90169556 3.37755127 119.82501221 3.46740723 C159.23752608 7.30937472 198.35183658 13.07659996 237.109375 21.203125 C238.39473145 21.47205566 239.68008789 21.74098633 241.00439453 22.01806641 C275.43270999 29.31806586 309.47492637 38.41490108 342.88598633 49.46807861 C345.17230278 50.22392876 347.46011145 50.97514036 349.74804688 51.72607422 C372.90155974 59.34596822 395.61706099 67.81206395 418.109375 77.203125 C418.74796448 77.46891357 419.38655396 77.73470215 420.04449463 78.00854492 C491.25180271 107.67307615 558.21539269 145.59986769 621.109375 190.203125 C621.88313477 190.7511377 622.65689453 191.29915039 623.45410156 191.86376953 C639.91720002 203.55235864 655.75741578 215.98226691 671.36962891 228.77929688 C672.92885827 230.05538804 674.493386 231.32499881 676.05859375 232.59375 C686.52971322 241.09293602 696.74212934 249.87165181 706.6796875 258.98828125 C708.71452915 260.84319317 710.77258747 262.65741298 712.859375 264.453125 C722.49087027 272.84375278 731.70254006 281.69926236 740.6730957 290.78833008 C744.05454069 294.19931194 747.55453083 297.38288846 751.22241211 300.48608398 C753.09691145 302.1917838 754.70065861 303.96810852 756.3359375 305.90234375 C760.06296815 310.21465552 764.04212749 314.21379411 768.109375 318.203125 C772.7543063 322.75907294 777.21922704 327.37895779 781.46582031 332.31005859 C783.89976824 335.1135096 786.44468283 337.80835846 788.984375 340.515625 C793.52286024 345.38898049 797.80286297 350.40616477 801.97265625 355.6015625 C804.06819994 358.15299229 806.24900655 360.58639273 808.484375 363.015625 C812.46199185 367.38549819 816.11814094 371.93922036 819.73730469 376.60424805 C823.33403439 381.23705993 827.01834988 385.79064 830.734375 390.328125 C836.03635739 396.82683174 841.17007025 403.42303711 846.109375 410.203125 C846.58842285 410.86006348 847.0674707 411.51700195 847.56103516 412.19384766 C859.05564431 427.98416873 870.40568791 443.86372123 881.109375 460.203125 C881.53541016 460.8518457 881.96144531 461.50056641 882.40039062 462.16894531 C900.68270617 490.05286214 917.46474747 518.76033885 933.109375 548.203125 C933.64272461 549.20134277 934.17607422 550.19956055 934.72558594 551.22802734 C943.46340269 567.61471371 951.46525219 584.28050123 959.109375 601.203125 C959.58616699 602.25467773 960.06295898 603.30623047 960.55419922 604.38964844 C985.11332735 658.73434849 1004.62236309 715.37039083 1019.109375 773.203125 C1019.2952417 773.94119385 1019.4811084 774.6792627 1019.67260742 775.43969727 C1033.38167229 829.95231291 1042.22237994 885.56913768 1046.796875 941.578125 C1046.88828262 942.69252457 1046.88828262 942.69252457 1046.98153687 943.82943726 C1048.47605402 962.28632558 1049.26918423 980.70968686 1049.3125 999.2265625 C1049.31948023 1001.09113588 1049.32652118 1002.95570904 1049.33361816 1004.82028198 C1049.35287623 1010.73956604 1049.35779318 1016.65881301 1049.359375 1022.578125 C1049.35996414 1023.58550217 1049.36055328 1024.59287933 1049.36116028 1025.63078308 C1049.37320253 1054.79175109 1049.19301366 1083.80771968 1046.33721924 1112.85516357 C1046.10441009 1115.25428899 1045.88604669 1117.65436234 1045.67138672 1120.05517578 C1041.08410278 1171.04493268 1032.34597658 1221.50822984 1020.109375 1271.203125 C1019.91408203 1271.99632141 1019.71878906 1272.78951782 1019.51757812 1273.60675049 C1013.55944643 1297.70658205 1006.60579727 1321.42389763 998.83532715 1344.99987793 C998.13660489 1347.12048294 997.4416031 1349.2422777 996.74707031 1351.36425781 C982.67406805 1394.22484942 965.06842394 1435.77207627 945.109375 1476.203125 C944.38664457 1477.67704696 943.66397627 1479.15099939 942.94140625 1480.625 C941.40752435 1483.737537 939.84745055 1486.83582721 938.27050781 1489.92675781 C937.39217662 1491.64870063 936.51709277 1493.37230038 935.64355469 1495.09667969 C927.79854293 1510.55720733 919.54538936 1525.68166071 910.66992188 1540.57421875 C909.26440783 1542.94195579 907.87695125 1545.31870083 906.5 1547.703125 C881.52718493 1590.87877318 852.19371985 1631.9271151 820.54931641 1670.44726562 C819.26571799 1672.01248092 817.98974428 1673.583942 816.71484375 1675.15625 C808.2186202 1685.62727146 799.43950678 1695.83734154 790.32421875 1705.7734375 C788.46930683 1707.80827915 786.65508702 1709.86633747 784.859375 1711.953125 C776.46874722 1721.58462027 767.61323764 1730.79629006 758.52416992 1739.7668457 C755.11318806 1743.14829069 751.92961154 1746.64828083 748.82641602 1750.31616211 C747.1207162 1752.19066145 745.34439148 1753.79440861 743.41015625 1755.4296875 C739.09784448 1759.15671815 735.09870589 1763.13587749 731.109375 1767.203125 C726.55342706 1771.8480563 721.93354221 1776.31297704 717.00244141 1780.55957031 C714.1989904 1782.99351824 711.50414154 1785.53843283 708.796875 1788.078125 C703.92351951 1792.61661024 698.90633523 1796.89661297 693.7109375 1801.06640625 C691.15950771 1803.16194994 688.72610727 1805.34275655 686.296875 1807.578125 C681.92236674 1811.55996087 677.36408425 1815.22054583 672.69287109 1818.84204102 C668.87622932 1821.80357984 665.11725783 1824.82272329 661.38964844 1827.89550781 C652.65004165 1835.09104511 643.63166013 1841.84906829 634.46777344 1848.49316406 C632.21199471 1850.1287204 629.96104915 1851.77072253 627.7109375 1853.4140625 C611.19157234 1865.44721355 594.5575427 1877.32693761 577.10351562 1887.97265625 C574.97132245 1889.28830924 572.85937183 1890.632451 570.75 1891.984375 C553.11415021 1903.28078576 535.00100583 1913.7974084 516.61962891 1923.83251953 C514.80538981 1924.82309902 512.99276489 1925.81663681 511.18115234 1926.81201172 C497.04318706 1934.57158548 482.80536522 1941.95532224 468.18408203 1948.76074219 C464.93803795 1950.28350131 461.70898322 1951.83888113 458.48046875 1953.3984375 C400.32249029 1981.29028283 338.62682139 2002.54259981 276.109375 2018.203125 C275.37130615 2018.3889917 274.6332373 2018.5748584 273.87280273 2018.76635742 C222.89096663 2031.58748681 170.85022877 2040.39918551 118.480896 2044.99023438 C116.13656116 2045.20068451 113.794168 2045.42642506 111.45166016 2045.65625 C54.18169321 2051.19090931 -6.08729434 2051.22115165 -63.33905029 2045.45959473 C-66.04062359 2045.188048 -68.74311052 2044.92717293 -71.44580078 2044.66699219 C-160.30628974 2036.01099102 -247.53699533 2016.49949328 -416.890625 1949.203125 C-418.75641336 1948.33182339 -420.62229643 1947.46072454 -422.48828125 1946.58984375 C-448.52947338 1934.37994181 -474.25601711 1920.68886129 -498.72021484 1905.54248047 C-501.48514319 1903.8362491 -504.26054295 1902.14746617 -507.03515625 1900.45703125 C-518.11237435 1893.69405605 -529.16264629 1886.91307198 -539.87451172 1879.58007812 C-542.26049212 1877.95051534 -544.65567639 1876.33487076 -547.05078125 1874.71875 C-566.13494295 1861.81353826 -584.65125078 1848.27522498 -602.890625 1834.203125 C-603.55578125 1833.69007812 -604.2209375 1833.17703125 -604.90625 1832.6484375 C-622.64219981 1818.92960453 -639.93678517 1804.57708241 -656.4609375 1789.41796875 C-658.49577915 1787.56305683 -660.55383747 1785.74883702 -662.640625 1783.953125 C-672.27212027 1775.56249722 -681.48379006 1766.70698764 -690.4543457 1757.61791992 C-693.83579069 1754.20693806 -697.33578083 1751.02336154 -701.00366211 1747.92016602 C-702.87816145 1746.2144662 -704.48190861 1744.43814148 -706.1171875 1742.50390625 C-709.84421815 1738.19159448 -713.82337749 1734.19245589 -717.890625 1730.203125 C-722.5355563 1725.64717706 -727.00047704 1721.02729221 -731.24707031 1716.09619141 C-733.68101824 1713.2927404 -736.22593283 1710.59789154 -738.765625 1707.890625 C-743.30411024 1703.01726951 -747.58411297 1698.00008523 -751.75390625 1692.8046875 C-753.84944994 1690.25325771 -756.03025655 1687.81985727 -758.265625 1685.390625 C-762.24324185 1681.02075181 -765.89939094 1676.46702964 -769.51855469 1671.80200195 C-773.11528439 1667.16919007 -776.79959988 1662.61561 -780.515625 1658.078125 C-785.81760739 1651.57941826 -790.95132025 1644.98321289 -795.890625 1638.203125 C-796.36967285 1637.54618652 -796.8487207 1636.88924805 -797.34228516 1636.21240234 C-808.83689431 1620.42208127 -820.18693791 1604.54252877 -830.890625 1588.203125 C-831.52967773 1587.23004395 -831.52967773 1587.23004395 -832.18164062 1586.23730469 C-850.2324661 1558.70645309 -866.83302715 1530.39147182 -882.24707031 1501.30224609 C-883.81572024 1498.34436698 -885.3955671 1495.3926992 -886.9765625 1492.44140625 C-894.86253009 1477.62725488 -901.9773884 1462.49234851 -908.890625 1447.203125 C-909.60798828 1445.62144531 -909.60798828 1445.62144531 -910.33984375 1444.0078125 C-934.89690076 1389.66586561 -954.40443765 1333.0325675 -968.890625 1275.203125 C-969.0764917 1274.46505615 -969.2623584 1273.7269873 -969.45385742 1272.96655273 C-980.5709885 1228.76048186 -988.50565375 1183.86843324 -993.578125 1138.578125 C-993.72343155 1137.31411362 -993.72343155 1137.31411362 -993.87167358 1136.02456665 C-997.87569006 1100.78189064 -999.40859782 1065.42413928 -999.28173828 1029.97363281 C-999.26464819 1025.16500959 -999.27485164 1020.35688516 -999.29206085 1015.54827881 C-999.39852722 980.33520233 -997.6410977 945.2003769 -993.640625 910.203125 C-993.53835602 909.28561462 -993.43608704 908.36810425 -993.33071899 907.42279053 C-985.93345701 841.41033602 -972.42373539 775.57240609 -951.62963867 712.44696045 C-950.848982 710.07668615 -950.07392909 707.70461592 -949.29882812 705.33251953 C-941.07725668 680.2552961 -931.96113245 655.59600697 -921.890625 631.203125 C-921.61881409 630.54411194 -921.34700317 629.88509888 -921.06695557 629.20611572 C-892.0151779 558.95322965 -854.66833149 492.09691279 -810.39697266 430.30664062 C-808.8418046 428.13495052 -807.29399683 425.95812262 -805.74609375 423.78125 C-794.51265771 408.04283582 -782.56990765 392.8943691 -770.31445312 377.94287109 C-769.03836196 376.38364173 -767.76875119 374.819114 -766.5 373.25390625 C-758.00081398 362.78278678 -749.22209819 352.57037066 -740.10546875 342.6328125 C-738.25055683 340.59797085 -736.43633702 338.53991253 -734.640625 336.453125 C-726.24999722 326.82162973 -717.39448764 317.60995994 -708.30541992 308.6394043 C-704.89443806 305.25795931 -701.71086154 301.75796917 -698.60766602 298.09008789 C-696.9019662 296.21558855 -695.12564148 294.61184139 -693.19140625 292.9765625 C-688.87909448 289.24953185 -684.87995589 285.27037251 -680.890625 281.203125 C-676.33467706 276.5581937 -671.71479221 272.09327296 -666.78369141 267.84667969 C-663.9802404 265.41273176 -661.28539154 262.86781717 -658.578125 260.328125 C-653.70476951 255.78963976 -648.68758523 251.50963703 -643.4921875 247.33984375 C-640.94075771 245.24430006 -638.50735727 243.06349345 -636.078125 240.828125 C-631.70825181 236.85050815 -627.15452964 233.19435906 -622.48950195 229.57519531 C-617.85669007 225.97846561 -613.30311 222.29415012 -608.765625 218.578125 C-602.26691826 213.27614261 -595.67071289 208.14242975 -588.890625 203.203125 C-587.90521729 202.48455322 -587.90521729 202.48455322 -586.89990234 201.75146484 C-571.10958127 190.25685569 -555.23002877 178.90681209 -538.890625 168.203125 C-538.2419043 167.77708984 -537.59318359 167.35105469 -536.92480469 166.91210938 C-509.04088786 148.62979383 -480.33341115 131.84775253 -450.890625 116.203125 C-449.89240723 115.66977539 -448.89418945 115.13642578 -447.86572266 114.58691406 C-431.48183795 105.85059123 -414.8366818 97.78791668 -397.890625 90.203125 C-396.85424896 89.73876038 -396.85424896 89.73876038 -395.79693604 89.26501465 C-317.77646074 54.36512507 -235.85698962 29.01262032 0 0 Z " fill="#00814F" transform="translate(998.890625,-0.203125)"/>
<path d="M0 0 C1.68802734 0.2168042 1.68802734 0.2168042 3.41015625 0.43798828 C29.03847115 3.82137547 54.38786021 9.06933315 79 17 C80.5792627 17.50853516 80.5792627 17.50853516 82.19042969 18.02734375 C96.97619945 22.84850248 111.31227902 28.39479587 125.46191406 34.84619141 C127.75591464 35.8890393 130.05901481 36.90700834 132.3671875 37.91796875 C156.03182199 48.45682926 177.75693492 62.94243213 198 79 C198.89847656 79.70382812 199.79695313 80.40765625 200.72265625 81.1328125 C208.88678091 87.64968373 216.45762768 94.7835195 224 102 C224.94488281 102.90234375 225.88976563 103.8046875 226.86328125 104.734375 C231.86162221 109.61611391 236.38813624 114.7213492 240.73828125 120.1875 C242.21995871 122.03000047 243.73753121 123.84432875 245.29296875 125.625 C272.27064633 156.60752042 291.40410045 196.39036278 301.48242188 236.00634766 C301.97441681 237.90145644 302.50951947 239.78521933 303.046875 241.66796875 C306.15767564 252.6395233 308.25375108 263.73732914 310 275 C310.15388184 275.97372559 310.30776367 276.94745117 310.46630859 277.95068359 C317.06654973 321.76914934 314.41318922 368.80711421 305 412 C304.71817871 413.32330322 304.71817871 413.32330322 304.43066406 414.67333984 C298.50292795 442.00326757 287.85342104 468.39928594 274.95751953 493.15429688 C274.02884424 494.94440019 273.12147861 496.74550859 272.21484375 498.546875 C254.74420861 532.8294087 229.63099994 563.33784064 203.50878906 591.37792969 C201.89373267 593.11424598 200.28684769 594.85793662 198.6796875 596.6015625 C191.45653922 604.40498292 184.0699776 612.03214855 176.5625 619.5625 C175.73435791 620.39523437 174.90621582 621.22796875 174.05297852 622.0859375 C169.7293099 626.39871965 165.32498803 630.54124299 160.69506836 634.52319336 C158.70003198 636.2613433 156.83753372 638.09684008 155 640 C152.52286087 642.56560838 149.94120754 644.94484032 147.25 647.28125 C143.06455629 650.91638537 139.02414745 654.68806345 135 658.5 C130.37089098 662.88499585 125.69012561 667.18100912 120.875 671.36132812 C118.2054458 673.69440726 115.6041206 676.09401901 113 678.5 C109.04501384 682.14265256 105.05435984 685.73501574 100.9921875 689.2578125 C98.63979365 691.31500399 96.31965034 693.40596915 94 695.5 C91.04130249 698.17048344 88.07073528 700.82298058 85.0625 703.4375 C80.86419058 707.0929977 76.76068087 710.84984457 72.6484375 714.6015625 C70.49428693 716.55237143 68.32281531 718.47393612 66.125 720.375 C60.86174969 724.95080537 55.77796608 729.72301277 50.66259766 734.46240234 C48.09486812 736.83708085 45.51685407 739.20046193 42.9375 741.5625 C42.20019653 742.23792847 42.20019653 742.23792847 41.44799805 742.92700195 C39.47245749 744.73648164 37.49647151 746.5454746 35.52050781 748.35449219 C32.01156109 751.5673643 28.50470052 754.78249645 25 758 C24.49919922 758.45955078 23.99839844 758.91910156 23.48242188 759.39257812 C19.64431926 762.91696609 15.81949606 766.45546255 12 770 C11.39695038 770.55948334 10.79390076 771.11896667 10.1725769 771.69540405 C-0.81727094 781.91303214 -11.53650045 792.37893125 -22.13330078 803.00292969 C-24.65411752 805.52918029 -27.18033738 808.04994144 -29.70703125 810.5703125 C-31.33886292 812.20280394 -32.97038491 813.83560501 -34.6015625 815.46875 C-35.71417953 816.57833069 -35.71417953 816.57833069 -36.84927368 817.71032715 C-40.88806455 821.76716609 -44.76218684 825.91277495 -48.49316406 830.25505066 C-50.72228815 832.83642565 -53.05034084 835.31680736 -55.375 837.8125 C-59.63812952 842.43326236 -63.71438784 847.16317635 -67.6484375 852.0703125 C-69.30034882 854.12834155 -70.96702617 856.15998379 -72.6640625 858.1796875 C-84.41129866 872.30254297 -94.90198264 887.70399964 -103.625 903.875 C-103.98996582 904.53725586 -104.35493164 905.19951172 -104.73095703 905.88183594 C-108.90810959 913.96627426 -111.05786655 922.17359966 -114 931 C33.51 931 181.02 931 333 931 C333 990.73 333 1050.46 333 1112 C100.68 1112 -131.64 1112 -371 1112 C-371 959.26226403 -371 959.26226403 -359.8125 930.0625 C-359.44431152 929.09344727 -359.07612305 928.12439453 -358.69677734 927.12597656 C-341.52346707 883.0145566 -314.71664767 843.54093001 -285 807 C-284.33097656 806.16855469 -283.66195313 805.33710937 -282.97265625 804.48046875 C-273.86972154 793.23760364 -264.3488429 782.36060263 -254.52734375 771.7421875 C-252.26405783 769.28650479 -250.03347539 766.80637407 -247.8125 764.3125 C-235.75982863 750.94612916 -223.21346709 738.11013829 -210.5 725.375 C-209.79632294 724.66873474 -209.09264587 723.96246948 -208.36764526 723.23480225 C-206.32097063 721.18219868 -204.27052274 719.13344382 -202.21875 717.0859375 C-201.61080093 716.47600952 -201.00285187 715.86608154 -200.3764801 715.2376709 C-196.63863832 711.51954722 -192.77987644 707.99487455 -188.7800293 704.55984497 C-186.22441672 702.32035406 -183.87424372 699.93145441 -181.5 697.5 C-177.8443912 693.75630424 -174.06542811 690.28144081 -170.11035156 686.85644531 C-166.52824187 683.70531596 -163.0839659 680.40996968 -159.625 677.125 C-154.27254537 672.06415029 -148.89482727 667.04513571 -143.39453125 662.14453125 C-140.53104423 659.58000535 -137.70311885 656.97837931 -134.875 654.375 C-130.96037637 650.77576383 -127.00971708 647.22626917 -122.9921875 643.7421875 C-120.63979365 641.68499601 -118.31965034 639.59403085 -116 637.5 C-110.65210014 632.67878725 -105.25697785 627.92105973 -99.77734375 623.25 C-94.21877521 618.50920677 -88.69062026 613.75913783 -83.3125 608.8125 C-79.90216251 605.67974812 -76.43243506 602.69982916 -72.8125 599.8125 C-67.22616747 595.30972335 -62.0293788 590.43633217 -56.83325195 585.49145508 C-52.91060705 581.76244785 -48.92245131 578.14128966 -44.81713867 574.61376953 C-42.97023578 572.97356691 -41.22946373 571.26296739 -39.5 569.5 C-37.20984863 567.16876968 -34.86544399 564.99031436 -32.375 562.875 C-24.32838784 555.92636611 -16.74032463 548.25022755 -9.86328125 540.14453125 C-7.85918654 537.83793167 -5.78700222 535.60724954 -3.70092773 533.375 C2.13923291 527.12136864 7.69567761 520.72006681 13 514 C13.76570313 513.0409375 14.53140625 512.081875 15.3203125 511.09375 C26.26683763 497.15540931 36.29335378 482.4409627 45 467 C45.59675537 465.95005859 45.59675537 465.95005859 46.20556641 464.87890625 C65.01958314 431.46439037 75.22262381 394.96498639 75.25 356.6875 C75.25067474 355.83996155 75.25134949 354.9924231 75.25204468 354.11920166 C75.23570021 341.18751846 74.72607683 328.68323343 72 316 C71.83371094 315.18547363 71.66742187 314.37094727 71.49609375 313.53173828 C63.22940441 273.90520982 40.86858551 237.69974546 7.234375 214.68359375 C-11.52366456 202.43035823 -32.18818378 193.85293621 -54 189 C-54.86157715 188.80100098 -55.7231543 188.60200195 -56.61083984 188.39697266 C-71.22417198 185.14867873 -85.59310781 184.62843428 -100.5 184.625 C-101.38938263 184.62309662 -102.27876526 184.62119324 -103.19509888 184.61923218 C-119.11637501 184.62308983 -134.54091884 185.68035032 -150 189.75 C-151.02125977 190.01385498 -152.04251953 190.27770996 -153.09472656 190.54956055 C-191.39348035 200.67171783 -225.03386702 220.96378606 -254.875 246.6875 C-255.48158447 247.21005371 -256.08816895 247.73260742 -256.71313477 248.27099609 C-260.41479641 251.50277479 -263.92845693 254.86721077 -267.35913086 258.38549805 C-269.06491913 260.06387594 -270.84606224 261.59769285 -272.6875 263.125 C-277.15429415 266.92745686 -280.97819281 271.28519486 -284.7878418 275.73291016 C-286.11256616 277.22943505 -287.55100173 278.62345164 -289 280 C-290.32 280 -291.64 280 -293 280 C-295.015625 277.89453125 -295.015625 277.89453125 -297.25 274.8125 C-298.13477098 273.61280479 -299.02023723 272.41362215 -299.90625 271.21484375 C-300.39480469 270.54565918 -300.88335938 269.87647461 -301.38671875 269.18701172 C-303.78334182 265.93807869 -306.24792825 262.74230486 -308.70605469 259.53979492 C-314.55164542 251.91860251 -320.32239705 244.2470705 -326 236.5 C-333.52924982 226.22796734 -341.25829764 216.1123672 -349 206 C-357.32543306 195.12515203 -365.60621767 184.22730633 -373.70043945 173.17895508 C-378.17191438 167.08923208 -382.7277644 161.06730065 -387.3125 155.0625 C-388.32268188 153.73520874 -388.32268188 153.73520874 -389.35327148 152.38110352 C-392.22335207 148.61405623 -395.10145641 144.85696926 -398.046875 141.1484375 C-398.48088623 140.59406006 -398.91489746 140.03968262 -399.36206055 139.46850586 C-400.46296426 138.06444501 -401.57657482 136.67037165 -402.69140625 135.27734375 C-404 133 -404 133 -403.9765625 130.9453125 C-399.77015248 122.56614374 -388.18808871 116.11502483 -380.79248047 110.39404297 C-379.07251723 109.0563979 -377.36427159 107.70541078 -375.66015625 106.34765625 C-328.69552304 68.9580687 -276.95503612 39.20428385 -220 20 C-219.17999512 19.72349609 -218.35999023 19.44699219 -217.51513672 19.16210938 C-149.25751949 -3.42365716 -71.05720149 -9.36172635 0 0 Z " fill="#FEFEFE" transform="translate(1362,455)"/>
<path d="M0 0 C63.03 0 126.06 0 191 0 C191 358.05 191 716.1 191 1085 C114.77 1085 38.54 1085 -40 1085 C-40.495 663.26 -40.495 663.26 -41 233 C-45.29 236.3 -49.58 239.6 -54 243 C-56.4890588 244.76836456 -58.96365414 246.50495828 -61.50390625 248.19140625 C-62.1416951 248.61940521 -62.77948395 249.04740417 -63.43659973 249.4883728 C-65.47466123 250.85238684 -67.51785842 252.20837255 -69.5625 253.5625 C-70.27521057 254.03599884 -70.98792114 254.50949768 -71.722229 254.99734497 C-93.96568221 269.75730499 -116.82339856 283.28137565 -140.265625 296.05468941 C-141.87065641 296.92950206 -143.47497165 297.80562834 -145.07922363 298.68186951 C-165.3956913 309.75461051 -186.03009938 320.15399516 -206.73980713 330.4677124 C-210.17947046 332.18211744 -213.61687154 333.90103137 -217.05427742 335.61995697 C-234.18310437 344.18407111 -251.31675711 352.7249286 -268.65365601 360.86242676 C-270.35553756 361.68754657 -272.04040213 362.54806407 -273.71377563 363.42956543 C-274.60656219 363.8985022 -275.49934875 364.36743896 -276.41918945 364.85058594 C-277.22491898 365.28465759 -278.0306485 365.71872925 -278.86079407 366.16595459 C-281 367 -281 367 -284 366 C-285.33830758 363.45830646 -286.48861912 360.98096247 -287.59765625 358.33984375 C-287.94372421 357.54058975 -288.28979218 356.74133575 -288.64634705 355.91786194 C-289.39836038 354.1781209 -290.14551337 352.4362729 -290.88842773 350.69262695 C-292.48387239 346.94868997 -294.10245755 343.21491943 -295.7203064 339.48062134 C-296.56144888 337.53902664 -297.40145957 335.59694126 -298.24038696 333.65438843 C-302.03486368 324.879153 -305.94555204 316.15906353 -309.8901062 307.45046997 C-317.11570664 291.49748697 -324.20737753 275.48957126 -331.20825195 259.43676758 C-335.12064073 250.47885314 -339.09658961 241.55486346 -343.16796875 232.66796875 C-344.01631027 230.80991146 -344.86461802 228.95183875 -345.71289062 227.09375 C-347.33034396 223.5525387 -348.96280045 220.01876375 -350.60351562 216.48828125 C-351.33387945 214.89217687 -352.06372597 213.29583564 -352.79296875 211.69921875 C-353.13466599 210.97518356 -353.47636322 210.25114838 -353.82841492 209.50517273 C-356.05867134 204.57596107 -356.05867134 204.57596107 -355.78593445 201.89857483 C-354.58949802 199.00835403 -352.26963769 198.40520674 -349.5289917 197.21080017 C-348.74856506 196.88857986 -347.96813843 196.56635956 -347.1640625 196.234375 C-346.3514093 195.88448013 -345.5387561 195.53458527 -344.70147705 195.17408752 C-342.93994623 194.41737051 -341.1755247 193.66735575 -339.40863037 192.92324829 C-335.6331 191.33193265 -331.87296438 189.70567304 -328.11148071 188.08149719 C-326.1847652 187.24999735 -324.25732822 186.42016738 -322.32919312 185.59196472 C-313.80033161 181.92785787 -305.31789701 178.17041889 -296.875 174.3125 C-296.18684204 173.99807953 -295.49868408 173.68365906 -294.78967285 173.35971069 C-256.39025029 155.76117702 -218.12798625 137.17091164 -181.48828125 116.12109375 C-175.59187997 112.74273619 -169.61211244 109.52649552 -163.625 106.3125 C-154.75882066 101.53753587 -146.01342753 96.61660139 -137.38232422 91.4296875 C-134.61466362 89.76875079 -131.84050863 88.11890424 -129.06640625 86.46875 C-117.00550072 79.28024706 -105.04607744 71.95954858 -93.21240234 64.40332031 C-91.08411382 63.05335315 -88.94518915 61.72261564 -86.80078125 60.3984375 C-64.69653648 46.70088031 -43.01655553 32.03458709 -22.11425781 16.56396484 C-19.66224234 14.75015294 -17.20235794 12.94726531 -14.7421875 11.14453125 C-11.36617851 8.66719205 -7.99078889 6.18904767 -4.62109375 3.703125 C-3.9448999 3.20458008 -3.26870605 2.70603516 -2.57202148 2.19238281 C-1.04473663 1.090088 -1.04473663 1.090088 0 0 Z " fill="#FEFEFE" transform="translate(618,482)"/>
</svg>
