<?xml version="1.0" encoding="UTF-8"?>
<svg version="1.1" xmlns="http://www.w3.org/2000/svg" width="2048" height="2048">
<path d="M0 0 C1.86296614 -0.0070215 3.72593204 -0.01410832 5.58889771 -0.02125549 C11.51239364 -0.04066359 17.43585048 -0.04568967 23.359375 -0.046875 C24.36816963 -0.04731686 25.37696426 -0.04775871 26.41632843 -0.04821396 C56.74547781 -0.05518299 86.90361524 0.18549341 117.109375 3.203125 C118.00553528 3.29033813 118.90169556 3.37755127 119.82501221 3.46740723 C159.23752608 7.30937472 198.35183658 13.07659996 237.109375 21.203125 C238.39473145 21.47205566 239.68008789 21.74098633 241.00439453 22.01806641 C275.43270999 29.31806586 309.47492637 38.41490108 342.88598633 49.46807861 C345.17230278 50.22392876 347.46011145 50.97514036 349.74804688 51.72607422 C372.90155974 59.34596822 395.61706099 67.81206395 418.109375 77.203125 C418.74796448 77.46891357 419.38655396 77.73470215 420.04449463 78.00854492 C491.25180271 107.67307615 558.21539269 145.59986769 621.109375 190.203125 C621.88313477 190.7511377 622.65689453 191.29915039 623.45410156 191.86376953 C639.91720002 203.55235864 655.75741578 215.98226691 671.36962891 228.77929688 C672.92885827 230.05538804 674.493386 231.32499881 676.05859375 232.59375 C686.52971322 241.09293602 696.74212934 249.87165181 706.6796875 258.98828125 C708.71452915 260.84319317 710.77258747 262.65741298 712.859375 264.453125 C722.49087027 272.84375278 731.70254006 281.69926236 740.6730957 290.78833008 C744.05454069 294.19931194 747.55453083 297.38288846 751.22241211 300.48608398 C753.09691145 302.1917838 754.70065861 303.96810852 756.3359375 305.90234375 C760.06296815 310.21465552 764.04212749 314.21379411 768.109375 318.203125 C772.7543063 322.75907294 777.21922704 327.37895779 781.46582031 332.31005859 C783.89976824 335.1135096 786.44468283 337.80835846 788.984375 340.515625 C793.52286024 345.38898049 797.80286297 350.40616477 801.97265625 355.6015625 C804.06819994 358.15299229 806.24900655 360.58639273 808.484375 363.015625 C812.46199185 367.38549819 816.11814094 371.93922036 819.73730469 376.60424805 C823.33403439 381.23705993 827.01834988 385.79064 830.734375 390.328125 C836.03635739 396.82683174 841.17007025 403.42303711 846.109375 410.203125 C846.58842285 410.86006348 847.0674707 411.51700195 847.56103516 412.19384766 C859.05564431 427.98416873 870.40568791 443.86372123 881.109375 460.203125 C881.53541016 460.8518457 881.96144531 461.50056641 882.40039062 462.16894531 C900.68270617 490.05286214 917.46474747 518.76033885 933.109375 548.203125 C933.64272461 549.20134277 934.17607422 550.19956055 934.72558594 551.22802734 C943.46340269 567.61471371 951.46525219 584.28050123 959.109375 601.203125 C959.58616699 602.25467773 960.06295898 603.30623047 960.55419922 604.38964844 C985.11332735 658.73434849 1004.62236309 715.37039083 1019.109375 773.203125 C1019.2952417 773.94119385 1019.4811084 774.6792627 1019.67260742 775.43969727 C1033.38167229 829.95231291 1042.22237994 885.56913768 1046.796875 941.578125 C1046.88828262 942.69252457 1046.88828262 942.69252457 1046.98153687 943.82943726 C1048.47605402 962.28632558 1049.26918423 980.70968686 1049.3125 999.2265625 C1049.31948023 1001.09113588 1049.32652118 1002.95570904 1049.33361816 1004.82028198 C1049.35287623 1010.73956604 1049.35779318 1016.65881301 1049.359375 1022.578125 C1049.35996414 1023.58550217 1049.36055328 1024.59287933 1049.36116028 1025.63078308 C1049.37320253 1054.79175109 1049.19301366 1083.80771968 1046.33721924 1112.85516357 C1046.10441009 1115.25428899 1045.88604669 1117.65436234 1045.67138672 1120.05517578 C1041.08410278 1171.04493268 1032.34597658 1221.50822984 1020.109375 1271.203125 C1019.91408203 1271.99632141 1019.71878906 1272.78951782 1019.51757812 1273.60675049 C1013.55944643 1297.70658205 1006.60579727 1321.42389763 998.83532715 1344.99987793 C998.13660489 1347.12048294 997.4416031 1349.2422777 996.74707031 1351.36425781 C982.67406805 1394.22484942 965.06842394 1435.77207627 945.109375 1476.203125 C944.38664457 1477.67704696 943.66397627 1479.15099939 942.94140625 1480.625 C941.40752435 1483.737537 939.84745055 1486.83582721 938.27050781 1489.92675781 C937.39217662 1491.64870063 936.51709277 1493.37230038 935.64355469 1495.09667969 C927.79854293 1510.55720733 919.54538936 1525.68166071 910.66992188 1540.57421875 C909.26440783 1542.94195579 907.87695125 1545.31870083 906.5 1547.703125 C881.52718493 1590.87877318 852.19371985 1631.9271151 820.54931641 1670.44726562 C819.26571799 1672.01248092 817.98974428 1673.583942 816.71484375 1675.15625 C808.2186202 1685.62727146 799.43950678 1695.83734154 790.32421875 1705.7734375 C788.46930683 1707.80827915 786.65508702 1709.86633747 784.859375 1711.953125 C776.46874722 1721.58462027 767.61323764 1730.79629006 758.52416992 1739.7668457 C755.11318806 1743.14829069 751.92961154 1746.64828083 748.82641602 1750.31616211 C747.1207162 1752.19066145 745.34439148 1753.79440861 743.41015625 1755.4296875 C739.09784448 1759.15671815 735.09870589 1763.13587749 731.109375 1767.203125 C726.55342706 1771.8480563 721.93354221 1776.31297704 717.00244141 1780.55957031 C714.1989904 1782.99351824 711.50414154 1785.53843283 708.796875 1788.078125 C703.92351951 1792.61661024 698.90633523 1796.89661297 693.7109375 1801.06640625 C691.15950771 1803.16194994 688.72610727 1805.34275655 686.296875 1807.578125 C681.92236674 1811.55996087 677.36408425 1815.22054583 672.69287109 1818.84204102 C668.87622932 1821.80357984 665.11725783 1824.82272329 661.38964844 1827.89550781 C652.65004165 1835.09104511 643.63166013 1841.84906829 634.46777344 1848.49316406 C632.21199471 1850.1287204 629.96104915 1851.77072253 627.7109375 1853.4140625 C611.19157234 1865.44721355 594.5575427 1877.32693761 577.10351562 1887.97265625 C574.97132245 1889.28830924 572.85937183 1890.632451 570.75 1891.984375 C553.11415021 1903.28078576 535.00100583 1913.7974084 516.61962891 1923.83251953 C514.80538981 1924.82309902 512.99276489 1925.81663681 511.18115234 1926.81201172 C497.04318706 1934.57158548 482.80536522 1941.95532224 468.18408203 1948.76074219 C464.93803795 1950.28350131 461.70898322 1951.83888113 458.48046875 1953.3984375 C400.32249029 1981.29028283 338.62682139 2002.54259981 276.109375 2018.203125 C275.37130615 2018.3889917 274.6332373 2018.5748584 273.87280273 2018.76635742 C222.89096663 2031.58748681 170.85022877 2040.39918551 118.480896 2044.99023438 C116.13656116 2045.20068451 113.794168 2045.42642506 111.45166016 2045.65625 C54.18169321 2051.19090931 -6.08729434 2051.22115165 -63.33905029 2045.45959473 C-66.04062359 2045.188048 -68.74311052 2044.92717293 -71.44580078 2044.66699219 C-160.30628974 2036.01099102 -247.53699533 2016.49949328 -416.890625 1949.203125 C-418.75641336 1948.33182339 -420.62229643 1947.46072454 -422.48828125 1946.58984375 C-448.52947338 1934.37994181 -474.25601711 1920.68886129 -498.72021484 1905.54248047 C-501.48514319 1903.8362491 -504.26054295 1902.14746617 -507.03515625 1900.45703125 C-518.11237435 1893.69405605 -529.16264629 1886.91307198 -539.87451172 1879.58007812 C-542.26049212 1877.95051534 -544.65567639 1876.33487076 -547.05078125 1874.71875 C-566.13494295 1861.81353826 -584.65125078 1848.27522498 -602.890625 1834.203125 C-603.55578125 1833.69007812 -604.2209375 1833.17703125 -604.90625 1832.6484375 C-622.64219981 1818.92960453 -639.93678517 1804.57708241 -656.4609375 1789.41796875 C-658.49577915 1787.56305683 -660.55383747 1785.74883702 -662.640625 1783.953125 C-672.27212027 1775.56249722 -681.48379006 1766.70698764 -690.4543457 1757.61791992 C-693.83579069 1754.20693806 -697.33578083 1751.02336154 -701.00366211 1747.92016602 C-702.87816145 1746.2144662 -704.48190861 1744.43814148 -706.1171875 1742.50390625 C-709.84421815 1738.19159448 -713.82337749 1734.19245589 -717.890625 1730.203125 C-722.5355563 1725.64717706 -727.00047704 1721.02729221 -731.24707031 1716.09619141 C-733.68101824 1713.2927404 -736.22593283 1710.59789154 -738.765625 1707.890625 C-743.30411024 1703.01726951 -747.58411297 1698.00008523 -751.75390625 1692.8046875 C-753.84944994 1690.25325771 -756.03025655 1687.81985727 -758.265625 1685.390625 C-762.24324185 1681.02075181 -765.89939094 1676.46702964 -769.51855469 1671.80200195 C-773.11528439 1667.16919007 -776.79959988 1662.61561 -780.515625 1658.078125 C-785.81760739 1651.57941826 -790.95132025 1644.98321289 -795.890625 1638.203125 C-796.36967285 1637.54618652 -796.8487207 1636.88924805 -797.34228516 1636.21240234 C-808.83689431 1620.42208127 -820.18693791 1604.54252877 -830.890625 1588.203125 C-831.52967773 1587.23004395 -831.52967773 1587.23004395 -832.18164062 1586.23730469 C-850.2324661 1558.70645309 -866.83302715 1530.39147182 -882.24707031 1501.30224609 C-883.81572024 1498.34436698 -885.3955671 1495.3926992 -886.9765625 1492.44140625 C-894.86253009 1477.62725488 -901.9773884 1462.49234851 -908.890625 1447.203125 C-909.60798828 1445.62144531 -909.60798828 1445.62144531 -910.33984375 1444.0078125 C-934.89690076 1389.66586561 -954.40443765 1333.0325675 -968.890625 1275.203125 C-969.0764917 1274.46505615 -969.2623584 1273.7269873 -969.45385742 1272.96655273 C-980.5709885 1228.76048186 -988.50565375 1183.86843324 -993.578125 1138.578125 C-993.72343155 1137.31411362 -993.72343155 1137.31411362 -993.87167358 1136.02456665 C-997.87569006 1100.78189064 -999.40859782 1065.42413928 -999.28173828 1029.97363281 C-999.26464819 1025.16500959 -999.27485164 1020.35688516 -999.29206085 1015.54827881 C-999.39852722 980.33520233 -997.6410977 945.2003769 -993.640625 910.203125 C-993.53835602 909.28561462 -993.43608704 908.36810425 -993.33071899 907.42279053 C-985.93345701 841.41033602 -972.42373539 775.57240609 -951.62963867 712.44696045 C-950.848982 710.07668615 -950.07392909 707.70461592 -949.29882812 705.33251953 C-941.07725668 680.2552961 -931.96113245 655.59600697 -921.890625 631.203125 C-921.61881409 630.54411194 -921.34700317 629.88509888 -921.06695557 629.20611572 C-892.0151779 558.95322965 -854.66833149 492.09691279 -810.39697266 430.30664062 C-808.8418046 428.13495052 -807.29399683 425.95812262 -805.74609375 423.78125 C-794.51265771 408.04283582 -782.56990765 392.8943691 -770.31445312 377.94287109 C-769.03836196 376.38364173 -767.76875119 374.819114 -766.5 373.25390625 C-758.00081398 362.78278678 -749.22209819 352.57037066 -740.10546875 342.6328125 C-738.25055683 340.59797085 -736.43633702 338.53991253 -734.640625 336.453125 C-726.24999722 326.82162973 -717.39448764 317.60995994 -708.30541992 308.6394043 C-704.89443806 305.25795931 -701.71086154 301.75796917 -698.60766602 298.09008789 C-696.9019662 296.21558855 -695.12564148 294.61184139 -693.19140625 292.9765625 C-688.87909448 289.24953185 -684.87995589 285.27037251 -680.890625 281.203125 C-676.33467706 276.5581937 -671.71479221 272.09327296 -666.78369141 267.84667969 C-663.9802404 265.41273176 -661.28539154 262.86781717 -658.578125 260.328125 C-653.70476951 255.78963976 -648.68758523 251.50963703 -643.4921875 247.33984375 C-640.94075771 245.24430006 -638.50735727 243.06349345 -636.078125 240.828125 C-631.70825181 236.85050815 -627.15452964 233.19435906 -622.48950195 229.57519531 C-617.85669007 225.97846561 -613.30311 222.29415012 -608.765625 218.578125 C-602.26691826 213.27614261 -595.67071289 208.14242975 -588.890625 203.203125 C-587.90521729 202.48455322 -587.90521729 202.48455322 -586.89990234 201.75146484 C-571.10958127 190.25685569 -555.23002877 178.90681209 -538.890625 168.203125 C-538.2419043 167.77708984 -537.59318359 167.35105469 -536.92480469 166.91210938 C-509.04088786 148.62979383 -480.33341115 131.84775253 -450.890625 116.203125 C-449.89240723 115.66977539 -448.89418945 115.13642578 -447.86572266 114.58691406 C-431.48183795 105.85059123 -414.8366818 97.78791668 -397.890625 90.203125 C-396.85424896 89.73876038 -396.85424896 89.73876038 -395.79693604 89.26501465 C-317.77646074 54.36512507 -235.85698962 29.01262032 0 0 Z " fill="#97D3E1" transform="translate(998.890625,-0.203125)"/>
<path d="M0 0 C1.10984253 -0.00099701 2.21968506 -0.00199402 3.36315918 -0.00302124 C89.17623606 0.00570831 179.82911705 19.55440127 248.25 74.1875 C249.26320313 74.98929688 250.27640625 75.79109375 251.3203125 76.6171875 C253.99634671 78.77143231 256.63271013 80.96239079 259.25 83.1875 C259.98476562 83.81011719 260.71953125 84.43273437 261.4765625 85.07421875 C274.32031791 96.30698766 287.01716218 108.50405408 297.25 122.1875 C298.08835507 123.27358156 298.92690955 124.35950921 299.765625 125.4453125 C340.37690316 178.71684618 358.29176692 245.59091155 350.01928711 312.07397461 C349.21039282 317.80012474 348.2634616 323.49441821 347.25 329.1875 C347.10578613 330.06035645 346.96157227 330.93321289 346.81298828 331.83251953 C343.28300571 353.05092385 335.74348358 373.93078216 326.25 393.1875 C325.87262695 393.9599707 325.49525391 394.73244141 325.10644531 395.52832031 C314.3524947 417.32686884 300.06454079 436.68029017 283.25 454.1875 C282.7638623 454.69555176 282.27772461 455.20360352 281.77685547 455.72705078 C275.00283779 462.76576469 267.9599736 469.16709066 260.25 475.1875 C259.28964844 475.96480469 258.32929687 476.74210937 257.33984375 477.54296875 C238.61779693 492.43066464 201.00110127 521.1875 176.25 521.1875 C176.25 522.5075 176.25 523.8275 176.25 525.1875 C177.07177734 525.22617188 177.07177734 525.22617188 177.91015625 525.265625 C201.87160003 526.97993968 226.93505642 537.6731745 248.25 548.1875 C248.97832031 548.54279785 249.70664063 548.8980957 250.45703125 549.26416016 C272.24406285 559.99574531 291.76150709 574.4020347 309.25 591.1875 C310.09328857 591.98994141 310.09328857 591.98994141 310.95361328 592.80859375 C319.55704998 601.0344576 327.17093441 609.62535759 334.25 619.1875 C334.66701172 619.73841309 335.08402344 620.28932617 335.51367188 620.85693359 C362.75406667 656.86227601 379.22640613 701.48106481 384.25 746.1875 C384.35151367 747.00814941 384.45302734 747.82879883 384.55761719 748.67431641 C389.94485897 793.29325423 387.46151719 840.97387927 373.07275391 883.74023438 C372.18623794 886.37715901 371.33427728 889.02419214 370.48046875 891.671875 C361.34750419 919.44755678 348.27762205 946.37023257 331.25 970.1875 C330.72148438 970.9309668 330.19296875 971.67443359 329.6484375 972.44042969 C322.00811548 983.13775269 314.04305784 993.41450178 305.25 1003.1875 C304.76321777 1003.73067871 304.27643555 1004.27385742 303.77490234 1004.83349609 C298.17122956 1011.06123523 292.40569068 1017.12062566 286.5 1023.0625 C285.993479 1023.57369385 285.48695801 1024.0848877 284.96508789 1024.61157227 C237.36675707 1072.01007156 174.86978199 1102.04535199 111.25 1121.1875 C110.31494629 1121.47318848 109.37989258 1121.75887695 108.41650391 1122.05322266 C92.28813957 1126.93142802 75.82427431 1129.9132983 59.25341797 1132.83035278 C57.205587 1133.19541746 55.16035151 1133.572927 53.11523438 1133.95288086 C-25.54198805 1148.44706945 -111.85107187 1142.28005382 -329.75 1071.1875 C-330.66040039 1070.67461426 -331.57080078 1070.16172852 -332.50878906 1069.63330078 C-335.19801346 1068.11771927 -337.88159629 1066.59274474 -340.5625 1065.0625 C-341.37614014 1064.60077393 -342.18978027 1064.13904785 -343.02807617 1063.66333008 C-343.76775635 1063.23560303 -344.50743652 1062.80787598 -345.26953125 1062.3671875 C-345.92026611 1061.99319824 -346.57100098 1061.61920898 -347.24145508 1061.23388672 C-348.75 1060.1875 -348.75 1060.1875 -349.75 1058.1875 C-348.79862976 1055.79701233 -348.79862976 1055.79701233 -347.26831055 1052.75415039 C-346.41567879 1051.04449852 -346.41567879 1051.04449852 -345.54582214 1049.30030823 C-344.90966754 1048.04514949 -344.2732936 1046.7901019 -343.63671875 1045.53515625 C-342.98599515 1044.23863949 -342.33592531 1042.94179443 -341.68647766 1041.64463806 C-340.31490782 1038.90916628 -338.93820431 1036.17636485 -337.55737305 1033.44555664 C-335.8171561 1030.00400302 -334.08510057 1026.55843648 -332.35641956 1023.11107635 C-320.87718883 1000.22117247 -320.87718883 1000.22117247 -314.8671875 988.94140625 C-310.23730436 980.24270854 -305.83348105 971.43366452 -301.43359375 962.6171875 C-301.06077711 961.87014242 -300.68796047 961.12309734 -300.30384636 960.35341454 C-297.59556001 954.92452225 -294.89116729 949.49369377 -292.1875 944.0625 C-289.4740641 938.61172252 -286.75918044 933.16167518 -284.0408802 927.71332169 C-282.97537172 925.575991 -281.91234299 923.43744078 -280.84947205 921.29879761 C-275.9731853 911.51019709 -270.90441602 901.8323388 -265.75 892.1875 C-262.71312156 893.3761458 -259.98393898 894.53727469 -257.28125 896.3671875 C-256.63857178 896.79539795 -255.99589355 897.2236084 -255.33374023 897.66479492 C-254.30228882 898.35665894 -254.30228882 898.35665894 -253.25 899.0625 C-238.37320481 908.85016631 -222.84017945 917.56161522 -206.75 925.1875 C-205.96141602 925.56583984 -205.17283203 925.94417969 -204.36035156 926.33398438 C-183.9537067 936.07833383 -162.69743534 944.59996486 -140.75 950.1875 C-139.37038086 950.54255615 -139.37038086 950.54255615 -137.96289062 950.90478516 C-121.05954124 955.19033247 -104.07168665 958.1827759 -86.75 960.1875 C-85.85796875 960.2920752 -84.9659375 960.39665039 -84.046875 960.50439453 C-73.56980672 961.55322712 -63.01849042 961.43035521 -52.5 961.4375 C-51.47321136 961.43850708 -50.44642273 961.43951416 -49.38851929 961.44055176 C-34.29743635 961.43053376 -19.61634187 961.01904298 -4.75 958.1875 C-3.48397949 957.95474365 -3.48397949 957.95474365 -2.19238281 957.71728516 C3.32499945 956.68474948 8.79033747 955.48869408 14.25 954.1875 C16.09851562 953.76017578 16.09851562 953.76017578 17.984375 953.32421875 C35.1426972 949.07210178 51.77646189 942.7282144 67.25 934.1875 C67.94432129 933.80867676 68.63864258 933.42985352 69.35400391 933.03955078 C88.94611513 922.25615879 106.75187537 908.13661913 120.25 890.1875 C120.6531543 889.65930664 121.05630859 889.13111328 121.47167969 888.58691406 C139.82165751 864.42587486 151.28907805 834.53181789 151.453125 804.0078125 C151.45882507 803.15557098 151.46452515 802.30332947 151.47039795 801.42526245 C151.47978485 799.62857274 151.48635658 797.8318663 151.49023438 796.03515625 C151.49985172 793.35384016 151.53089916 790.6733216 151.5625 787.9921875 C151.65808614 772.54520085 149.99202079 757.47318736 145.5625 742.625 C145.30758789 741.75915283 145.05267578 740.89330566 144.79003906 740.0012207 C138.43777008 719.22732791 127.88253524 701.17529176 113.25 685.1875 C112.47269531 684.32769531 111.69539063 683.46789063 110.89453125 682.58203125 C73.73946723 643.43540601 13.7433647 630.98994412 -38.18127823 629.05996323 C-46.55996992 628.85669418 -54.94018561 628.81458768 -63.32093811 628.78230286 C-66.55165173 628.76808874 -69.78228236 628.74352851 -73.01293945 628.7199707 C-82.38356437 628.65739324 -91.75429098 628.61086998 -101.125 628.5625 C-122.12125 628.43875 -143.1175 628.315 -164.75 628.1875 C-164.75 569.1175 -164.75 510.0475 -164.75 449.1875 C-98.8125 448.8125 -98.8125 448.8125 -78.08227539 448.70947266 C-71.88743507 448.66951158 -71.88743507 448.66951158 -65.69261169 448.62704468 C-62.95831735 448.60949391 -60.22416977 448.59491052 -57.48985291 448.58480835 C-35.54769033 448.50670993 -35.54769033 448.50670993 -13.75 446.1875 C-12.65173386 446.02790298 -11.55346771 445.86830597 -10.42192078 445.70387268 C1.81979022 443.90791487 13.6329721 441.48596387 25.25 437.1875 C26.0347168 436.89858887 26.81943359 436.60967773 27.62792969 436.31201172 C62.60065576 423.25652099 91.4380405 402.42547568 108.25585938 368.13671875 C112.172065 359.5089633 115.05745484 350.39618965 117.25 341.1875 C117.42877686 340.45241211 117.60755371 339.71732422 117.79174805 338.95996094 C119.54565803 330.78806855 119.58826537 322.69224198 119.56567383 314.37353516 C119.56252357 311.95559119 119.58601478 309.53888658 119.61132812 307.12109375 C119.74546693 274.34497703 106.08715621 245.31785793 83.25 222.1875 C65.45784371 204.36631899 42.30699298 193.710746 18.25 187.1875 C17.18394531 186.89488281 16.11789062 186.60226562 15.01953125 186.30078125 C11.77695735 185.49120864 8.52919762 184.83589755 5.25 184.1875 C4.46704056 184.02958481 3.68408112 183.87166962 2.87739563 183.70896912 C-12.13976401 180.74239213 -26.64399528 179.57777564 -41.94116211 179.72094727 C-45.31479032 179.75001974 -48.68684509 179.74146415 -52.06054688 179.72851562 C-71.72580907 179.74603288 -90.83867879 181.86379907 -110 186.3125 C-110.63966705 186.45923157 -111.27933411 186.60596313 -111.93838501 186.75714111 C-133.0705992 191.63731641 -153.24653411 198.72004902 -172.75 208.1875 C-173.45125 208.52104492 -174.1525 208.85458984 -174.875 209.19824219 C-200.80621576 221.53767014 -224.74655295 237.58750909 -245.75 257.1875 C-248.1273846 255.01930674 -249.52342519 252.98744238 -250.91967773 250.09692383 C-251.32160339 249.27282516 -251.72352905 248.4487265 -252.13763428 247.59965515 C-252.5653009 246.70696426 -252.99296753 245.81427338 -253.43359375 244.89453125 C-253.88534973 243.9645784 -254.33710571 243.03462555 -254.80255127 242.07649231 C-256.26974783 239.05364817 -257.72855069 236.02683191 -259.1875 233 C-260.69420814 229.89121975 -262.20312042 226.78351623 -263.7122345 223.67590332 C-264.70347073 221.63448848 -265.69402431 219.59274201 -266.68388367 217.55065918 C-270.212235 210.27556566 -273.7946091 203.03101876 -277.4375 195.8125 C-281.51217647 187.72224161 -285.44591099 179.5738787 -289.3269043 171.38916016 C-293.68701372 162.23579225 -298.23615972 153.18047188 -302.78808594 144.12158203 C-308.55401796 132.64154046 -314.16755815 121.09680671 -319.64648438 109.4765625 C-320.7386381 107.21106841 -321.88823698 104.98205222 -323.046875 102.75 C-324.75 99.1875 -324.75 99.1875 -324.75 96.1875 C-323.35498047 94.95166016 -323.35498047 94.95166016 -321.3671875 93.7265625 C-320.623479 93.2617749 -319.87977051 92.7969873 -319.11352539 92.31811523 C-317.88170532 91.57283569 -317.88170532 91.57283569 -316.625 90.8125 C-315.77478271 90.28793213 -314.92456543 89.76336426 -314.04858398 89.22290039 C-311.29098764 87.52983301 -308.522349 85.85628794 -305.75 84.1875 C-304.84685059 83.64174316 -303.94370117 83.09598633 -303.01318359 82.53369141 C-296.6292728 78.68684371 -290.20403112 74.91537097 -283.75 71.1875 C-282.9348291 70.7145752 -282.1196582 70.24165039 -281.27978516 69.75439453 C-266.55686824 61.26422934 -251.25615373 54.12258673 -235.75 47.1875 C-234.68539551 46.70780762 -233.62079102 46.22811523 -232.52392578 45.73388672 C-206.06895118 33.88992365 -178.65999363 24.5991646 -150.47949219 17.84863281 C-148.125978 17.27856873 -145.78466241 16.67979063 -143.4453125 16.0546875 C-124.14634561 10.95911828 -104.50003994 7.78251523 -84.68701172 5.53466797 C-81.78741807 5.19192298 -78.89633423 4.80858537 -76.00390625 4.41015625 C-50.66628841 0.9456773 -25.54111304 0.00608272 0 0 Z " fill="#25303B" transform="translate(1323.75,450.8125)"/>
<path d="M0 0 C0 358.05 0 716.1 0 1085 C-75.9 1085 -151.8 1085 -230 1085 C-230.495 663.26 -230.495 663.26 -231 233 C-234.63 235.97 -238.26 238.94 -242 242 C-245.89233382 244.70417532 -249.78364126 247.34950073 -253.75 249.9375 C-255.87771516 251.3383731 -258.0053197 252.73941423 -260.1328125 254.140625 C-261.14762695 254.80642578 -262.16244141 255.47222656 -263.20800781 256.15820312 C-265.52442093 257.68627417 -267.82647509 259.23071598 -270.1171875 260.796875 C-318.04255073 293.53499098 -372.09244027 319.66820536 -424.50146484 344.45947266 C-430.03340833 347.08166512 -435.53910008 349.75165312 -441.02519226 352.46821594 C-444.4159694 354.14719479 -447.81015309 355.81923674 -451.20419312 357.49160767 C-452.89671966 358.32822353 -454.58751234 359.16835658 -456.27651978 360.01205444 C-458.65400545 361.19925683 -461.03720594 362.37418424 -463.421875 363.546875 C-464.1426976 363.91083878 -464.8635202 364.27480255 -465.60618591 364.64979553 C-470.65870538 367.11376487 -470.65870538 367.11376487 -474 366 C-475.40939372 363.40039632 -476.63349411 360.85809886 -477.81640625 358.15625 C-478.18471558 357.33744354 -478.5530249 356.51863708 -478.93249512 355.67501831 C-480.1528567 352.95451501 -481.35770602 350.22742916 -482.5625 347.5 C-483.41578478 345.58899783 -484.26988165 343.67835808 -485.12475586 341.76806641 C-491.58736571 327.29857708 -497.95017895 312.78421656 -504.29711914 298.26367188 C-509.45360971 286.47343081 -514.7007038 274.72668539 -520 263 C-529.15740557 242.73552651 -538.09887632 222.37813524 -547 202 C-543.91986167 199.48593867 -540.86334275 197.93550491 -537.20703125 196.390625 C-536.03648193 195.89119385 -534.86593262 195.3917627 -533.65991211 194.87719727 C-533.03486786 194.61303009 -532.40982361 194.34886292 -531.76583862 194.07669067 C-528.37676507 192.64236922 -524.99706602 191.18629766 -521.6171875 189.73046875 C-520.91031296 189.42620468 -520.20343842 189.12194061 -519.47514343 188.80845642 C-497.55289345 179.34824329 -475.96674765 169.16961007 -454.50976562 158.70410156 C-450.96635427 156.98366394 -447.41459799 155.28181973 -443.859375 153.5859375 C-432.40848672 148.12110198 -421.03891751 142.56900484 -409.8515625 136.58203125 C-406.27977742 134.67086524 -402.68868933 132.80135389 -399.0859375 130.94921875 C-385.74038345 124.0848713 -372.61466192 116.9206028 -359.58837891 109.46972656 C-356.53172048 107.73410274 -353.45400479 106.03966881 -350.37133789 104.35083008 C-338.47666562 97.82785696 -326.8419965 90.86273696 -315.19726562 83.90722656 C-312.36974809 82.2205614 -309.53769426 80.54196187 -306.703125 78.8671875 C-270.44491364 57.38406137 -235.06096111 33.78793735 -201.26220703 8.61523438 C-200.52856934 8.06931641 -199.79493164 7.52339844 -199.0390625 6.9609375 C-198.40178223 6.48446777 -197.76450195 6.00799805 -197.10791016 5.51708984 C-143.75981623 -32.87821426 -65.72836909 0 0 0 Z " fill="#25303B" transform="translate(822,480)"/>
</svg>
