<?xml version="1.0" encoding="UTF-8"?>
<svg version="1.1" xmlns="http://www.w3.org/2000/svg" width="2048" height="2048">
<path d="M0 0 C1.86296614 -0.0070215 3.72593204 -0.01410832 5.58889771 -0.02125549 C11.51239364 -0.04066359 17.43585048 -0.04568967 23.359375 -0.046875 C24.36816963 -0.04731686 25.37696426 -0.04775871 26.41632843 -0.04821396 C56.74547781 -0.05518299 86.90361524 0.18549341 117.109375 3.203125 C118.00553528 3.29033813 118.90169556 3.37755127 119.82501221 3.46740723 C159.23752608 7.30937472 198.35183658 13.07659996 237.109375 21.203125 C238.39473145 21.47205566 239.68008789 21.74098633 241.00439453 22.01806641 C275.43270999 29.31806586 309.47492637 38.41490108 342.88598633 49.46807861 C345.17230278 50.22392876 347.46011145 50.97514036 349.74804688 51.72607422 C372.90155974 59.34596822 395.61706099 67.81206395 418.109375 77.203125 C418.74796448 77.46891357 419.38655396 77.73470215 420.04449463 78.00854492 C491.25180271 107.67307615 558.21539269 145.59986769 621.109375 190.203125 C621.88313477 190.7511377 622.65689453 191.29915039 623.45410156 191.86376953 C639.91720002 203.55235864 655.75741578 215.98226691 671.36962891 228.77929688 C672.92885827 230.05538804 674.493386 231.32499881 676.05859375 232.59375 C686.52971322 241.09293602 696.74212934 249.87165181 706.6796875 258.98828125 C708.71452915 260.84319317 710.77258747 262.65741298 712.859375 264.453125 C722.49087027 272.84375278 731.70254006 281.69926236 740.6730957 290.78833008 C744.05454069 294.19931194 747.55453083 297.38288846 751.22241211 300.48608398 C753.09691145 302.1917838 754.70065861 303.96810852 756.3359375 305.90234375 C760.06296815 310.21465552 764.04212749 314.21379411 768.109375 318.203125 C772.7543063 322.75907294 777.21922704 327.37895779 781.46582031 332.31005859 C783.89976824 335.1135096 786.44468283 337.80835846 788.984375 340.515625 C793.52286024 345.38898049 797.80286297 350.40616477 801.97265625 355.6015625 C804.06819994 358.15299229 806.24900655 360.58639273 808.484375 363.015625 C812.46199185 367.38549819 816.11814094 371.93922036 819.73730469 376.60424805 C823.33403439 381.23705993 827.01834988 385.79064 830.734375 390.328125 C836.03635739 396.82683174 841.17007025 403.42303711 846.109375 410.203125 C846.58842285 410.86006348 847.0674707 411.51700195 847.56103516 412.19384766 C859.05564431 427.98416873 870.40568791 443.86372123 881.109375 460.203125 C881.53541016 460.8518457 881.96144531 461.50056641 882.40039062 462.16894531 C900.68270617 490.05286214 917.46474747 518.76033885 933.109375 548.203125 C933.64272461 549.20134277 934.17607422 550.19956055 934.72558594 551.22802734 C943.46340269 567.61471371 951.46525219 584.28050123 959.109375 601.203125 C959.58616699 602.25467773 960.06295898 603.30623047 960.55419922 604.38964844 C985.11332735 658.73434849 1004.62236309 715.37039083 1019.109375 773.203125 C1019.2952417 773.94119385 1019.4811084 774.6792627 1019.67260742 775.43969727 C1033.38167229 829.95231291 1042.22237994 885.56913768 1046.796875 941.578125 C1046.88828262 942.69252457 1046.88828262 942.69252457 1046.98153687 943.82943726 C1048.47605402 962.28632558 1049.26918423 980.70968686 1049.3125 999.2265625 C1049.31948023 1001.09113588 1049.32652118 1002.95570904 1049.33361816 1004.82028198 C1049.35287623 1010.73956604 1049.35779318 1016.65881301 1049.359375 1022.578125 C1049.35996414 1023.58550217 1049.36055328 1024.59287933 1049.36116028 1025.63078308 C1049.37320253 1054.79175109 1049.19301366 1083.80771968 1046.33721924 1112.85516357 C1046.10441009 1115.25428899 1045.88604669 1117.65436234 1045.67138672 1120.05517578 C1041.08410278 1171.04493268 1032.34597658 1221.50822984 1020.109375 1271.203125 C1019.91408203 1271.99632141 1019.71878906 1272.78951782 1019.51757812 1273.60675049 C1013.55944643 1297.70658205 1006.60579727 1321.42389763 998.83532715 1344.99987793 C998.13660489 1347.12048294 997.4416031 1349.2422777 996.74707031 1351.36425781 C982.67406805 1394.22484942 965.06842394 1435.77207627 945.109375 1476.203125 C944.38664457 1477.67704696 943.66397627 1479.15099939 942.94140625 1480.625 C941.40752435 1483.737537 939.84745055 1486.83582721 938.27050781 1489.92675781 C937.39217662 1491.64870063 936.51709277 1493.37230038 935.64355469 1495.09667969 C927.79854293 1510.55720733 919.54538936 1525.68166071 910.66992188 1540.57421875 C909.26440783 1542.94195579 907.87695125 1545.31870083 906.5 1547.703125 C881.52718493 1590.87877318 852.19371985 1631.9271151 820.54931641 1670.44726562 C819.26571799 1672.01248092 817.98974428 1673.583942 816.71484375 1675.15625 C808.2186202 1685.62727146 799.43950678 1695.83734154 790.32421875 1705.7734375 C788.46930683 1707.80827915 786.65508702 1709.86633747 784.859375 1711.953125 C776.46874722 1721.58462027 767.61323764 1730.79629006 758.52416992 1739.7668457 C755.11318806 1743.14829069 751.92961154 1746.64828083 748.82641602 1750.31616211 C747.1207162 1752.19066145 745.34439148 1753.79440861 743.41015625 1755.4296875 C739.09784448 1759.15671815 735.09870589 1763.13587749 731.109375 1767.203125 C726.55342706 1771.8480563 721.93354221 1776.31297704 717.00244141 1780.55957031 C714.1989904 1782.99351824 711.50414154 1785.53843283 708.796875 1788.078125 C703.92351951 1792.61661024 698.90633523 1796.89661297 693.7109375 1801.06640625 C691.15950771 1803.16194994 688.72610727 1805.34275655 686.296875 1807.578125 C681.92236674 1811.55996087 677.36408425 1815.22054583 672.69287109 1818.84204102 C668.87622932 1821.80357984 665.11725783 1824.82272329 661.38964844 1827.89550781 C652.65004165 1835.09104511 643.63166013 1841.84906829 634.46777344 1848.49316406 C632.21199471 1850.1287204 629.96104915 1851.77072253 627.7109375 1853.4140625 C611.19157234 1865.44721355 594.5575427 1877.32693761 577.10351562 1887.97265625 C574.97132245 1889.28830924 572.85937183 1890.632451 570.75 1891.984375 C553.11415021 1903.28078576 535.00100583 1913.7974084 516.61962891 1923.83251953 C514.80538981 1924.82309902 512.99276489 1925.81663681 511.18115234 1926.81201172 C497.04318706 1934.57158548 482.80536522 1941.95532224 468.18408203 1948.76074219 C464.93803795 1950.28350131 461.70898322 1951.83888113 458.48046875 1953.3984375 C400.32249029 1981.29028283 338.62682139 2002.54259981 276.109375 2018.203125 C275.37130615 2018.3889917 274.6332373 2018.5748584 273.87280273 2018.76635742 C222.89096663 2031.58748681 170.85022877 2040.39918551 118.480896 2044.99023438 C116.13656116 2045.20068451 113.794168 2045.42642506 111.45166016 2045.65625 C54.18169321 2051.19090931 -6.08729434 2051.22115165 -63.33905029 2045.45959473 C-66.04062359 2045.188048 -68.74311052 2044.92717293 -71.44580078 2044.66699219 C-160.30628974 2036.01099102 -247.53699533 2016.49949328 -416.890625 1949.203125 C-418.75641336 1948.33182339 -420.62229643 1947.46072454 -422.48828125 1946.58984375 C-448.52947338 1934.37994181 -474.25601711 1920.68886129 -498.72021484 1905.54248047 C-501.48514319 1903.8362491 -504.26054295 1902.14746617 -507.03515625 1900.45703125 C-518.11237435 1893.69405605 -529.16264629 1886.91307198 -539.87451172 1879.58007812 C-542.26049212 1877.95051534 -544.65567639 1876.33487076 -547.05078125 1874.71875 C-566.13494295 1861.81353826 -584.65125078 1848.27522498 -602.890625 1834.203125 C-603.55578125 1833.69007812 -604.2209375 1833.17703125 -604.90625 1832.6484375 C-622.64219981 1818.92960453 -639.93678517 1804.57708241 -656.4609375 1789.41796875 C-658.49577915 1787.56305683 -660.55383747 1785.74883702 -662.640625 1783.953125 C-672.27212027 1775.56249722 -681.48379006 1766.70698764 -690.4543457 1757.61791992 C-693.83579069 1754.20693806 -697.33578083 1751.02336154 -701.00366211 1747.92016602 C-702.87816145 1746.2144662 -704.48190861 1744.43814148 -706.1171875 1742.50390625 C-709.84421815 1738.19159448 -713.82337749 1734.19245589 -717.890625 1730.203125 C-722.5355563 1725.64717706 -727.00047704 1721.02729221 -731.24707031 1716.09619141 C-733.68101824 1713.2927404 -736.22593283 1710.59789154 -738.765625 1707.890625 C-743.30411024 1703.01726951 -747.58411297 1698.00008523 -751.75390625 1692.8046875 C-753.84944994 1690.25325771 -756.03025655 1687.81985727 -758.265625 1685.390625 C-762.24324185 1681.02075181 -765.89939094 1676.46702964 -769.51855469 1671.80200195 C-773.11528439 1667.16919007 -776.79959988 1662.61561 -780.515625 1658.078125 C-785.81760739 1651.57941826 -790.95132025 1644.98321289 -795.890625 1638.203125 C-796.36967285 1637.54618652 -796.8487207 1636.88924805 -797.34228516 1636.21240234 C-808.83689431 1620.42208127 -820.18693791 1604.54252877 -830.890625 1588.203125 C-831.52967773 1587.23004395 -831.52967773 1587.23004395 -832.18164062 1586.23730469 C-850.2324661 1558.70645309 -866.83302715 1530.39147182 -882.24707031 1501.30224609 C-883.81572024 1498.34436698 -885.3955671 1495.3926992 -886.9765625 1492.44140625 C-894.86253009 1477.62725488 -901.9773884 1462.49234851 -908.890625 1447.203125 C-909.60798828 1445.62144531 -909.60798828 1445.62144531 -910.33984375 1444.0078125 C-934.89690076 1389.66586561 -954.40443765 1333.0325675 -968.890625 1275.203125 C-969.0764917 1274.46505615 -969.2623584 1273.7269873 -969.45385742 1272.96655273 C-980.5709885 1228.76048186 -988.50565375 1183.86843324 -993.578125 1138.578125 C-993.72343155 1137.31411362 -993.72343155 1137.31411362 -993.87167358 1136.02456665 C-997.87569006 1100.78189064 -999.40859782 1065.42413928 -999.28173828 1029.97363281 C-999.26464819 1025.16500959 -999.27485164 1020.35688516 -999.29206085 1015.54827881 C-999.39852722 980.33520233 -997.6410977 945.2003769 -993.640625 910.203125 C-993.53835602 909.28561462 -993.43608704 908.36810425 -993.33071899 907.42279053 C-985.93345701 841.41033602 -972.42373539 775.57240609 -951.62963867 712.44696045 C-950.848982 710.07668615 -950.07392909 707.70461592 -949.29882812 705.33251953 C-941.07725668 680.2552961 -931.96113245 655.59600697 -921.890625 631.203125 C-921.61881409 630.54411194 -921.34700317 629.88509888 -921.06695557 629.20611572 C-892.0151779 558.95322965 -854.66833149 492.09691279 -810.39697266 430.30664062 C-808.8418046 428.13495052 -807.29399683 425.95812262 -805.74609375 423.78125 C-794.51265771 408.04283582 -782.56990765 392.8943691 -770.31445312 377.94287109 C-769.03836196 376.38364173 -767.76875119 374.819114 -766.5 373.25390625 C-758.00081398 362.78278678 -749.22209819 352.57037066 -740.10546875 342.6328125 C-738.25055683 340.59797085 -736.43633702 338.53991253 -734.640625 336.453125 C-726.24999722 326.82162973 -717.39448764 317.60995994 -708.30541992 308.6394043 C-704.89443806 305.25795931 -701.71086154 301.75796917 -698.60766602 298.09008789 C-696.9019662 296.21558855 -695.12564148 294.61184139 -693.19140625 292.9765625 C-688.87909448 289.24953185 -684.87995589 285.27037251 -680.890625 281.203125 C-676.33467706 276.5581937 -671.71479221 272.09327296 -666.78369141 267.84667969 C-663.9802404 265.41273176 -661.28539154 262.86781717 -658.578125 260.328125 C-653.70476951 255.78963976 -648.68758523 251.50963703 -643.4921875 247.33984375 C-640.94075771 245.24430006 -638.50735727 243.06349345 -636.078125 240.828125 C-631.70825181 236.85050815 -627.15452964 233.19435906 -622.48950195 229.57519531 C-617.85669007 225.97846561 -613.30311 222.29415012 -608.765625 218.578125 C-602.26691826 213.27614261 -595.67071289 208.14242975 -588.890625 203.203125 C-587.90521729 202.48455322 -587.90521729 202.48455322 -586.89990234 201.75146484 C-571.10958127 190.25685569 -555.23002877 178.90681209 -538.890625 168.203125 C-538.2419043 167.77708984 -537.59318359 167.35105469 -536.92480469 166.91210938 C-509.04088786 148.62979383 -480.33341115 131.84775253 -450.890625 116.203125 C-449.89240723 115.66977539 -448.89418945 115.13642578 -447.86572266 114.58691406 C-431.48183795 105.85059123 -414.8366818 97.78791668 -397.890625 90.203125 C-396.85424896 89.73876038 -396.85424896 89.73876038 -395.79693604 89.26501465 C-317.77646074 54.36512507 -235.85698962 29.01262032 0 0 Z " fill="#662483" transform="translate(998.890625,-0.203125)"/>
<path d="M0 0 C93.72 0 187.44 0 284 0 C284 228.03 284 456.06 284 691 C325.91 691 367.82 691 411 691 C411 746.77 411 802.54 411 860 C369.09 860 327.18 860 284 860 C284 934.58 284 1009.16 284 1086 C212.72 1086 141.44 1086 68 1086 C68 1011.42 68 936.84 68 860 C-93.37 860 -254.74 860 -421 860 C-421 658 -421 658 -408 638 C-405.3900835 633.94093766 -402.78357446 629.88034246 -400.1875 625.8125 C-398.82684301 623.68358091 -397.46616532 621.55467504 -396.10546875 619.42578125 C-395.42661621 618.36311035 -394.74776367 617.30043945 -394.04833984 616.20556641 C-390.70186621 610.96847478 -387.35073342 605.73436677 -384 600.5 C-382.66664356 598.41668145 -381.33331025 596.33334811 -380 594.25 C-212 331.75000001 -212 331.75000001 -209.99951172 328.62426758 C-208.66776903 326.5433993 -207.33606323 324.46250742 -206.00439453 322.3815918 C-202.64702821 317.1353477 -199.28899812 311.88953061 -195.9296875 306.64453125 C-189.60686764 296.77120485 -183.29047013 286.89397507 -177 277 C-170.03370716 266.0430562 -163.03499968 255.10699399 -156.03222656 244.17333984 C-152.68695051 238.94966156 -149.34356187 233.72477559 -146 228.5 C-144.66667591 226.41666075 -143.33334257 224.33332742 -142 222.25 C-141.34 221.21875 -140.68 220.1875 -140 219.125 C-38 59.75 -38 59.75 -35.99853516 56.62280273 C-34.66997371 54.54686461 -33.34152255 52.47085589 -32.01318359 50.39477539 C-28.60775777 45.0727007 -25.20021593 39.75199948 -21.7890625 34.43359375 C-21.09167969 33.345625 -20.39429688 32.25765625 -19.67578125 31.13671875 C-18.36922306 29.09848797 -17.06200258 27.06068147 -15.75390625 25.0234375 C-10.43455071 16.72253235 -5.2264944 8.36239103 0 0 Z " fill="#FEFEFE" transform="translate(1338,481)"/>
<path d="M0 0 C0 358.38 0 716.76 0 1086 C-76.23 1086 -152.46 1086 -231 1086 C-231.495 664.26 -231.495 664.26 -232 234 C-236.29 237.3 -240.58 240.6 -245 244 C-247.52396372 245.79188226 -250.03403991 247.55188323 -252.609375 249.26171875 C-253.25563843 249.69532211 -253.90190186 250.12892548 -254.56774902 250.57566833 C-256.62466702 251.95213517 -258.68667194 253.32066388 -260.75 254.6875 C-261.82332581 255.40108673 -261.82332581 255.40108673 -262.91833496 256.12908936 C-276.03742083 264.8415676 -289.37338588 273.10041032 -303 281 C-303.88478027 281.51675293 -304.76956055 282.03350586 -305.68115234 282.56591797 C-348.69786175 307.66502996 -393.53666767 330.17930148 -438.57421875 351.42578125 C-442.82285301 353.4306734 -447.04858553 355.48060195 -451.26953125 357.54296875 C-453.14805362 358.45807188 -455.02677935 359.37275634 -456.9055481 360.28735352 C-458.70903188 361.16750636 -460.5097033 362.05341448 -462.31030273 362.93945312 C-463.94334351 363.73319336 -463.94334351 363.73319336 -465.609375 364.54296875 C-466.57842773 365.01758545 -467.54748047 365.49220215 -468.54589844 365.98120117 C-471 367 -471 367 -474 367 C-485.0496775 342.64871205 -496.03111837 318.26961843 -506.86328125 293.82080078 C-510.45600457 285.71308496 -514.05705308 277.60906524 -517.65808105 269.5050354 C-518.92796572 266.64646213 -520.19694485 263.78748816 -521.46582031 260.9284668 C-525.62419608 251.56336198 -529.80095445 242.20710461 -534.015625 232.8671875 C-534.8113456 231.10077857 -535.6070013 229.33434039 -536.40258789 227.56787109 C-537.89091867 224.26352101 -539.38583907 220.96226328 -540.88452148 217.66259766 C-541.55218004 216.18143204 -542.2195936 214.70015595 -542.88671875 213.21875 C-543.34144562 212.22510941 -543.34144562 212.22510941 -543.80535889 211.21139526 C-545.32101889 207.82972586 -546.45269919 204.67142157 -547 201 C-546.00186279 200.56880859 -545.00372559 200.13761719 -543.9753418 199.69335938 C-506.91591641 183.66990008 -470.32980583 166.91787357 -434.1229248 149.04681396 C-432.21879099 148.10788581 -430.31345291 147.17148704 -428.40722656 146.23681641 C-417.73707247 141.00199136 -407.21172662 135.56459734 -396.8034668 129.82568359 C-391.48935873 126.89585392 -386.15532186 124.00896609 -380.7890625 121.17578125 C-366.03974456 113.38530215 -351.48761876 105.3723033 -337.14013672 96.85546875 C-333.73929421 94.8459521 -330.32632705 92.85829216 -326.91015625 90.875 C-312.37794348 82.42957539 -298.00223873 73.78296809 -283.80712891 64.77783203 C-281.07879395 63.04990238 -278.34313311 61.33419359 -275.60546875 59.62109375 C-180.67227374 0 -180.67227374 0 0 0 Z " fill="#FEFEFE" transform="translate(796,481)"/>
<path d="M0 0 C0.99 0 1.98 0 3 0 C3 164.67 3 329.34 3 499 C-96.66 499 -196.32 499 -299 499 C-293.37732126 488.87917827 -293.37732126 488.87917827 -290.50390625 484.42578125 C-289.8701709 483.44005127 -289.23643555 482.45432129 -288.58349609 481.4387207 C-287.91656738 480.40706787 -287.24963867 479.37541504 -286.5625 478.3125 C-285.49131718 476.64729315 -284.42013959 474.98208287 -283.34942627 473.3165741 C-282.6238092 472.18811353 -281.89785654 471.05986868 -281.17156982 469.93183899 C-277.72017261 464.570902 -274.2947968 459.19362936 -270.875 453.8125 C-270.01926392 452.46696045 -270.01926392 452.46696045 -269.14624023 451.09423828 C-267.43049632 448.39636883 -265.71518219 445.69822661 -264 443 C-256.0085923 430.42837406 -247.99971519 417.86825428 -239.96582031 405.32373047 C-233.86476405 395.79470036 -227.78805239 386.25031629 -221.71777344 376.70166016 C-218.81326436 372.13353943 -215.90650771 367.56684923 -213 363 C-211.8333228 361.16667337 -210.66665613 359.33334004 -209.5 357.5 C-207.16666667 353.83333333 -204.83333333 350.16666667 -202.5 346.5 C-201.92266113 345.5927417 -201.34532227 344.6854834 -200.75048828 343.75073242 C-199.58223612 341.91493088 -198.41394176 340.0791562 -197.24560547 338.2434082 C-194.35285245 333.69805624 -191.4608023 329.15226033 -188.5703125 324.60546875 C-181.72072586 313.83293704 -174.8505252 303.07385175 -167.96582031 292.32373047 C-161.86476405 282.79470036 -155.78805239 273.25031629 -149.71777344 263.70166016 C-146.81326436 259.13353943 -143.90650771 254.56684923 -141 250 C-139.8333228 248.16667337 -138.66665613 246.33334004 -137.5 244.5 C-135.16666667 240.83333333 -132.83333333 237.16666667 -130.5 233.5 C-129.6339917 232.13911255 -129.6339917 232.13911255 -128.75048828 230.75073242 C-127.58223612 228.91493088 -126.41394176 227.0791562 -125.24560547 225.2434082 C-122.35285245 220.69805624 -119.4608023 216.15226033 -116.5703125 211.60546875 C-110.39533534 201.89391376 -104.20619345 192.19163935 -98 182.5 C-96.64449808 180.38153164 -95.28902909 178.26304221 -93.93359375 176.14453125 C-91.45076641 172.26424239 -88.96355017 168.38683298 -86.47265625 164.51171875 C-68.37956352 136.30352896 -51.38178702 107.51999134 -35.58496094 77.96142578 C-34.56123986 76.04865056 -33.53352337 74.13800588 -32.50097656 72.22998047 C-19.97590991 49.07492239 -8.37494844 24.99449592 0 0 Z " fill="#662483" transform="translate(1403,672)"/>
</svg>
