<?xml version="1.0" encoding="UTF-8"?>
<!DOCTYPE svg PUBLIC "-//W3C//DTD SVG 1.1//EN" "http://www.w3.org/Graphics/SVG/1.1/DTD/svg11.dtd">
<svg xmlns="http://www.w3.org/2000/svg" version="1.1" width="2048px" height="2048px" style="shape-rendering:geometricPrecision; text-rendering:geometricPrecision; image-rendering:optimizeQuality; fill-rule:evenodd; clip-rule:evenodd" xmlns:xlink="http://www.w3.org/1999/xlink">
<g><path style="opacity:0.999" fill="#0064b0" d="M 978.5,-0.5 C 1008.5,-0.5 1038.5,-0.5 1068.5,-0.5C 1331.76,14.5073 1557.43,113.341 1745.5,296C 1931.34,484.929 2032.01,712.429 2047.5,978.5C 2047.5,1008.5 2047.5,1038.5 2047.5,1068.5C 2032.49,1331.76 1933.66,1557.43 1751,1745.5C 1562.07,1931.34 1334.57,2032.01 1068.5,2047.5C 1038.5,2047.5 1008.5,2047.5 978.5,2047.5C 715.238,2032.49 489.572,1933.66 301.5,1751C 115.927,1562.34 15.2605,1335.18 -0.5,1069.5C -0.5,1038.83 -0.5,1008.17 -0.5,977.5C 15.2605,711.823 115.927,484.657 301.5,296C 489.57,113.341 715.237,14.5076 978.5,-0.5 Z"/></g>
<g><path style="opacity:1" fill="#fefefe" d="M 1400.5,1384.5 C 1400.5,1444.83 1400.5,1505.17 1400.5,1565.5C 1321.17,1565.5 1241.83,1565.5 1162.5,1565.5C 1007.17,1565.5 851.833,1565.5 696.5,1565.5C 696.333,1516.83 696.5,1468.17 697,1419.5C 708.283,1377.27 726.283,1338.27 751,1302.5C 774.944,1268.66 801.278,1236.66 830,1206.5C 855.224,1180.61 881.058,1155.44 907.5,1131C 951.5,1091.67 995.5,1052.33 1039.5,1013C 1067.47,985.72 1091.63,955.554 1112,922.5C 1138.99,876.222 1148.66,826.555 1141,773.5C 1126.9,704.403 1085.74,660.903 1017.5,643C 963.923,630.432 912.923,637.098 864.5,663C 831.566,681.662 802.566,705.329 777.5,734C 776.833,734.667 776.167,734.667 775.5,734C 737.833,684.333 700.167,634.667 662.5,585C 792.627,467.957 943.961,427.291 1116.5,463C 1176.92,476.71 1230.58,503.376 1277.5,543C 1340.78,601.071 1374.95,673.237 1380,759.5C 1385.41,851.609 1360.07,933.942 1304,1006.5C 1276.67,1040.17 1246.84,1071.67 1214.5,1101C 1170.53,1139.96 1126.87,1179.3 1083.5,1219C 1049.5,1250 1018,1283.16 989,1318.5C 977.498,1333.49 967.498,1349.49 959,1366.5C 956.454,1372.3 954.621,1378.3 953.5,1384.5C 1102.5,1384.5 1251.5,1384.5 1400.5,1384.5 Z"/></g>
<g><path style="opacity:1" fill="#71a6d2" d="M 1400.5,1384.5 C 1401.5,1445 1401.83,1505.66 1401.5,1566.5C 1321.66,1566.83 1242,1566.5 1162.5,1565.5C 1241.83,1565.5 1321.17,1565.5 1400.5,1565.5C 1400.5,1505.17 1400.5,1444.83 1400.5,1384.5 Z"/></g>
</svg>
