<?xml version="1.0" encoding="UTF-8"?>
<!DOCTYPE svg PUBLIC "-//W3C//DTD SVG 1.1//EN" "http://www.w3.org/Graphics/SVG/1.1/DTD/svg11.dtd">
<svg xmlns="http://www.w3.org/2000/svg" version="1.1" width="2048px" height="2048px" style="shape-rendering:geometricPrecision; text-rendering:geometricPrecision; image-rendering:optimizeQuality; fill-rule:evenodd; clip-rule:evenodd" xmlns:xlink="http://www.w3.org/1999/xlink">
<g><path style="opacity:0.999" fill="#9f9825" d="M 978.5,-0.5 C 1008.5,-0.5 1038.5,-0.5 1068.5,-0.5C 1331.76,14.5073 1557.43,113.341 1745.5,296C 1931.34,484.929 2032.01,712.429 2047.5,978.5C 2047.5,1008.5 2047.5,1038.5 2047.5,1068.5C 2032.49,1331.76 1933.66,1557.43 1751,1745.5C 1562.07,1931.34 1334.57,2032.01 1068.5,2047.5C 1038.5,2047.5 1008.5,2047.5 978.5,2047.5C 715.238,2032.49 489.572,1933.66 301.5,1751C 115.927,1562.34 15.2605,1335.18 -0.5,1069.5C -0.5,1038.83 -0.5,1008.17 -0.5,977.5C 15.2605,711.823 115.927,484.657 301.5,296C 489.57,113.341 715.237,14.5076 978.5,-0.5 Z"/></g>
<g><path style="opacity:1" fill="#fefefe" d="M 987.5,447.5 C 1052.95,443.965 1116.61,452.798 1178.5,474C 1244.48,498.042 1296.31,539.542 1334,598.5C 1372.97,668.236 1379.31,740.903 1353,816.5C 1333.11,869.787 1298.95,911.287 1250.5,941C 1232.63,951.603 1213.96,960.603 1194.5,968C 1193.62,969.356 1193.29,970.856 1193.5,972.5C 1294.52,992.426 1360.69,1051.43 1392,1149.5C 1423.41,1284.94 1386.91,1398.1 1282.5,1489C 1223.45,1536.01 1156.45,1566.01 1081.5,1579C 1033.15,1587.01 984.483,1589.68 935.5,1587C 838.887,1583.85 749.553,1557.01 667.5,1506.5C 695.084,1450.33 723.417,1394.66 752.5,1339.5C 823.4,1389.81 902.4,1412.98 989.5,1409C 1036.09,1405.92 1077.76,1390.26 1114.5,1362C 1156.84,1324.03 1175,1276.53 1169,1219.5C 1161.24,1158.76 1129.08,1116.93 1072.5,1094C 1044.77,1083.61 1016.11,1077.94 986.5,1077C 941.835,1076.5 897.168,1076.33 852.5,1076.5C 852.5,1016.5 852.5,956.5 852.5,896.5C 896.168,896.667 939.835,896.5 983.5,896C 1021.52,894.504 1056.19,883.171 1087.5,862C 1125.56,831.001 1142.06,790.834 1137,741.5C 1128.36,692.409 1100.86,658.576 1054.5,640C 999.081,621.393 943.414,620.726 887.5,638C 843.646,651.583 804.646,673.416 770.5,703.5C 743.836,651.005 717.836,598.172 692.5,545C 764.134,495.11 843.468,464.443 930.5,453C 949.616,450.77 968.616,448.937 987.5,447.5 Z"/></g>
</svg>
