<?xml version="1.0" encoding="UTF-8"?>
<!DOCTYPE svg PUBLIC "-//W3C//DTD SVG 1.1//EN" "http://www.w3.org/Graphics/SVG/1.1/DTD/svg11.dtd">
<svg xmlns="http://www.w3.org/2000/svg" version="1.1" width="768px" height="768px" style="shape-rendering:geometricPrecision; text-rendering:geometricPrecision; image-rendering:optimizeQuality; fill-rule:evenodd; clip-rule:evenodd" xmlns:xlink="http://www.w3.org/1999/xlink">
<g><path style="opacity:0.999" fill="#97d3e1" d="M 355.5,-0.5 C 374.167,-0.5 392.833,-0.5 411.5,-0.5C 531.301,11.135 626.801,65.135 698,161.5C 738.527,219.912 761.694,284.579 767.5,355.5C 767.5,374.167 767.5,392.833 767.5,411.5C 754.292,542.142 692.626,642.642 582.5,713C 529.617,744.351 472.617,762.518 411.5,767.5C 392.833,767.5 374.167,767.5 355.5,767.5C 224.858,754.292 124.358,692.626 54,582.5C 22.6491,529.617 4.48245,472.617 -0.5,411.5C -0.5,392.833 -0.5,374.167 -0.5,355.5C 11.1357,235.697 65.1357,140.197 161.5,69C 219.912,28.473 284.579,5.30638 355.5,-0.5 Z"/></g>
<g><path style="opacity:1" fill="#25303b" d="M 225.5,166.5 C 262.621,162.052 297.621,168.552 330.5,186C 375.647,215.496 389.814,255.996 373,307.5C 361.375,333.956 341.875,351.956 314.5,361.5C 365.213,374.749 391.546,407.583 393.5,460C 390.543,516.918 362.876,556.585 310.5,579C 272.659,593.611 233.659,597.611 193.5,591C 166.09,586.92 140.757,577.42 117.5,562.5C 128.167,541.833 138.833,521.167 149.5,500.5C 186.104,526.601 225.771,532.768 268.5,519C 300.15,502.852 311.65,477.352 303,442.5C 293.992,420.842 277.825,408.008 254.5,404C 231.897,401.741 209.231,400.908 186.5,401.5C 186.5,379.167 186.5,356.833 186.5,334.5C 203.503,334.667 220.503,334.5 237.5,334C 251.379,333.035 264.046,328.702 275.5,321C 290.577,307.903 296.41,291.403 293,271.5C 286.582,252.084 273.415,239.917 253.5,235C 217.222,228.208 185.222,236.875 157.5,261C 156.668,261.688 156.002,261.521 155.5,260.5C 145.818,241.136 136.151,221.802 126.5,202.5C 156.331,181.779 189.331,169.779 225.5,166.5 Z"/></g>
<g><path style="opacity:1" fill="#26313c" d="M 578.5,282.5 C 598.598,282.063 605.098,291.063 598,309.5C 592,314.233 585.166,315.733 577.5,314C 568.518,309.527 565.351,302.36 568,292.5C 570.354,287.916 573.854,284.583 578.5,282.5 Z"/></g>
<g><path style="opacity:1" fill="#496370" d="M 467.5,284.5 C 467.5,284.833 467.5,285.167 467.5,285.5C 457.5,285.5 447.5,285.5 437.5,285.5C 437.5,339.5 437.5,393.5 437.5,447.5C 447.167,447.5 456.833,447.5 466.5,447.5C 456.681,448.494 446.681,448.827 436.5,448.5C 436.5,393.833 436.5,339.167 436.5,284.5C 446.833,284.5 457.167,284.5 467.5,284.5 Z"/></g>
<g><path style="opacity:1" fill="#25303b" d="M 467.5,285.5 C 467.333,305.503 467.5,325.503 468,345.5C 468.717,344.956 469.217,344.289 469.5,343.5C 482.197,325.777 498.53,321.611 518.5,331C 532.719,341.923 540.886,356.423 543,374.5C 545.476,395.394 541.143,414.728 530,432.5C 517.194,448.437 500.694,454.271 480.5,450C 475.468,448.402 470.968,445.902 467,442.5C 466.506,444.134 466.34,445.801 466.5,447.5C 456.833,447.5 447.167,447.5 437.5,447.5C 437.5,393.5 437.5,339.5 437.5,285.5C 447.5,285.5 457.5,285.5 467.5,285.5 Z"/></g>
<g><path style="opacity:1" fill="#668d99" d="M 467.5,284.5 C 468.167,304.167 468.833,323.833 469.5,343.5C 469.217,344.289 468.717,344.956 468,345.5C 467.5,325.503 467.333,305.503 467.5,285.5C 467.5,285.167 467.5,284.833 467.5,284.5 Z"/></g>
<g><path style="opacity:1" fill="#25313c" d="M 664.5,326.5 C 679.272,325.37 693.272,328.037 706.5,334.5C 703.162,341.842 699.829,349.175 696.5,356.5C 684.957,349.29 672.957,348.124 660.5,353C 654.649,360.086 655.649,366.086 663.5,371C 673.996,374.943 684.329,379.277 694.5,384C 706.913,392.669 711.747,404.502 709,419.5C 704.442,437.386 692.942,447.552 674.5,450C 658.01,453.568 642.343,451.401 627.5,443.5C 626.386,442.277 626.219,440.944 627,439.5C 629.249,432.724 632.249,426.39 636,420.5C 646.21,427.177 657.376,429.677 669.5,428C 681.178,424.452 683.512,417.786 676.5,408C 665.084,403.194 653.75,398.194 642.5,393C 630.743,384.078 626.243,372.244 629,357.5C 635.164,340.492 646.998,330.159 664.5,326.5 Z"/></g>
<g><path style="opacity:1" fill="#415864" d="M 599.5,330.5 C 589.5,330.5 579.5,330.5 569.5,330.5C 569.5,369.5 569.5,408.5 569.5,447.5C 568.501,408.337 568.168,369.004 568.5,329.5C 579.014,329.172 589.347,329.506 599.5,330.5 Z"/></g>
<g><path style="opacity:1" fill="#24303a" d="M 599.5,330.5 C 599.5,369.5 599.5,408.5 599.5,447.5C 589.5,447.5 579.5,447.5 569.5,447.5C 569.5,408.5 569.5,369.5 569.5,330.5C 579.5,330.5 589.5,330.5 599.5,330.5 Z"/></g>
<g><path style="opacity:1" fill="#96d2e0" d="M 481.5,353.5 C 497.464,352.283 506.964,359.616 510,375.5C 513.241,391.571 511.241,406.904 504,421.5C 495.985,429.585 486.485,431.752 475.5,428C 471.687,425.876 469.187,422.709 468,418.5C 467.333,401.5 467.333,384.5 468,367.5C 470.687,360.981 475.187,356.314 481.5,353.5 Z"/></g>
</svg>
