<?xml version="1.0" encoding="UTF-8"?>
<svg version="1.1" xmlns="http://www.w3.org/2000/svg" width="2048" height="2048">
<path d="M0 0 C1.86296614 -0.0070215 3.72593204 -0.01410832 5.58889771 -0.02125549 C11.51239364 -0.04066359 17.43585048 -0.04568967 23.359375 -0.046875 C24.36816963 -0.04731686 25.37696426 -0.04775871 26.41632843 -0.04821396 C56.74547781 -0.05518299 86.90361524 0.18549341 117.109375 3.203125 C118.00553528 3.29033813 118.90169556 3.37755127 119.82501221 3.46740723 C159.23752608 7.30937472 198.35183658 13.07659996 237.109375 21.203125 C238.39473145 21.47205566 239.68008789 21.74098633 241.00439453 22.01806641 C275.43270999 29.31806586 309.47492637 38.41490108 342.88598633 49.46807861 C345.17230278 50.22392876 347.46011145 50.97514036 349.74804688 51.72607422 C372.90155974 59.34596822 395.61706099 67.81206395 418.109375 77.203125 C418.74796448 77.46891357 419.38655396 77.73470215 420.04449463 78.00854492 C491.25180271 107.67307615 558.21539269 145.59986769 621.109375 190.203125 C621.88313477 190.7511377 622.65689453 191.29915039 623.45410156 191.86376953 C639.91720002 203.55235864 655.75741578 215.98226691 671.36962891 228.77929688 C672.92885827 230.05538804 674.493386 231.32499881 676.05859375 232.59375 C686.52971322 241.09293602 696.74212934 249.87165181 706.6796875 258.98828125 C708.71452915 260.84319317 710.77258747 262.65741298 712.859375 264.453125 C722.49087027 272.84375278 731.70254006 281.69926236 740.6730957 290.78833008 C744.05454069 294.19931194 747.55453083 297.38288846 751.22241211 300.48608398 C753.09691145 302.1917838 754.70065861 303.96810852 756.3359375 305.90234375 C760.06296815 310.21465552 764.04212749 314.21379411 768.109375 318.203125 C772.7543063 322.75907294 777.21922704 327.37895779 781.46582031 332.31005859 C783.89976824 335.1135096 786.44468283 337.80835846 788.984375 340.515625 C793.52286024 345.38898049 797.80286297 350.40616477 801.97265625 355.6015625 C804.06819994 358.15299229 806.24900655 360.58639273 808.484375 363.015625 C812.46199185 367.38549819 816.11814094 371.93922036 819.73730469 376.60424805 C823.33403439 381.23705993 827.01834988 385.79064 830.734375 390.328125 C836.03635739 396.82683174 841.17007025 403.42303711 846.109375 410.203125 C846.58842285 410.86006348 847.0674707 411.51700195 847.56103516 412.19384766 C859.05564431 427.98416873 870.40568791 443.86372123 881.109375 460.203125 C881.53541016 460.8518457 881.96144531 461.50056641 882.40039062 462.16894531 C900.68270617 490.05286214 917.46474747 518.76033885 933.109375 548.203125 C933.64272461 549.20134277 934.17607422 550.19956055 934.72558594 551.22802734 C943.46340269 567.61471371 951.46525219 584.28050123 959.109375 601.203125 C959.58616699 602.25467773 960.06295898 603.30623047 960.55419922 604.38964844 C985.11332735 658.73434849 1004.62236309 715.37039083 1019.109375 773.203125 C1019.2952417 773.94119385 1019.4811084 774.6792627 1019.67260742 775.43969727 C1033.38167229 829.95231291 1042.22237994 885.56913768 1046.796875 941.578125 C1046.88828262 942.69252457 1046.88828262 942.69252457 1046.98153687 943.82943726 C1048.47605402 962.28632558 1049.26918423 980.70968686 1049.3125 999.2265625 C1049.31948023 1001.09113588 1049.32652118 1002.95570904 1049.33361816 1004.82028198 C1049.35287623 1010.73956604 1049.35779318 1016.65881301 1049.359375 1022.578125 C1049.35996414 1023.58550217 1049.36055328 1024.59287933 1049.36116028 1025.63078308 C1049.37320253 1054.79175109 1049.19301366 1083.80771968 1046.33721924 1112.85516357 C1046.10441009 1115.25428899 1045.88604669 1117.65436234 1045.67138672 1120.05517578 C1041.08410278 1171.04493268 1032.34597658 1221.50822984 1020.109375 1271.203125 C1019.91408203 1271.99632141 1019.71878906 1272.78951782 1019.51757812 1273.60675049 C1013.55944643 1297.70658205 1006.60579727 1321.42389763 998.83532715 1344.99987793 C998.13660489 1347.12048294 997.4416031 1349.2422777 996.74707031 1351.36425781 C982.67406805 1394.22484942 965.06842394 1435.77207627 945.109375 1476.203125 C944.38664457 1477.67704696 943.66397627 1479.15099939 942.94140625 1480.625 C941.40752435 1483.737537 939.84745055 1486.83582721 938.27050781 1489.92675781 C937.39217662 1491.64870063 936.51709277 1493.37230038 935.64355469 1495.09667969 C927.79854293 1510.55720733 919.54538936 1525.68166071 910.66992188 1540.57421875 C909.26440783 1542.94195579 907.87695125 1545.31870083 906.5 1547.703125 C881.52718493 1590.87877318 852.19371985 1631.9271151 820.54931641 1670.44726562 C819.26571799 1672.01248092 817.98974428 1673.583942 816.71484375 1675.15625 C808.2186202 1685.62727146 799.43950678 1695.83734154 790.32421875 1705.7734375 C788.46930683 1707.80827915 786.65508702 1709.86633747 784.859375 1711.953125 C776.46874722 1721.58462027 767.61323764 1730.79629006 758.52416992 1739.7668457 C755.11318806 1743.14829069 751.92961154 1746.64828083 748.82641602 1750.31616211 C747.1207162 1752.19066145 745.34439148 1753.79440861 743.41015625 1755.4296875 C739.09784448 1759.15671815 735.09870589 1763.13587749 731.109375 1767.203125 C726.55342706 1771.8480563 721.93354221 1776.31297704 717.00244141 1780.55957031 C714.1989904 1782.99351824 711.50414154 1785.53843283 708.796875 1788.078125 C703.92351951 1792.61661024 698.90633523 1796.89661297 693.7109375 1801.06640625 C691.15950771 1803.16194994 688.72610727 1805.34275655 686.296875 1807.578125 C681.92236674 1811.55996087 677.36408425 1815.22054583 672.69287109 1818.84204102 C668.87622932 1821.80357984 665.11725783 1824.82272329 661.38964844 1827.89550781 C652.65004165 1835.09104511 643.63166013 1841.84906829 634.46777344 1848.49316406 C632.21199471 1850.1287204 629.96104915 1851.77072253 627.7109375 1853.4140625 C611.19157234 1865.44721355 594.5575427 1877.32693761 577.10351562 1887.97265625 C574.97132245 1889.28830924 572.85937183 1890.632451 570.75 1891.984375 C553.11415021 1903.28078576 535.00100583 1913.7974084 516.61962891 1923.83251953 C514.80538981 1924.82309902 512.99276489 1925.81663681 511.18115234 1926.81201172 C497.04318706 1934.57158548 482.80536522 1941.95532224 468.18408203 1948.76074219 C464.93803795 1950.28350131 461.70898322 1951.83888113 458.48046875 1953.3984375 C400.32249029 1981.29028283 338.62682139 2002.54259981 276.109375 2018.203125 C275.37130615 2018.3889917 274.6332373 2018.5748584 273.87280273 2018.76635742 C222.89096663 2031.58748681 170.85022877 2040.39918551 118.480896 2044.99023438 C116.13656116 2045.20068451 113.794168 2045.42642506 111.45166016 2045.65625 C54.18169321 2051.19090931 -6.08729434 2051.22115165 -63.33905029 2045.45959473 C-66.04062359 2045.188048 -68.74311052 2044.92717293 -71.44580078 2044.66699219 C-160.30628974 2036.01099102 -247.53699533 2016.49949328 -416.890625 1949.203125 C-418.75641336 1948.33182339 -420.62229643 1947.46072454 -422.48828125 1946.58984375 C-448.52947338 1934.37994181 -474.25601711 1920.68886129 -498.72021484 1905.54248047 C-501.48514319 1903.8362491 -504.26054295 1902.14746617 -507.03515625 1900.45703125 C-518.11237435 1893.69405605 -529.16264629 1886.91307198 -539.87451172 1879.58007812 C-542.26049212 1877.95051534 -544.65567639 1876.33487076 -547.05078125 1874.71875 C-566.13494295 1861.81353826 -584.65125078 1848.27522498 -602.890625 1834.203125 C-603.55578125 1833.69007812 -604.2209375 1833.17703125 -604.90625 1832.6484375 C-622.64219981 1818.92960453 -639.93678517 1804.57708241 -656.4609375 1789.41796875 C-658.49577915 1787.56305683 -660.55383747 1785.74883702 -662.640625 1783.953125 C-672.27212027 1775.56249722 -681.48379006 1766.70698764 -690.4543457 1757.61791992 C-693.83579069 1754.20693806 -697.33578083 1751.02336154 -701.00366211 1747.92016602 C-702.87816145 1746.2144662 -704.48190861 1744.43814148 -706.1171875 1742.50390625 C-709.84421815 1738.19159448 -713.82337749 1734.19245589 -717.890625 1730.203125 C-722.5355563 1725.64717706 -727.00047704 1721.02729221 -731.24707031 1716.09619141 C-733.68101824 1713.2927404 -736.22593283 1710.59789154 -738.765625 1707.890625 C-743.30411024 1703.01726951 -747.58411297 1698.00008523 -751.75390625 1692.8046875 C-753.84944994 1690.25325771 -756.03025655 1687.81985727 -758.265625 1685.390625 C-762.24324185 1681.02075181 -765.89939094 1676.46702964 -769.51855469 1671.80200195 C-773.11528439 1667.16919007 -776.79959988 1662.61561 -780.515625 1658.078125 C-785.81760739 1651.57941826 -790.95132025 1644.98321289 -795.890625 1638.203125 C-796.36967285 1637.54618652 -796.8487207 1636.88924805 -797.34228516 1636.21240234 C-808.83689431 1620.42208127 -820.18693791 1604.54252877 -830.890625 1588.203125 C-831.52967773 1587.23004395 -831.52967773 1587.23004395 -832.18164062 1586.23730469 C-850.2324661 1558.70645309 -866.83302715 1530.39147182 -882.24707031 1501.30224609 C-883.81572024 1498.34436698 -885.3955671 1495.3926992 -886.9765625 1492.44140625 C-894.86253009 1477.62725488 -901.9773884 1462.49234851 -908.890625 1447.203125 C-909.60798828 1445.62144531 -909.60798828 1445.62144531 -910.33984375 1444.0078125 C-934.89690076 1389.66586561 -954.40443765 1333.0325675 -968.890625 1275.203125 C-969.0764917 1274.46505615 -969.2623584 1273.7269873 -969.45385742 1272.96655273 C-980.5709885 1228.76048186 -988.50565375 1183.86843324 -993.578125 1138.578125 C-993.72343155 1137.31411362 -993.72343155 1137.31411362 -993.87167358 1136.02456665 C-997.87569006 1100.78189064 -999.40859782 1065.42413928 -999.28173828 1029.97363281 C-999.26464819 1025.16500959 -999.27485164 1020.35688516 -999.29206085 1015.54827881 C-999.39852722 980.33520233 -997.6410977 945.2003769 -993.640625 910.203125 C-993.53835602 909.28561462 -993.43608704 908.36810425 -993.33071899 907.42279053 C-985.93345701 841.41033602 -972.42373539 775.57240609 -951.62963867 712.44696045 C-950.848982 710.07668615 -950.07392909 707.70461592 -949.29882812 705.33251953 C-941.07725668 680.2552961 -931.96113245 655.59600697 -921.890625 631.203125 C-921.61881409 630.54411194 -921.34700317 629.88509888 -921.06695557 629.20611572 C-892.0151779 558.95322965 -854.66833149 492.09691279 -810.39697266 430.30664062 C-808.8418046 428.13495052 -807.29399683 425.95812262 -805.74609375 423.78125 C-794.51265771 408.04283582 -782.56990765 392.8943691 -770.31445312 377.94287109 C-769.03836196 376.38364173 -767.76875119 374.819114 -766.5 373.25390625 C-758.00081398 362.78278678 -749.22209819 352.57037066 -740.10546875 342.6328125 C-738.25055683 340.59797085 -736.43633702 338.53991253 -734.640625 336.453125 C-726.24999722 326.82162973 -717.39448764 317.60995994 -708.30541992 308.6394043 C-704.89443806 305.25795931 -701.71086154 301.75796917 -698.60766602 298.09008789 C-696.9019662 296.21558855 -695.12564148 294.61184139 -693.19140625 292.9765625 C-688.87909448 289.24953185 -684.87995589 285.27037251 -680.890625 281.203125 C-676.33467706 276.5581937 -671.71479221 272.09327296 -666.78369141 267.84667969 C-663.9802404 265.41273176 -661.28539154 262.86781717 -658.578125 260.328125 C-653.70476951 255.78963976 -648.68758523 251.50963703 -643.4921875 247.33984375 C-640.94075771 245.24430006 -638.50735727 243.06349345 -636.078125 240.828125 C-631.70825181 236.85050815 -627.15452964 233.19435906 -622.48950195 229.57519531 C-617.85669007 225.97846561 -613.30311 222.29415012 -608.765625 218.578125 C-602.26691826 213.27614261 -595.67071289 208.14242975 -588.890625 203.203125 C-587.90521729 202.48455322 -587.90521729 202.48455322 -586.89990234 201.75146484 C-571.10958127 190.25685569 -555.23002877 178.90681209 -538.890625 168.203125 C-538.2419043 167.77708984 -537.59318359 167.35105469 -536.92480469 166.91210938 C-509.04088786 148.62979383 -480.33341115 131.84775253 -450.890625 116.203125 C-449.89240723 115.66977539 -448.89418945 115.13642578 -447.86572266 114.58691406 C-431.48183795 105.85059123 -414.8366818 97.78791668 -397.890625 90.203125 C-396.85424896 89.73876038 -396.85424896 89.73876038 -395.79693604 89.26501465 C-317.77646074 54.36512507 -235.85698962 29.01262032 0 0 Z " fill="#F18D41" transform="translate(998.890625,-0.203125)"/>
<path d="M0 0 C188.1 0 376.2 0 570 0 C570 59.73 570 119.46 570 181 C441.3 181 312.6 181 180 181 C179.67 188.92 179.34 196.84 179 205 C178.06640625 214.3203125 178.06640625 214.3203125 177.53955078 218.93457031 C176.49077554 228.38089153 175.88635724 237.87336534 175.19506836 247.35107422 C174.93835616 250.86328644 174.67554914 254.37500544 174.41210938 257.88671875 C173.56021022 269.38145467 172.77872563 280.86753576 172.3447113 292.38668823 C172.17135861 296.6786695 171.76301659 300.76369218 171 305 C170.88701203 306.50189775 170.80342251 308.00639112 170.75390625 309.51171875 C170.72103516 310.35412109 170.68816406 311.19652344 170.65429688 312.06445312 C170.59487867 313.7622967 170.53745559 315.46021177 170.48242188 317.15820312 C170.24698287 323.0797162 169.71530007 328.93299818 169.06640625 334.8203125 C167.88320399 345.5905854 167.11502878 356.37913547 166.375 367.1875 C166.2398884 369.12437026 166.10447311 371.06121937 165.96875 372.99804688 C165.64235065 377.66512939 165.31999661 382.3324743 165 387 C165.59425781 386.98839844 166.18851563 386.97679687 166.80078125 386.96484375 C171.26068805 386.91629111 175.63849814 387.0056805 180.078125 387.44921875 C184.64727558 387.90565419 189.21066983 388.18724894 193.796875 388.39453125 C223.46824373 389.7611735 253.26865955 391.73134673 282.45556641 397.5 C285.1061636 398.02086193 287.76091953 398.51318332 290.41796875 399 C300.96689689 400.94527326 311.45084406 403.1152703 321.90283203 405.52636719 C323.86645699 405.96984011 325.83737488 406.38066639 327.80859375 406.7890625 C394.97718648 421.26446919 460.54953887 454.47437215 511 501 C512.39412109 502.23943359 512.39412109 502.23943359 513.81640625 503.50390625 C525.24683088 513.69896503 535.58065259 524.92144907 545 537 C545.44666016 537.56879883 545.89332031 538.13759766 546.35351562 538.72363281 C600.10006067 607.4886644 619.39695015 693.12374624 609.65917969 779.00585938 C609.04023144 783.6607594 608.25831959 788.27550077 607.38671875 792.88916016 C606.98123372 795.10243259 606.62559368 797.31939782 606.28125 799.54296875 C601.91996886 827.62507255 593.24813358 854.92428292 582 881 C581.65646484 881.80904785 581.31292969 882.6180957 580.95898438 883.45166016 C559.99706503 932.60870228 525.29945906 981.97902245 482.703125 1014.90625 C480.65885302 1016.48967454 478.69413536 1018.09887804 476.734375 1019.78125 C458.83695066 1035.00597946 438.56697853 1047.7175172 418 1059 C417.27570801 1059.40589355 416.55141602 1059.81178711 415.80517578 1060.22998047 C384.64660284 1077.65975949 350.66561316 1089.80475648 316 1098 C314.99114746 1098.24089355 313.98229492 1098.48178711 312.94287109 1098.72998047 C306.64372577 1100.22611833 300.33141818 1101.64717742 294 1103 C292.96504395 1103.22381348 292.96504395 1103.22381348 291.90917969 1103.45214844 C283.36927935 1105.27142545 274.78504787 1106.48988493 266.125 1107.5625 C265.21258545 1107.6773877 264.3001709 1107.79227539 263.36010742 1107.91064453 C259.91045911 1108.31689342 256.4576832 1108.67088401 253 1109 C252.12353821 1109.08364807 251.24707642 1109.16729614 250.34405518 1109.253479 C232.91903736 1110.86621732 215.61806193 1111.32933909 198.125 1111.25 C196.83308746 1111.24590118 195.54117493 1111.24180237 194.21011353 1111.23757935 C145.42678247 1111.05696571 96.57034808 1107.48410758 49 1096 C46.98709985 1095.53593455 44.97407929 1095.07239109 42.9609375 1094.609375 C-9.53092237 1082.26061678 -60.1181088 1061.28861798 -106 1033 C-101.34433322 1022.95770427 -96.56711045 1013.01515615 -91.36132812 1003.24584961 C-86.86375307 994.79098166 -82.49664281 986.27040785 -78.125 977.75 C-72.58443714 966.95688367 -67.02402482 956.17530968 -61.40014648 945.42529297 C-57.4748666 937.91939848 -53.57720202 930.39937428 -49.6875 922.875 C-49.21854309 921.96802368 -49.21854309 921.96802368 -48.7401123 921.04272461 C-45.48919328 914.75518687 -42.24047062 908.46651896 -38.99447632 902.17643738 C-25.44068276 875.91423425 -25.44068276 875.91423425 -19 864 C-14.5740652 865.52820013 -10.94691825 867.92221106 -7.125 870.5625 C0.41874247 875.67376285 8.11633661 880.43289879 16 885 C16.99410889 885.57935303 16.99410889 885.57935303 18.00830078 886.17041016 C45.15002464 901.90166315 73.61135067 914.15481108 104 922 C105.4240918 922.38067627 105.4240918 922.38067627 106.87695312 922.76904297 C153.12327919 935.01205365 205.01126506 937.43855485 251 923 C251.78181641 922.75942871 252.56363281 922.51885742 253.36914062 922.27099609 C279.11291357 914.21959486 302.66156025 901.77176764 323 884 C324.27230469 882.92685547 324.27230469 882.92685547 325.5703125 881.83203125 C331.81964329 876.43314456 336.95610185 870.52320397 342 864 C342.72960938 863.09765625 343.45921875 862.1953125 344.2109375 861.265625 C367.76727141 831.34494824 377.2541103 793.37025646 377.1875 755.875 C377.18623108 755.14089905 377.18496216 754.4067981 377.18365479 753.65045166 C377.1003676 728.3910307 372.67784255 705.04822411 362 682 C361.45601562 680.80246094 360.91203125 679.60492187 360.3515625 678.37109375 C338.3638265 632.17620239 295.76415748 602.26784206 248.69921875 585.44140625 C244.16255796 583.86323826 239.59268646 582.40598136 235 581 C233.76950928 580.62294922 233.76950928 580.62294922 232.51416016 580.23828125 C184.5957438 565.81792147 134.72613184 565.39156815 85.11681265 565.32305098 C77.54786675 565.31221248 69.97903263 565.28122422 62.41015625 565.24804688 C61.73252369 565.24508157 61.05489114 565.24211627 60.35672426 565.23906112 C57.62488912 565.22705414 54.89305427 565.21499627 52.16122079 565.20261753 C48.7819813 565.18738264 45.40274295 565.17308585 42.02349091 565.160923 C13.67609908 565.05873064 -14.65867565 564.58837299 -43 564 C-43.11353889 556.27030545 -42.78430713 548.65450395 -42.17163086 540.95068359 C-42.08127784 539.77132075 -41.99092482 538.59195791 -41.89783382 537.3768568 C-41.64498484 534.08780284 -41.3883323 530.79908548 -41.13011122 527.51045156 C-40.84363681 523.8494892 -40.56219008 520.18813944 -40.28005981 516.52684021 C-39.77542737 509.98696549 -39.26762345 503.44734279 -38.75784302 496.90786743 C-37.99220115 487.08573173 -37.231501 477.26321767 -36.47183549 467.44061816 C-35.18735231 450.83364441 -33.89941528 434.2269401 -32.60968459 417.62037313 C-30.81131888 394.46443359 -29.01629186 371.30823737 -27.22363281 348.15185547 C-27.16338168 347.3735773 -27.10313056 346.59529912 -27.04105364 345.79343677 C-26.29340579 336.13580707 -25.54584936 326.47817029 -24.79832957 316.82053068 C-23.64761899 301.95384699 -22.49679372 287.08717218 -21.34591602 272.22050142 C-21.2169677 270.55478437 -21.0880203 268.88906724 -20.9590738 267.22335005 C-19.11354875 243.38306901 -17.26703248 219.54286497 -15.41943467 195.70274448 C-15.05062841 190.94390861 -14.68185415 186.18507025 -14.31308651 181.42623138 C-14.13106531 179.07731853 -13.9490438 176.7284057 -13.76702223 174.37949288 C-13.64663761 172.82597771 -13.52625338 171.27246252 -13.40586957 169.71894729 C-12.75727165 161.3490375 -12.10859965 152.97913345 -11.45972252 144.6092453 C-10.78559242 135.91350469 -10.11164206 127.21775018 -9.43798828 118.52197266 C-9.38444253 117.83078571 -9.33089677 117.13959876 -9.27572842 116.42746675 C-7.84632591 97.9748715 -6.42366025 79.52177357 -5.01123047 61.06787109 C-4.86448184 59.15191292 -4.71772399 57.23595545 -4.57095623 55.31999874 C-3.98853814 47.71493076 -3.40663641 40.10982737 -2.82911921 32.50438547 C-2.61072336 29.63168113 -2.3911457 26.75906799 -2.17126775 23.88647676 C-2.02833011 22.01355346 -1.88701228 20.14050674 -1.74577904 18.26745415 C-1.66096087 17.16133341 -1.57614269 16.05521267 -1.48875427 14.91557312 C-1.41775229 13.98064876 -1.34675032 13.04572439 -1.27359676 12.08246899 C-0.91554809 8.04852529 -0.44722587 4.02503287 0 0 Z " fill="#25303B" transform="translate(780,483)"/>
</svg>
