<?xml version="1.0" encoding="UTF-8"?>
<svg version="1.1" xmlns="http://www.w3.org/2000/svg" width="1024" height="1024">
<path d="M0 0 C1.31314682 -0.00705963 2.62629364 -0.01411926 3.97923279 -0.02139282 C8.19970246 -0.04093958 12.42011431 -0.04608521 16.640625 -0.046875 C17.35990299 -0.04716957 18.07918098 -0.04746414 18.82025528 -0.04776764 C40.31556838 -0.0491905 61.56639756 0.15136694 82.890625 3.203125 C83.6036377 3.30258423 84.31665039 3.40204346 85.05126953 3.5045166 C136.49110975 10.6858371 185.45206129 25.05137528 232.890625 46.203125 C233.78507324 46.59999512 234.67952148 46.99686523 235.60107422 47.40576172 C249.18225982 53.47908559 262.03255283 60.73954473 274.890625 68.203125 C276.49606627 69.12765189 278.1015333 70.05213404 279.70703125 70.9765625 C287.9748373 75.7621866 296.03733394 80.75569895 303.890625 86.203125 C304.51372559 86.63318848 305.13682617 87.06325195 305.77880859 87.50634766 C320.83369904 97.91837798 335.4429863 108.84402302 349.28710938 120.82617188 C350.94968831 122.25384319 352.62884245 123.6597684 354.3125 125.0625 C362.4461377 131.87337401 370.00771972 139.11195829 377.41943359 146.69921875 C380.68535477 150.03776412 384.00688832 153.31860318 387.34375 156.5859375 C393.92071048 163.05171624 400.22029256 169.49972539 405.93359375 176.75 C407.75647379 179.0349674 409.66031761 181.17971699 411.640625 183.328125 C417.25958621 189.58382734 422.2443256 196.35050117 427.28857422 203.0703125 C428.73402936 204.994649 430.18859511 206.91171912 431.64453125 208.828125 C449.62310801 232.70388852 464.44184031 258.56855804 477.890625 285.203125 C478.36000488 286.13108887 478.82938477 287.05905273 479.31298828 288.01513672 C503.54487919 336.30068046 518.70988943 388.97721148 526.203125 442.390625 C526.35031982 443.43710205 526.49751465 444.4835791 526.64916992 445.56176758 C527.11333033 449.1042159 527.51715861 452.65023356 527.890625 456.203125 C527.97676056 457.00679504 528.06289612 457.81046509 528.15164185 458.63848877 C529.91657383 475.62042852 530.25467092 492.54766627 530.20868301 509.60852051 C530.20303927 511.73543371 530.20022107 513.86233894 530.19760132 515.98925781 C530.16138501 536.21291642 529.76011954 556.15055491 526.890625 576.203125 C526.64119141 578.08161133 526.64119141 578.08161133 526.38671875 579.99804688 C514.94064559 665.50445264 482.25297533 746.78704859 421.890625 828.203125 C421.06957275 829.23397217 421.06957275 829.23397217 420.23193359 830.28564453 C414.30649475 837.72511702 408.29542773 845.04341224 401.859375 852.05078125 C400.03359179 854.04682599 398.27112435 856.08288166 396.515625 858.140625 C391.91654081 863.42742272 386.87536637 868.28455276 381.890625 873.203125 C379.077322 876.0026373 376.2842065 878.82023546 373.5078125 881.65625 C367.04203376 888.23321048 360.59402461 894.53279256 353.34375 900.24609375 C351.0587826 902.06897379 348.91403301 903.97281761 346.765625 905.953125 C340.50992266 911.57208621 333.74324883 916.5568256 327.0234375 921.60107422 C325.099101 923.04652936 323.18203088 924.50109511 321.265625 925.95703125 C297.38986148 943.93560801 271.52519196 958.75434031 244.890625 972.203125 C243.96266113 972.67250488 243.03469727 973.14188477 242.07861328 973.62548828 C173.52021563 1008.03122308 96.89274008 1024.73586673 20.40399933 1024.52118301 C18.35614442 1024.51552981 16.30829784 1024.51271747 14.26043701 1024.51010132 C-6.00843906 1024.47248142 -26.00009663 1023.97644207 -46.109375 1021.203125 C-47.38022949 1021.03683594 -48.65108398 1020.87054687 -49.96044922 1020.69921875 C-102.2779648 1013.72785332 -153.5013317 999.11368654 -201.109375 976.203125 C-202.16688965 975.69555664 -203.2244043 975.18798828 -204.31396484 974.66503906 C-243.52829408 955.72407023 -280.68556664 932.18752304 -313.5703125 903.53173828 C-315.20406169 902.12138563 -316.85735824 900.73689086 -318.515625 899.35546875 C-326.65574951 892.54192487 -334.22182234 885.29904916 -341.63818359 877.70703125 C-344.90410477 874.36848588 -348.22563832 871.08764682 -351.5625 867.8203125 C-358.13946048 861.35453376 -364.43904256 854.90652461 -370.15234375 847.65625 C-371.97522379 845.3712826 -373.87906761 843.22653301 -375.859375 841.078125 C-381.47833621 834.82242266 -386.4630756 828.05574883 -391.50732422 821.3359375 C-392.95277936 819.411601 -394.40734511 817.49453088 -395.86328125 815.578125 C-413.84185801 791.70236148 -428.66059031 765.83769196 -442.109375 739.203125 C-442.81344482 737.8111792 -442.81344482 737.8111792 -443.53173828 736.39111328 C-478.32866877 667.05320171 -494.63456182 590.03995836 -494.421875 512.765625 C-494.41965233 511.33719896 -494.41747582 509.90877285 -494.41534424 508.48034668 C-494.3728565 487.92752254 -494.07595284 467.58359346 -491.109375 447.203125 C-491.0075592 446.49764526 -490.90574341 445.79216553 -490.80084229 445.06530762 C-483.31718516 393.55609631 -469.39118616 344.74600123 -448.109375 297.203125 C-447.71395508 296.31302734 -447.31853516 295.42292969 -446.91113281 294.50585938 C-440.83628963 280.91922864 -433.57163983 268.06829372 -426.109375 255.203125 C-425.20801565 253.63299483 -424.30695235 252.06269465 -423.40625 250.4921875 C-418.00955576 241.1386843 -412.25563305 232.08159251 -406.109375 223.203125 C-405.71282715 222.63029785 -405.3162793 222.0574707 -404.90771484 221.46728516 C-394.70426536 206.81157323 -383.81743903 192.68628261 -372.109375 179.203125 C-371.15804687 178.10097656 -371.15804687 178.10097656 -370.1875 176.9765625 C-368.50663039 175.04124933 -366.81117344 173.1200492 -365.109375 171.203125 C-364.42488281 170.42582031 -363.74039063 169.64851562 -363.03515625 168.84765625 C-357.6077896 162.73831683 -351.92979476 156.93681665 -346.109375 151.203125 C-343.29596502 148.40373533 -340.50290808 145.5860478 -337.7265625 142.75 C-331.27825458 136.19079597 -324.85057322 129.91266879 -317.6171875 124.21875 C-315.1894086 122.26745107 -312.93972497 120.21164239 -310.671875 118.078125 C-281.0303368 91.11844026 -244.68566026 70.16691623 -209.109375 52.203125 C-207.7174292 51.49905518 -207.7174292 51.49905518 -206.29736328 50.78076172 C-143.51312136 19.27276195 -70.44710605 0.25244786 0 0 Z " fill="#82C390" transform="translate(494.109375,-0.203125)"/>
<path d="M0 0 C-0.78549133 7.40210065 -2.24034307 14.63985148 -3.6875 21.9375 C-5.92877533 33.3377306 -8.06862524 44.75252657 -10.125 56.1875 C-12.27874286 68.15405413 -14.54032499 80.09227923 -17 92 C-22.0196694 90.94417678 -26.89003076 89.78617593 -31.75 88.125 C-37.64226527 86.2741355 -43.56104988 84.97567003 -49.625 83.8125 C-50.48319336 83.64572754 -51.34138672 83.47895508 -52.22558594 83.30712891 C-88.85144722 76.51913595 -129.26456144 79.07670536 -160.84521484 100.23632812 C-164.71688118 102.98139863 -168.36815175 105.94671927 -172 109 C-172.87011719 109.70640625 -173.74023438 110.4128125 -174.63671875 111.140625 C-209.100579 140.35645629 -224.79453113 191.48637599 -228.83227539 234.79492188 C-229.03127587 237.41118436 -229.09997719 240.00159685 -229.0625 242.625 C-229.05347656 243.46289062 -229.04445313 244.30078125 -229.03515625 245.1640625 C-229.02355469 245.76992188 -229.01195312 246.37578125 -229 247 C-228.15179688 246.3709375 -227.30359375 245.741875 -226.4296875 245.09375 C-206.80303607 230.69483738 -185.85614639 221.01825175 -162 216 C-161.2481543 215.83628906 -160.49630859 215.67257812 -159.72167969 215.50390625 C-145.90322591 212.65425494 -131.92193572 212.71420015 -117.875 212.6875 C-116.46504761 212.68198624 -116.46504761 212.68198624 -115.02661133 212.67636108 C-104.83768742 212.65558052 -94.99405771 212.78322282 -85 215 C-84.15147461 215.17152588 -83.30294922 215.34305176 -82.42871094 215.51977539 C-51.320955 221.96197881 -23.83113778 234.70449008 -1 257 C-0.22398437 257.71414063 0.55203125 258.42828125 1.3515625 259.1640625 C24.31229312 280.82665994 36.34416572 311.5794753 42 342 C42.13132324 342.68271973 42.26264648 343.36543945 42.39794922 344.06884766 C45.84410517 362.75928955 45.11977044 383.20183092 42.30322266 401.94628906 C41.99689283 404.02104468 41.73714222 406.09826386 41.48046875 408.1796875 C37.24857242 439.80356015 24.1002147 471.22607684 4 496 C3.54898926 496.5578418 3.09797852 497.11568359 2.63330078 497.69042969 C-21.90335689 527.81908553 -56.85786538 548.9918029 -95 557 C-95.72123047 557.16918945 -96.44246094 557.33837891 -97.18554688 557.51269531 C-137.67436153 566.8274065 -187.41309141 563.14560406 -226 548 C-227.09852295 547.56929199 -227.09852295 547.56929199 -228.21923828 547.12988281 C-244.61601458 540.55696057 -259.77913054 531.75894639 -273 520 C-273.825 519.29488281 -274.65 518.58976563 -275.5 517.86328125 C-299.37811456 497.08185967 -313.54145558 471.06322973 -325 442 C-325.27328125 441.32227539 -325.5465625 440.64455078 -325.828125 439.94628906 C-353.96282692 369.88306609 -350.23311341 276.75358015 -332.65478516 204.69970703 C-331.9675828 201.8663425 -331.3170123 199.0259244 -330.66796875 196.18359375 C-320.87114367 154.18296953 -303.07238524 112.03257612 -275.34130859 78.61767578 C-274.01223777 77.01475928 -272.70277127 75.39728019 -271.39453125 73.77734375 C-261.23245014 61.336676 -249.86595211 49.64946408 -237 40 C-236.11634766 39.33436035 -236.11634766 39.33436035 -235.21484375 38.65527344 C-168.71723297 -11.01642674 -79.1832943 -20.21555328 0 0 Z " fill="#25303B" transform="translate(653,237)"/>
<path d="M0 0 C0.81210937 0.41636719 1.62421875 0.83273437 2.4609375 1.26171875 C19.52936955 10.65743292 32.68141512 27.44601136 38.2890625 46.05078125 C39.30224588 49.67626875 40.18518807 53.32458488 41 57 C41.1750708 57.74975098 41.3501416 58.49950195 41.53051758 59.27197266 C44.25837554 75.12277084 43.5345884 94.95170736 38 110 C37.62617187 111.11375 37.25234375 112.2275 36.8671875 113.375 C31.97296182 127.11772641 25.26612852 137.82392524 15 148 C14.36578125 148.66773438 13.7315625 149.33546875 13.078125 150.0234375 C-1.08526547 163.87347862 -22.55042621 168.30185475 -41.56591797 168.31469727 C-60.01921615 168.0810237 -75.93145314 162.05470245 -90 150 C-90.5775 149.56558594 -91.155 149.13117188 -91.75 148.68359375 C-105.80104893 137.78752571 -113.3112263 120.60044305 -118.875 104.25 C-119.30462036 102.99219727 -119.30462036 102.99219727 -119.74291992 101.70898438 C-123.84486327 89.04662451 -124.34624907 76.74543091 -124.31567383 63.54711914 C-124.31251781 60.70354693 -124.33603014 57.86102219 -124.36132812 55.01757812 C-124.46404886 25.95837237 -124.46404886 25.95837237 -115 15 C-114.17048828 13.99066406 -114.17048828 13.99066406 -113.32421875 12.9609375 C-87.23838263 -15.97367302 -32.31238495 -17.4192173 0 0 Z " fill="#82C390" transform="translate(545,545)"/>
</svg>
