<?xml version="1.0" encoding="UTF-8"?>
<svg version="1.1" xmlns="http://www.w3.org/2000/svg" width="250" height="250">
<path d="M0 0 C1.08279739 -0.00101212 1.08279739 -0.00101212 2.18746948 -0.00204468 C12.62386462 0.0134941 22.50931645 0.34305965 32.625 3.25 C33.85089844 3.5903125 35.07679688 3.930625 36.33984375 4.28125 C68.36930162 14.06527428 95.88709752 36.21745102 111.9375 65.625 C121.6478033 84.15863123 125.85754995 103.88023199 125.875 124.6875 C125.87567474 125.40686737 125.87634949 126.12623474 125.87704468 126.86740112 C125.86149018 137.28528005 125.52678729 147.15224828 122.625 157.25 C122.2846875 158.47589844 121.944375 159.70179688 121.59375 160.96484375 C111.81157625 192.98824363 89.65938156 220.52208122 60.25 236.5625 C52.35063957 240.67640593 44.15180544 243.71690837 35.625 246.25 C34.93583496 246.46172852 34.24666992 246.67345703 33.53662109 246.89160156 C13.80009382 252.71791675 -11.60193393 252.93217889 -31.375 247.25 C-32.60089844 246.9096875 -33.82679687 246.569375 -35.08984375 246.21875 C-67.11930162 236.43472572 -94.63709752 214.28254898 -110.6875 184.875 C-120.3978033 166.34136877 -124.60754995 146.61976801 -124.625 125.8125 C-124.62567474 125.09313263 -124.62634949 124.37376526 -124.62704468 123.63259888 C-124.61149018 113.21471995 -124.27678729 103.34775172 -121.375 93.25 C-121.0346875 92.02410156 -120.694375 90.79820313 -120.34375 89.53515625 C-110.56008402 57.50687132 -88.40790429 29.98596937 -59 13.9375 C-40.54892003 4.28190456 -20.71014232 0.01726455 0 0 Z " fill="#F2A3B9" transform="translate(124.375,-0.24999999999999997)"/>
<path d="M0 0 C30.69 0 61.38 0 93 0 C93 25.2320765 93 25.2320765 86.625 35.1875 C85.32995135 37.39277258 84.03568519 39.59850485 82.7421875 41.8046875 C81.7826416 43.3839502 81.7826416 43.3839502 80.80371094 44.99511719 C78.28861152 49.18513391 76.00153726 53.47671667 73.75 57.8125 C73.35594971 58.56354004 72.96189941 59.31458008 72.5559082 60.08837891 C67.76869702 69.26427803 63.25824516 78.56720182 59 88 C58.49509033 89.11810059 58.49509033 89.11810059 57.97998047 90.25878906 C52.02754392 103.72575725 49.1014496 117.62742866 46 132 C36.1 132 26.2 132 16 132 C16 110.1085564 26.12725724 92.03706889 36.5078125 73.33984375 C40.70839542 65.75839377 44.7571085 58.09722811 48.8125 50.4375 C49.87623822 48.42900872 50.9400885 46.42057723 52.00430298 44.41233826 C52.94859875 42.62997893 53.8919407 40.84711436 54.83520508 39.06420898 C57.87053219 33.36565363 60.93896159 27.68478563 64 22 C42.88 22 21.76 22 0 22 C0 14.74 0 7.48 0 0 Z " fill="#26303B" transform="translate(80,59)"/>
</svg>
