<?xml version="1.0" encoding="UTF-8"?>
<!DOCTYPE svg PUBLIC "-//W3C//DTD SVG 1.1//EN" "http://www.w3.org/Graphics/SVG/1.1/DTD/svg11.dtd">
<svg xmlns="http://www.w3.org/2000/svg" version="1.1" width="2048px" height="2048px" style="shape-rendering:geometricPrecision; text-rendering:geometricPrecision; image-rendering:optimizeQuality; fill-rule:evenodd; clip-rule:evenodd" xmlns:xlink="http://www.w3.org/1999/xlink">
<g><path style="opacity:0.999" fill="#82c390" d="M 978.5,-0.5 C 1008.5,-0.5 1038.5,-0.5 1068.5,-0.5C 1331.76,14.5073 1557.43,113.341 1745.5,296C 1931.34,484.929 2032.01,712.429 2047.5,978.5C 2047.5,1008.5 2047.5,1038.5 2047.5,1068.5C 2032.49,1331.76 1933.66,1557.43 1751,1745.5C 1562.07,1931.34 1334.57,2032.01 1068.5,2047.5C 1038.5,2047.5 1008.5,2047.5 978.5,2047.5C 715.238,2032.49 489.572,1933.66 301.5,1751C 115.927,1562.34 15.2605,1335.18 -0.5,1069.5C -0.5,1038.83 -0.5,1008.17 -0.5,977.5C 15.2605,711.823 115.927,484.657 301.5,296C 489.57,113.341 715.237,14.5076 978.5,-0.5 Z"/></g>
<g><path style="opacity:1" fill="#25303b" d="M 855.5,663.5 C 856.043,663.44 856.376,663.107 856.5,662.5C 680.835,661.5 505.168,661.167 329.5,661.5C 329.5,601.167 329.5,540.833 329.5,480.5C 582.5,480.5 835.5,480.5 1088.5,480.5C 1088.67,540.168 1088.5,599.834 1088,659.5C 1010.15,792.844 937.15,929.178 869,1068.5C 821.316,1165.53 779.983,1265.2 745,1367.5C 726.628,1422.57 713.962,1478.9 707,1536.5C 706.5,1546.16 706.334,1555.83 706.5,1565.5C 623.833,1565.5 541.167,1565.5 458.5,1565.5C 457.576,1495.38 469.076,1427.38 493,1361.5C 517.873,1298.42 546.54,1237.09 579,1177.5C 671.446,1006.27 763.613,834.939 855.5,663.5 Z"/></g>
<g><path style="opacity:1" fill="#517563" d="M 329.5,661.5 C 505.168,661.167 680.835,661.5 856.5,662.5C 856.376,663.107 856.043,663.44 855.5,663.5C 680.167,662.833 504.833,662.167 329.5,661.5 Z"/></g>
<g><path style="opacity:1" fill="#25303b" d="M 1500.5,899.5 C 1513.56,898.565 1525.9,901.065 1537.5,907C 1552.51,918.488 1558.35,933.654 1555,952.5C 1548.2,975.433 1532.7,986.766 1508.5,986.5C 1474.69,982.856 1460.19,964.189 1465,930.5C 1471.14,913.52 1482.97,903.187 1500.5,899.5 Z"/></g>
<g><path style="opacity:1" fill="#2b3941" d="M 1117.5,905.5 C 1117.5,1050.17 1117.5,1194.83 1117.5,1339.5C 1143.83,1339.5 1170.17,1339.5 1196.5,1339.5C 1170.01,1340.5 1143.34,1340.83 1116.5,1340.5C 1116.17,1195.33 1116.5,1050.33 1117.5,905.5 Z"/></g>
<g><path style="opacity:1" fill="#25303b" d="M 1117.5,905.5 C 1144.83,905.5 1172.17,905.5 1199.5,905.5C 1199.33,959.168 1199.5,1012.83 1200,1066.5C 1234.68,1016.02 1279.84,1003.86 1335.5,1030C 1357.86,1044.7 1374.03,1064.53 1384,1089.5C 1400.26,1130.51 1404.93,1172.84 1398,1216.5C 1392.78,1250.88 1379.44,1281.55 1358,1308.5C 1324.72,1343.81 1284.22,1356.65 1236.5,1347C 1221.98,1342.66 1208.81,1335.82 1197,1326.5C 1196.5,1330.82 1196.33,1335.15 1196.5,1339.5C 1170.17,1339.5 1143.83,1339.5 1117.5,1339.5C 1117.5,1194.83 1117.5,1050.17 1117.5,905.5 Z"/></g>
<g><path style="opacity:1" fill="#25303b" d="M 1733.5,1016.5 C 1763.47,1014.94 1792.47,1019.44 1820.5,1030C 1825.78,1031.97 1830.78,1034.47 1835.5,1037.5C 1827.26,1057.65 1818.76,1077.65 1810,1097.5C 1783.48,1081.09 1754.98,1075.93 1724.5,1082C 1703.39,1091.7 1698.55,1106.53 1710,1126.5C 1716.95,1132.73 1724.78,1137.56 1733.5,1141C 1754.23,1148.02 1774.56,1156.02 1794.5,1165C 1831.87,1184.9 1848.37,1216.07 1844,1258.5C 1836.6,1301.24 1812.1,1329.08 1770.5,1342C 1718.21,1357.37 1668.21,1352.04 1620.5,1326C 1628.8,1305.91 1637.47,1286.08 1646.5,1266.5C 1671.38,1282.85 1698.72,1290.35 1728.5,1289C 1739.44,1287.77 1749.44,1284.1 1758.5,1278C 1769.03,1266.39 1770.2,1253.89 1762,1240.5C 1758.75,1236.58 1754.92,1233.41 1750.5,1231C 1730.06,1222.11 1709.39,1213.78 1688.5,1206C 1634.09,1181.83 1616.26,1141.33 1635,1084.5C 1649.95,1052.55 1674.45,1031.72 1708.5,1022C 1716.97,1020.15 1725.3,1018.32 1733.5,1016.5 Z"/></g>
<g><path style="opacity:1" fill="#25303b" d="M 1468.5,1026.5 C 1495.83,1026.5 1523.17,1026.5 1550.5,1026.5C 1550.5,1131.17 1550.5,1235.83 1550.5,1340.5C 1523.17,1340.5 1495.83,1340.5 1468.5,1340.5C 1468.5,1235.83 1468.5,1131.17 1468.5,1026.5 Z"/></g>
<g><path style="opacity:1" fill="#82c390" d="M 1241.5,1088.5 C 1271.31,1085.15 1292.14,1097.15 1304,1124.5C 1314.85,1154.99 1318.18,1186.32 1314,1218.5C 1311.43,1237.22 1305.09,1254.55 1295,1270.5C 1277.06,1290.7 1254.89,1297.2 1228.5,1290C 1211.99,1285.16 1202.16,1274.33 1199,1257.5C 1198.03,1213.8 1198.37,1170.13 1200,1126.5C 1207.65,1107.01 1221.49,1094.34 1241.5,1088.5 Z"/></g>
</svg>
