<?xml version="1.0" encoding="UTF-8"?>
<svg version="1.1" xmlns="http://www.w3.org/2000/svg" width="250" height="250">
<path d="M0 0 C1.08279739 -0.00101212 1.08279739 -0.00101212 2.18746948 -0.00204468 C12.62386462 0.0134941 22.50931645 0.34305965 32.625 3.25 C33.85089844 3.5903125 35.07679688 3.930625 36.33984375 4.28125 C68.36930162 14.06527428 95.88709752 36.21745102 111.9375 65.625 C121.6478033 84.15863123 125.85754995 103.88023199 125.875 124.6875 C125.87567474 125.40686737 125.87634949 126.12623474 125.87704468 126.86740112 C125.86149018 137.28528005 125.52678729 147.15224828 122.625 157.25 C122.2846875 158.47589844 121.944375 159.70179688 121.59375 160.96484375 C111.81157625 192.98824363 89.65938156 220.52208122 60.25 236.5625 C52.35063957 240.67640593 44.15180544 243.71690837 35.625 246.25 C34.93583496 246.46172852 34.24666992 246.67345703 33.53662109 246.89160156 C13.80009382 252.71791675 -11.60193393 252.93217889 -31.375 247.25 C-32.60089844 246.9096875 -33.82679687 246.569375 -35.08984375 246.21875 C-67.11930162 236.43472572 -94.63709752 214.28254898 -110.6875 184.875 C-120.3978033 166.34136877 -124.60754995 146.61976801 -124.625 125.8125 C-124.62567474 125.09313263 -124.62634949 124.37376526 -124.62704468 123.63259888 C-124.61149018 113.21471995 -124.27678729 103.34775172 -121.375 93.25 C-121.0346875 92.02410156 -120.694375 90.79820313 -120.34375 89.53515625 C-110.56008402 57.50687132 -88.40790429 29.98596937 -59 13.9375 C-40.54892003 4.28190456 -20.71014232 0.01726455 0 0 Z " fill="#CDACD1" transform="translate(124.375,-0.24999999999999997)"/>
<path d="M0 0 C5.81587218 4.32860715 11.33167723 10.97689362 12.875 18.1875 C14.09812703 29.84797771 12.3946241 39.90052751 4.9375 49.1875 C2.21721706 52.07735902 -0.7223583 54.16211804 -4.125 56.1875 C-3.135 56.9609375 -3.135 56.9609375 -2.125 57.75 C-1.135 58.554375 -0.145 59.35875 0.875 60.1875 C1.81666016 60.91646484 1.81666016 60.91646484 2.77734375 61.66015625 C9.4292386 67.06083096 14.27667845 73.96541398 16.875 82.1875 C17.93818622 95.81561425 16.75738229 106.54840025 8.171875 117.640625 C0.15612956 126.52883252 -10.38387369 130.86897779 -22.125 132.1875 C-37.99810474 132.88970525 -51.96047623 131.54743913 -65 121.4375 C-71.5679481 115.31919138 -75.74066905 106.89656161 -76.33984375 97.99609375 C-76.67191677 85.68282633 -74.58902061 77.29590078 -66.125 68.1875 C-62.48082517 64.56658586 -59.12878374 61.7037981 -54.125 60.1875 C-54.125 59.5275 -54.125 58.8675 -54.125 58.1875 C-54.86621094 57.93097656 -55.60742188 57.67445312 -56.37109375 57.41015625 C-63.34831066 54.31246988 -67.66145669 48.17732099 -70.43359375 41.265625 C-73.32106439 32.58689969 -73.45162148 22.98568561 -69.578125 14.59765625 C-62.86334004 3.46049948 -53.13418802 -3.68751156 -40.703125 -7.11328125 C-26.58920422 -9.87135092 -12.33449878 -7.54119272 0 0 Z " fill="#26313C" transform="translate(155.125,62.8125)"/>
<path d="M0 0 C7.73758551 4.35782555 15.11926721 10.35780162 18 19 C18.78345685 25.51168238 17.81896138 30.61820211 14 36 C9.63290772 40.71406673 5.06095461 43.03668306 -1.3125 43.375 C-6.93216633 43.22539158 -11.40436126 41.40458919 -15.5390625 37.57421875 C-20.82879258 31.58847155 -21.5194764 25.96473901 -21.37109375 18.22265625 C-20.48189801 10.50069325 -15.48704262 6.14686751 -9.76953125 1.34765625 C-6.20094777 -1.37013911 -4.33260661 -1.05686156 0 0 Z " fill="#CBABD0" transform="translate(127,133)"/>
<path d="M0 0 C4.51160718 2.25580359 7.12371399 5.6843523 8.7421875 10.33984375 C9.77964688 17.37151286 7.67674926 22.4947496 3.7421875 28.33984375 C1.34720204 31.09214559 -1.00893564 33.63541404 -4.2578125 35.33984375 C-10.36070709 34.9535846 -15.57953573 30.90840798 -19.87890625 26.78515625 C-24.07069849 21.98387493 -25.76372062 17.74685703 -25.5703125 11.328125 C-24.85408353 6.77111815 -22.00070273 4.06368551 -18.8203125 0.96484375 C-12.90671835 -1.73258516 -6.25703815 -1.82948001 0 0 Z " fill="#CBABCF" transform="translate(134.2578125,75.66015625)"/>
</svg>
